<svg width="650" height="650" viewBox="0 0 650 650" fill="none" xmlns="http://www.w3.org/2000/svg">
<path d="M592.293 423.137C632.112 310.297 581.62 185.458 475.696 129.805C428.035 104.714 378.644 83.0577 327.899 65C174.551 10.686 61.6978 176.098 63.4138 300.157C65.1298 424.216 128.895 564.629 285.688 575.9C442.481 587.171 545.857 548.327 590.655 427.7C591.214 426.14 591.76 424.645 592.293 423.137Z" fill="#9AD0EC"/>
<path opacity="0.7" d="M592.293 423.137C632.112 310.297 581.62 185.458 475.696 129.805C428.035 104.714 378.644 83.0577 327.899 65C174.551 10.686 61.6978 176.098 63.4138 300.157C65.1298 424.216 128.895 564.629 285.688 575.9C442.481 587.171 545.857 548.327 590.655 427.7C591.214 426.14 591.76 424.645 592.293 423.137Z" fill="white"/>
<path d="M557.7 451.659C557.713 451.628 557.714 451.593 557.701 451.561C557.689 451.53 557.665 451.504 557.635 451.49C557.6 451.48 557.563 451.482 557.53 451.496C557.497 451.511 557.469 451.536 557.453 451.568C553.651 460.668 550.645 470.081 548.47 479.7C546.255 489.342 544.597 499.104 543.504 508.937L542.802 516.321C542.685 517.621 542.555 518.778 542.464 520.013L542.269 523.731C542.152 526.201 542.009 528.671 541.931 531.141L542.009 538.577L542.087 542.282C542.087 543.517 542.23 544.752 542.308 545.987C542.503 548.457 542.646 550.927 542.88 553.384C543.348 558.311 544.089 563.212 544.856 568.087C544.862 568.117 544.878 568.144 544.902 568.163C544.926 568.182 544.955 568.192 544.986 568.191C545.019 568.188 545.051 568.173 545.074 568.15C545.098 568.126 545.113 568.095 545.116 568.061V568.061C545.116 565.591 544.999 563.134 544.934 560.664C544.869 558.194 544.648 555.75 544.687 553.293C544.726 550.836 544.687 548.379 544.609 545.922L544.544 542.243L544.609 538.564V531.206L544.804 523.848L544.882 520.169C544.882 518.947 545.025 517.725 545.09 516.49L545.545 509.145C546.385 499.355 547.774 489.62 549.705 479.986C551.554 470.332 554.229 460.855 557.7 451.659V451.659Z" fill="#263238"/>
<path d="M558.753 490.1C558.762 490.067 558.759 490.032 558.745 490.001C558.731 489.97 558.706 489.945 558.675 489.931C558.659 489.925 558.641 489.922 558.624 489.922C558.607 489.923 558.59 489.927 558.574 489.934C558.558 489.942 558.544 489.952 558.532 489.965C558.521 489.978 558.511 489.993 558.506 490.009C556.429 496.14 554.693 502.381 553.306 508.703C551.917 515.041 550.884 521.451 550.212 527.904C549.562 534.339 548.834 540.787 548.756 547.261C548.589 553.743 548.819 560.229 549.445 566.683C549.449 566.71 549.461 566.736 549.479 566.757C549.498 566.778 549.522 566.793 549.549 566.8C549.584 566.801 549.619 566.79 549.647 566.769C549.676 566.748 549.696 566.717 549.705 566.683C550.446 560.183 550.901 553.8 551.343 547.378C551.785 540.956 551.863 534.508 552.292 528.086C552.691 521.669 553.455 515.28 554.58 508.95C555.619 502.594 557.012 496.301 558.753 490.1V490.1Z" fill="#263238"/>
<path d="M580.086 503.672C580.062 503.648 580.029 503.635 579.995 503.635C579.961 503.635 579.928 503.648 579.904 503.672C574.556 507.094 569.738 511.281 565.604 516.1C563.522 518.533 561.656 521.143 560.027 523.9L558.883 526.058L557.986 528.307C557.677 529.049 557.412 529.809 557.193 530.582C556.972 531.349 556.712 532.116 556.504 532.883C554.871 539.034 553.882 545.338 553.553 551.694C553.234 558.02 553.469 564.363 554.255 570.648C554.261 570.679 554.276 570.708 554.3 570.729C554.324 570.75 554.353 570.763 554.385 570.765C554.417 570.765 554.449 570.753 554.473 570.732C554.497 570.71 554.512 570.68 554.515 570.648L556.14 551.889C556.591 545.684 557.385 539.508 558.519 533.39C558.688 532.636 558.909 531.895 559.104 531.141C559.275 530.392 559.492 529.654 559.754 528.931L560.521 526.773L561.496 524.719C562.979 521.981 564.688 519.372 566.605 516.919C570.412 511.957 574.923 507.578 579.995 503.919V503.919C580.028 503.931 580.064 503.93 580.096 503.915C580.127 503.9 580.152 503.874 580.164 503.841C580.176 503.808 580.175 503.772 580.16 503.74C580.145 503.709 580.119 503.684 580.086 503.672V503.672Z" fill="#263238"/>
<path d="M569.764 527.8C566.98 529.817 564.746 532.499 563.264 535.6C561.699 538.64 560.478 541.845 559.624 545.155C559.364 545.974 559.169 546.806 558.987 547.638L558.402 550.134C558.09 551.805 557.882 553.494 557.778 555.191C557.778 556.894 557.7 558.597 557.778 560.287C557.908 561.988 558.129 563.68 558.441 565.357C558.447 565.382 558.46 565.405 558.478 565.423C558.497 565.442 558.52 565.455 558.545 565.461C558.562 565.465 558.58 565.465 558.597 565.462C558.614 565.459 558.63 565.452 558.645 565.442C558.66 565.433 558.672 565.42 558.682 565.405C558.691 565.391 558.698 565.374 558.701 565.357C559.098 563.717 559.398 562.054 559.598 560.378C559.871 558.714 560.118 557.076 560.326 555.438C560.534 553.8 560.781 552.175 560.911 550.524C561.041 548.873 561.249 547.235 561.613 545.623C562.186 542.375 563.119 539.201 564.395 536.159C565.539 533.056 567.406 530.271 569.842 528.034C569.862 528.01 569.873 527.981 569.873 527.95C569.873 527.919 569.862 527.889 569.842 527.865C569.835 527.849 569.824 527.835 569.81 527.824C569.797 527.812 569.781 527.804 569.764 527.8V527.8Z" fill="#263238"/>
<path d="M539.838 546.559C539.136 538.226 537.771 529.984 536.471 521.742C535.171 513.5 533.728 505.284 532.22 497.042C530.712 488.8 529.035 480.662 527.267 472.524C527.267 472.49 527.253 472.457 527.229 472.432C527.204 472.408 527.171 472.394 527.137 472.394C527.102 472.394 527.069 472.408 527.045 472.432C527.021 472.457 527.007 472.49 527.007 472.524C528.437 480.727 529.724 488.956 530.907 497.224C532.09 505.492 533.325 513.708 534.365 521.924C535.405 530.14 536.185 538.473 537.212 546.715L540.267 571.506C540.267 571.537 540.279 571.567 540.301 571.589C540.323 571.611 540.353 571.623 540.384 571.623C540.42 571.623 540.454 571.61 540.481 571.586C540.507 571.562 540.524 571.529 540.527 571.493C540.618 569.413 540.618 567.32 540.67 565.227C540.722 563.134 540.592 561.054 540.553 558.961C540.514 554.892 540.15 550.732 539.838 546.559Z" fill="#263238"/>
<path d="M534.846 546.442C534.404 543.14 533.793 539.864 533.169 536.588L531.999 531.726C531.622 530.114 531.258 528.489 530.777 526.89C529.118 520.43 526.989 514.099 524.407 507.949L523.419 505.661L522.301 503.412C521.599 501.904 520.741 500.461 519.935 499.018C518.304 496.101 516.284 493.42 513.929 491.049C513.904 491.03 513.873 491.021 513.841 491.023C513.81 491.026 513.781 491.039 513.759 491.061C513.737 491.083 513.723 491.113 513.721 491.144C513.719 491.175 513.728 491.206 513.747 491.231V491.231C515.936 493.69 517.786 496.431 519.246 499.382C519.961 500.864 520.728 502.32 521.352 503.841L522.327 506.116L523.198 508.43C525.503 514.601 527.358 520.932 528.749 527.371C529.503 530.569 530.049 533.871 530.621 537.069L531.401 541.944C531.687 543.569 532.038 545.181 532.259 546.819C532.779 550.069 533.377 553.319 533.949 556.582C534.521 559.845 535.054 563.082 535.743 566.371C535.751 566.4 535.768 566.425 535.791 566.444C535.814 566.463 535.843 566.473 535.873 566.475C535.89 566.475 535.907 566.472 535.922 566.465C535.938 566.459 535.953 566.449 535.965 566.437C535.977 566.425 535.986 566.411 535.993 566.395C535.999 566.379 536.003 566.362 536.003 566.345C536.003 563.017 535.925 559.689 535.769 556.361C535.6 553.059 535.197 549.757 534.846 546.442Z" fill="#263238"/>
<path d="M527.956 546.858C526.409 542.49 524.628 538.213 522.678 534.027C520.718 529.84 518.504 525.776 516.048 521.859C516.023 521.841 515.994 521.831 515.963 521.831C515.933 521.831 515.903 521.841 515.879 521.859C515.855 521.883 515.842 521.916 515.842 521.95C515.842 521.984 515.855 522.017 515.879 522.041C518.021 526.104 519.914 530.293 521.547 534.586C523.237 538.837 524.758 543.166 526.032 547.586C527.306 552.006 528.268 556.452 529.438 560.859C530.608 565.266 531.648 569.699 533.013 574.158C533.02 574.185 533.035 574.209 533.056 574.227C533.077 574.246 533.102 574.258 533.13 574.262C533.164 574.262 533.197 574.248 533.222 574.224C533.246 574.2 533.26 574.167 533.26 574.132C533.316 569.48 532.88 564.835 531.96 560.274C530.989 555.702 529.65 551.215 527.956 546.858V546.858Z" fill="#263238"/>
<path d="M527.67 561.418C526.819 558.696 525.585 556.109 524.004 553.735C522.533 551.295 520.741 549.065 518.674 547.105C517.62 546.142 516.485 545.272 515.281 544.505C514.078 543.728 512.762 543.14 511.381 542.763C511.352 542.758 511.322 542.763 511.296 542.777C511.27 542.791 511.249 542.814 511.238 542.841C511.218 542.865 511.207 542.895 511.207 542.926C511.207 542.957 511.218 542.986 511.238 543.01V543.01C513.693 544.194 515.869 545.887 517.621 547.976C519.398 550.014 520.898 552.278 522.08 554.71C523.38 557.102 523.991 559.741 525.096 562.211C525.577 563.511 526.058 564.746 526.617 566.007C527.089 567.343 527.649 568.646 528.294 569.907V569.907C528.306 569.927 528.324 569.943 528.344 569.954C528.365 569.965 528.387 569.972 528.411 569.972C528.445 569.972 528.478 569.958 528.503 569.934C528.527 569.91 528.541 569.876 528.541 569.842C528.593 568.423 528.541 567.002 528.385 565.591C528.217 564.189 527.979 562.796 527.67 561.418V561.418Z" fill="#263238"/>
<path d="M528.19 484.497C524.035 483.341 520.275 481.072 517.315 477.936C514.355 474.799 512.308 470.914 511.394 466.7C508.248 452.01 518.388 458.302 509.288 435.214C500.188 412.126 502.294 406.874 505.388 400.218C508.482 393.562 510.289 395.668 513.084 404.417C515.879 413.166 526.084 426.816 529.88 452.361C533.676 477.906 528.19 484.497 528.19 484.497Z" fill="#9AD0EC"/>
<path d="M555.1 459.654C555.1 459.654 546 456.508 545.649 439.361C545.298 422.214 552.305 425.711 553.358 404.365C554.411 383.019 555.802 367.965 559.65 367.627C563.498 367.289 573.651 378.131 577.148 401.921C580.645 425.711 572.598 441.454 565.604 448.461C558.61 455.468 555.1 459.654 555.1 459.654Z" fill="#9AD0EC"/>
<path d="M523.289 505.141C523.289 505.141 521.183 492.544 516.984 486.59C512.785 480.636 503.698 475.397 497.744 463.853C491.79 452.309 485.147 446.706 485.498 463.151C485.849 479.596 493.194 487.994 502.294 493.597C511.394 499.2 523.289 505.141 523.289 505.141Z" fill="#9AD0EC"/>
<path d="M519.441 526.825C519.441 526.825 511.043 510.731 498.797 498.836C486.551 486.941 476.697 481 480.246 486.941C483.795 492.882 487.942 492.544 493.896 503.035C499.85 513.526 498.095 521.235 506.493 527.176C514.891 533.117 519.441 526.825 519.441 526.825Z" fill="#9AD0EC"/>
<path d="M518.388 547.469C518.037 546.429 517.686 538.733 505.791 532.428C493.896 526.123 482.703 528.528 484.094 531.726C485.485 534.924 492.843 540.124 500.201 543.283C507.559 546.442 518.388 547.469 518.388 547.469Z" fill="#9AD0EC"/>
<path d="M554.424 505.843C554.424 505.843 549.224 499.187 551.98 485.199C554.736 471.211 561.08 474.695 568.074 467.35C575.068 460.005 573.677 458.952 580.671 451.256C587.665 443.56 593.97 439.361 596.765 442.507C599.56 445.653 595.361 455.507 591.162 461.045C586.963 466.583 580.32 469.443 577.2 476.45C574.08 483.457 575.445 494.65 567.398 499.85C559.351 505.05 554.424 505.843 554.424 505.843Z" fill="#9AD0EC"/>
<path d="M571.922 509.691C571.922 509.691 584.519 495.391 593.619 484.848C602.719 474.305 606.216 466.297 606.619 473.304C607.022 480.311 609.765 485.888 602.42 494.988C595.075 504.088 571.922 509.691 571.922 509.691Z" fill="#9AD0EC"/>
<path d="M565.279 532.779C565.279 532.779 564.928 527.176 584.87 514.241C604.812 501.306 613.21 498.836 611.117 504.088C609.024 509.34 600.262 514.579 590.824 524.03C581.386 533.481 565.279 532.779 565.279 532.779Z" fill="#9AD0EC"/>
<path d="M529.022 483.002C529.022 483.002 524.342 457.899 519.441 440.102C514.54 422.305 511.394 411.411 511.394 411.411" stroke="#263238" stroke-linecap="round" stroke-linejoin="round"/>
<path d="M554.32 459.914C554.32 459.914 562.822 432.705 565.63 416.26C568.438 399.815 565.279 387.569 563.875 380.224" stroke="#263238" stroke-linecap="round" stroke-linejoin="round"/>
<path d="M522.184 504.608C518.415 498.118 514.1 491.96 509.288 486.2C501.592 477.1 495.651 472.212 492.141 463.463" stroke="#263238" stroke-linecap="round" stroke-linejoin="round"/>
<path d="M554.424 505.843C554.424 505.843 557.232 489.047 563.875 480.298C570.518 471.549 583.817 457.899 589.069 449.098" stroke="#263238" stroke-linecap="round" stroke-linejoin="round"/>
<path d="M517.569 547.092C517.569 547.092 505.791 539.422 497.393 535.223" stroke="#263238" stroke-linecap="round" stroke-linejoin="round"/>
<path d="M551.811 621.309H536.406C535.071 621.309 533.766 620.914 532.656 620.174C531.545 619.433 530.679 618.381 530.166 617.149C525.135 605.098 511.693 570.284 519.766 560.417C527.475 551.018 560.69 551.018 568.399 560.417C576.485 570.284 563.056 605.098 557.999 617.149C557.489 618.373 556.63 619.42 555.53 620.159C554.43 620.899 553.136 621.299 551.811 621.309V621.309Z" fill="#263238" stroke="#263238" stroke-linecap="round" stroke-linejoin="round"/>
<path d="M115.7 451.659C115.69 451.626 115.693 451.591 115.707 451.56C115.722 451.529 115.747 451.504 115.778 451.49C115.794 451.484 115.811 451.481 115.829 451.482C115.846 451.482 115.863 451.486 115.879 451.493C115.894 451.501 115.909 451.511 115.92 451.524C115.932 451.537 115.941 451.552 115.947 451.568C119.747 460.67 122.757 470.082 124.943 479.7C127.145 489.345 128.803 499.106 129.909 508.937L130.611 516.321C130.715 517.621 130.845 518.778 130.936 520.013L131.144 523.731C131.248 526.201 131.404 528.671 131.469 531.141V538.577L131.378 542.282C131.378 543.517 131.235 544.752 131.157 545.987C130.975 548.457 130.819 550.927 130.598 553.384C130.117 558.311 129.376 563.212 128.622 568.087C128.614 568.116 128.597 568.141 128.573 568.16C128.55 568.179 128.522 568.189 128.492 568.191C128.457 568.191 128.424 568.177 128.4 568.153C128.375 568.129 128.362 568.096 128.362 568.061V568.061C128.362 565.591 128.479 563.134 128.531 560.664C128.583 558.194 128.817 555.75 128.778 553.293C128.739 550.836 128.778 548.379 128.869 545.922V542.243V538.564V531.206L128.57 523.9L128.492 520.221C128.492 518.999 128.349 517.777 128.284 516.542L127.829 509.197C126.995 499.407 125.606 489.671 123.669 480.038C121.837 470.366 119.17 460.871 115.7 451.659V451.659Z" fill="#263238"/>
<path d="M114.66 490.1C114.648 490.067 114.649 490.031 114.664 489.999C114.679 489.968 114.705 489.943 114.738 489.931C114.771 489.919 114.807 489.92 114.839 489.935C114.87 489.95 114.895 489.976 114.907 490.009C116.978 496.142 118.714 502.382 120.107 508.703C121.502 515.039 122.535 521.45 123.201 527.904C123.864 534.339 124.579 540.787 124.67 547.261C124.824 553.743 124.594 560.228 123.981 566.683C123.974 566.712 123.96 566.738 123.939 566.758C123.919 566.779 123.892 566.793 123.864 566.8C123.847 566.802 123.83 566.8 123.813 566.795C123.797 566.79 123.781 566.782 123.768 566.771C123.755 566.76 123.744 566.747 123.736 566.732C123.728 566.717 123.723 566.7 123.721 566.683C122.967 560.183 122.512 553.8 122.07 547.378C121.628 540.956 121.55 534.508 121.134 528.086C120.724 521.67 119.956 515.281 118.833 508.95C117.788 502.595 116.395 496.302 114.66 490.1V490.1Z" fill="#263238"/>
<path d="M93.3268 503.672C93.3511 503.648 93.3838 503.635 93.4178 503.635C93.4519 503.635 93.4845 503.648 93.5088 503.672C98.8546 507.097 103.672 511.284 107.809 516.1C109.882 518.54 111.748 521.149 113.386 523.9L114.53 526.058L115.427 528.307C115.731 529.049 115.992 529.809 116.207 530.582C116.441 531.349 116.701 532.116 116.896 532.883C118.535 539.033 119.524 545.338 119.847 551.694C120.166 558.02 119.931 564.363 119.145 570.648C119.145 570.713 119.145 570.765 119.028 570.765C119.011 570.767 118.993 570.765 118.977 570.76C118.961 570.755 118.945 570.747 118.932 570.736C118.919 570.726 118.908 570.712 118.9 570.697C118.891 570.682 118.886 570.665 118.885 570.648L117.26 551.889C116.815 545.683 116.021 539.507 114.881 533.39C114.712 532.636 114.491 531.895 114.309 531.141C114.127 530.393 113.906 529.655 113.646 528.931L112.892 526.773L111.904 524.719C110.421 521.981 108.712 519.372 106.795 516.919C102.988 511.957 98.477 507.578 93.4048 503.919V503.919C93.3886 503.924 93.3716 503.926 93.3546 503.925C93.3377 503.923 93.3212 503.918 93.3061 503.91C93.291 503.903 93.2776 503.892 93.2667 503.879C93.2557 503.866 93.2475 503.851 93.2423 503.835C93.2372 503.818 93.2353 503.801 93.2368 503.784C93.2383 503.767 93.2431 503.751 93.2509 503.736C93.2588 503.721 93.2695 503.707 93.2825 503.696C93.2956 503.685 93.3106 503.677 93.3268 503.672V503.672Z" fill="#263238"/>
<path d="M103.649 527.8C106.427 529.823 108.66 532.503 110.149 535.6C111.71 538.64 112.926 541.845 113.776 545.155C114.036 545.974 114.231 546.806 114.413 547.638L114.998 550.134C115.308 551.806 115.52 553.495 115.635 555.191C115.635 556.894 115.635 558.597 115.635 560.287C115.518 561.989 115.297 563.682 114.972 565.357C114.966 565.382 114.953 565.405 114.934 565.423C114.916 565.442 114.893 565.455 114.868 565.461C114.851 565.465 114.833 565.465 114.816 565.462C114.799 565.459 114.782 565.452 114.768 565.442C114.753 565.433 114.741 565.42 114.731 565.405C114.722 565.391 114.715 565.374 114.712 565.357C114.296 563.691 113.975 562.002 113.75 560.3C113.49 558.636 113.23 556.998 113.035 555.36C112.84 553.722 112.58 552.097 112.45 550.446C112.32 548.795 112.099 547.157 111.735 545.545C111.166 542.297 110.237 539.123 108.966 536.081C107.81 532.984 105.945 530.202 103.519 527.956C103.499 527.932 103.488 527.903 103.488 527.872C103.488 527.841 103.499 527.811 103.519 527.787C103.54 527.778 103.563 527.774 103.586 527.776C103.609 527.778 103.63 527.787 103.649 527.8V527.8Z" fill="#263238"/>
<path d="M133.562 546.559C134.264 538.226 135.642 529.984 136.942 521.742C138.242 513.5 139.672 505.284 141.18 497.042C142.688 488.8 144.378 480.662 146.146 472.524C146.152 472.492 146.17 472.463 146.197 472.444C146.223 472.425 146.256 472.416 146.289 472.42C146.306 472.423 146.322 472.43 146.337 472.439C146.352 472.449 146.364 472.461 146.374 472.476C146.384 472.49 146.39 472.507 146.394 472.524C146.397 472.541 146.397 472.559 146.393 472.576C144.971 480.775 143.671 489.008 142.493 497.276C141.193 505.518 140.062 513.76 139.022 521.976C137.982 530.192 137.215 538.525 136.175 546.767L133.133 571.558C133.127 571.589 133.111 571.618 133.088 571.639C133.064 571.66 133.034 571.673 133.003 571.675C132.968 571.675 132.935 571.661 132.911 571.637C132.887 571.613 132.873 571.58 132.873 571.545C132.769 569.465 132.769 567.372 132.717 565.279C132.665 563.186 132.808 561.106 132.847 559.013C132.899 554.892 133.25 550.732 133.562 546.559Z" fill="#263238"/>
<path d="M138.554 546.442C138.996 543.14 139.607 539.864 140.231 536.588L141.401 531.726C141.791 530.114 142.155 528.489 142.623 526.89C144.282 520.43 146.411 514.099 148.993 507.949L149.994 505.661L151.099 503.412C151.801 501.904 152.659 500.461 153.465 499.018C155.095 496.098 157.121 493.416 159.484 491.049C159.495 491.038 159.508 491.029 159.522 491.022C159.537 491.016 159.553 491.013 159.568 491.013C159.584 491.013 159.6 491.016 159.614 491.022C159.629 491.029 159.642 491.038 159.653 491.049C159.674 491.075 159.686 491.107 159.686 491.14C159.686 491.173 159.674 491.205 159.653 491.231V491.231C157.46 493.687 155.61 496.429 154.154 499.382C153.426 500.864 152.659 502.32 152.035 503.841L151.06 506.116L150.202 508.43C147.89 514.599 146.035 520.93 144.651 527.371C143.884 530.569 143.351 533.871 142.766 537.069L141.986 541.944C141.7 543.569 141.349 545.181 141.128 546.819C140.608 550.069 140.01 553.319 139.438 556.582C138.866 559.845 138.333 563.082 137.644 566.371C137.638 566.399 137.624 566.424 137.603 566.443C137.582 566.461 137.555 566.473 137.527 566.475C137.509 566.477 137.491 566.475 137.475 566.469C137.458 566.464 137.443 566.454 137.43 566.442C137.418 566.429 137.408 566.414 137.402 566.397C137.397 566.38 137.395 566.363 137.397 566.345C137.397 563.017 137.47 559.689 137.618 556.361C137.8 553.059 138.216 549.757 138.554 546.442Z" fill="#263238"/>
<path d="M145.444 546.858C146.991 542.49 148.772 538.213 150.722 534.027C152.687 529.842 154.901 525.779 157.352 521.859C157.379 521.84 157.411 521.83 157.443 521.83C157.476 521.83 157.508 521.84 157.534 521.859C157.555 521.885 157.567 521.917 157.567 521.95C157.567 521.983 157.555 522.015 157.534 522.041C155.396 526.104 153.508 530.293 151.879 534.586C150.189 538.837 148.668 543.166 147.381 547.586C146.094 552.006 145.145 556.452 143.988 560.859C142.831 565.266 141.765 569.699 140.413 574.158C140.413 574.192 140.4 574.226 140.375 574.25C140.351 574.274 140.318 574.288 140.283 574.288C140.249 574.288 140.216 574.274 140.191 574.25C140.167 574.226 140.153 574.192 140.153 574.158C140.097 569.506 140.533 564.861 141.453 560.3C142.413 555.717 143.747 551.222 145.444 546.858V546.858Z" fill="#263238"/>
<path d="M145.73 561.418C146.587 558.698 147.821 556.112 149.396 553.735C150.871 551.295 152.668 549.065 154.739 547.105C155.79 546.139 156.926 545.269 158.132 544.505C159.335 543.727 160.65 543.139 162.032 542.763C162.064 542.756 162.097 542.761 162.125 542.777C162.154 542.794 162.175 542.82 162.184 542.851C162.194 542.882 162.192 542.915 162.178 542.945C162.165 542.974 162.14 542.998 162.11 543.01V543.01C159.655 544.194 157.479 545.887 155.727 547.976C153.95 550.011 152.454 552.276 151.281 554.71C149.981 557.102 149.357 559.741 148.265 562.211C147.784 563.511 147.29 564.746 146.731 566.007C146.264 567.343 145.708 568.645 145.067 569.907V569.907C145.058 569.926 145.043 569.943 145.024 569.954C145.006 569.966 144.985 569.972 144.963 569.972C144.945 569.974 144.927 569.972 144.909 569.966C144.892 569.96 144.876 569.951 144.863 569.939C144.849 569.927 144.839 569.912 144.831 569.895C144.824 569.878 144.82 569.86 144.82 569.842C144.775 568.423 144.827 567.003 144.976 565.591C145.106 564.2 145.405 562.796 145.73 561.418Z" fill="#263238"/>
<path d="M145.223 484.497C149.376 483.338 153.135 481.068 156.094 477.933C159.054 474.797 161.102 470.913 162.019 466.7C165.165 452.01 155.012 458.302 164.112 435.214C173.212 412.126 171.106 406.874 168.012 400.218C164.918 393.562 163.111 395.668 160.316 404.417C157.521 413.166 147.316 426.816 143.52 452.361C139.724 477.906 145.223 484.497 145.223 484.497Z" fill="#9AD0EC"/>
<path d="M118.3 459.654C118.3 459.654 127.4 456.508 127.751 439.361C128.102 422.214 121.108 425.711 120.055 404.365C119.002 383.019 117.598 367.965 113.75 367.627C109.902 367.289 99.7361 378.131 96.2001 401.921C92.6641 425.711 100.737 441.454 107.744 448.461C114.751 455.468 118.3 459.654 118.3 459.654Z" fill="#9AD0EC"/>
<path d="M150.111 505.141C150.111 505.141 152.217 492.544 156.416 486.59C160.615 480.636 169.715 475.397 175.656 463.853C181.597 452.309 188.253 446.706 187.902 463.151C187.551 479.596 180.206 487.994 171.106 493.597C162.006 499.2 150.111 505.141 150.111 505.141Z" fill="#9AD0EC"/>
<path d="M153.972 526.825C153.972 526.825 162.357 510.731 174.603 498.836C186.849 486.941 196.703 481 193.154 486.941C189.605 492.882 185.458 492.544 179.504 503.035C173.55 513.526 175.305 521.235 166.907 527.176C158.509 533.117 153.972 526.825 153.972 526.825Z" fill="#9AD0EC"/>
<path d="M155.012 547.469C155.363 546.429 155.714 538.733 167.609 532.428C179.504 526.123 190.71 528.528 189.306 531.726C187.902 534.924 180.557 540.124 173.212 543.283C165.867 546.442 155.012 547.469 155.012 547.469Z" fill="#9AD0EC"/>
<path d="M118.976 505.843C118.976 505.843 124.176 499.187 121.42 485.199C118.664 471.211 112.32 474.695 105.326 467.35C98.3319 460.005 99.7359 458.952 92.7289 451.256C85.7219 443.56 79.4429 439.4 76.6999 442.507C73.9569 445.614 78.1039 455.507 82.3029 461.045C86.5019 466.583 93.0799 469.443 96.1999 476.45C99.3199 483.457 97.9419 494.65 105.989 499.85C114.036 505.05 118.976 505.843 118.976 505.843Z" fill="#9AD0EC"/>
<path d="M101.478 509.691C101.478 509.691 88.881 495.3 79.794 484.9C70.707 474.5 67.197 466.349 66.794 473.356C66.391 480.363 63.635 485.94 70.993 495.04C78.351 504.14 101.478 509.691 101.478 509.691Z" fill="#9AD0EC"/>
<path d="M108.134 532.779C108.134 532.779 108.485 527.176 88.53 514.241C68.575 501.306 60.19 498.836 62.296 504.088C64.402 509.34 73.138 514.579 82.589 524.03C92.04 533.481 108.134 532.779 108.134 532.779Z" fill="#9AD0EC"/>
<path d="M144.391 483.002C144.391 483.002 149.071 457.899 153.972 440.102C158.873 422.305 162.019 411.411 162.019 411.411" stroke="#263238" stroke-linecap="round" stroke-linejoin="round"/>
<path d="M119.08 459.914C119.08 459.914 110.578 432.705 107.783 416.26C104.988 399.815 108.134 387.569 109.525 380.224" stroke="#263238" stroke-linecap="round" stroke-linejoin="round"/>
<path d="M151.216 504.608C154.985 498.118 159.3 491.96 164.112 486.2C171.808 477.1 177.762 472.212 181.259 463.463" stroke="#263238" stroke-linecap="round" stroke-linejoin="round"/>
<path d="M118.976 505.843C118.976 505.843 116.181 489.047 109.525 480.298C102.869 471.549 89.5831 457.899 84.3311 449.098" stroke="#263238" stroke-linecap="round" stroke-linejoin="round"/>
<path d="M155.844 547.092C155.844 547.092 167.609 539.422 176.007 535.223" stroke="#263238" stroke-linecap="round" stroke-linejoin="round"/>
<path d="M121.602 621.309H136.994C138.329 621.311 139.634 620.916 140.745 620.176C141.856 619.435 142.722 618.382 143.234 617.149C148.265 605.098 161.707 570.284 153.634 560.417C145.925 551.018 112.697 551.018 104.988 560.417C96.9017 570.284 110.344 605.098 115.388 617.149C115.898 618.378 116.76 619.428 117.866 620.169C118.971 620.909 120.271 621.306 121.602 621.309V621.309Z" fill="#263238" stroke="#263238" stroke-linecap="round" stroke-linejoin="round"/>
<g opacity="0.3">
<path opacity="0.3" d="M600.34 179.92L523.419 239.252L480.35 199.966L495.248 191.373L445.523 176.553L447.109 226.876L460.954 214.994L524.654 290.81L630.292 212.654L600.34 179.92Z" stroke="black" stroke-miterlimit="10"/>
<path opacity="0.3" d="M628.03 47.0861L558.909 70.2651L548.288 53.1051L486.369 80.2231L492.336 62.5691L455.338 94.1071L495.092 112.658L487.669 96.3301L542.412 78.3251L558.324 98.9171L642.46 70.7201L628.03 47.0861Z" stroke="black" stroke-miterlimit="10"/>
<path opacity="0.3" d="M33.7089 61.529L104.156 79.885L112.463 61.243L176.332 84.253L168.35 66.456L208.403 96.096L171.769 118.573L177.034 101.049L121.277 86.879L108.225 109.512L22.4639 87.204L33.7089 61.529Z" stroke="black" stroke-miterlimit="10"/>
<path opacity="0.3" d="M176.93 185.484L189.8 192.907L152.607 226.837L86.177 175.591L25.896 214.422L39.182 250.484L83.668 221.143L151.541 271.362L206.544 205.894L218.504 216.138L219.869 172.679L176.93 185.484Z" stroke="black" stroke-miterlimit="10"/>
</g>
<path d="M405.6 585C405.093 583.7 402.311 582.725 402.311 582.725C402.311 582.725 400.816 533 400.816 521.3C400.816 509.6 392.496 485.992 391.989 481.195C391.482 476.398 392.496 442.364 389.714 418.665C386.932 394.966 380.614 365.456 380.614 365.456L338.871 352.339C338.871 351.572 327.769 355.368 327.769 355.368L293.969 365.456C293.969 365.456 287.664 394.953 284.869 418.665C282.074 442.377 283.114 476.411 282.607 481.195C282.1 485.979 273.78 509.691 273.78 521.3C273.78 532.909 272.272 582.686 272.272 582.686C272.272 582.686 269.542 583.7 269.1 585C268.658 586.3 267.345 597.857 267.345 597.857C267.345 597.857 283.738 602.654 286.507 603.161C289.276 603.668 290.03 603.408 290.29 602.407C290.55 601.406 294.827 595.595 294.827 593.073C294.827 590.551 293.527 583.973 293.527 581.724C293.527 579.475 310.921 495.859 310.921 495.859C310.921 495.859 335.894 399.282 336.921 400.79C336.977 400.851 337.046 400.901 337.122 400.934C337.198 400.968 337.28 400.985 337.363 400.985C337.446 400.985 337.529 400.968 337.605 400.934C337.681 400.901 337.749 400.851 337.805 400.79C338.819 399.282 363.805 495.859 363.805 495.859C363.805 495.859 381.212 579.449 381.212 581.724C381.212 583.999 379.912 590.551 379.912 593.073C379.912 595.595 384.202 601.393 384.449 602.407C384.696 603.421 385.463 603.707 388.232 603.161C391.001 602.615 407.394 597.857 407.394 597.857C407.394 597.857 406.107 586.3 405.6 585Z" fill="#263238" stroke="#263238" stroke-miterlimit="10" stroke-linecap="round"/>
<path d="M283.673 599.118C283.673 599.118 278.369 588.536 275.093 589.29C271.817 590.044 268.034 596.349 267.293 597.857C266.552 599.365 254.93 610.103 254.93 610.103C254.93 610.103 244.53 615.654 243.334 617.162C242.556 618.262 242.197 619.603 242.32 620.945H290.992C291.834 617 292.338 612.99 292.5 608.959C292.739 605.757 292.573 602.538 292.006 599.378L283.673 599.118Z" fill="white" stroke="#263238" stroke-miterlimit="10" stroke-linecap="round"/>
<path d="M242.307 620.945H290.979C290.979 620.945 291.187 619.411 291.447 617.162H243.347C242.56 618.258 242.191 619.6 242.307 620.945V620.945Z" fill="white" stroke="#263238" stroke-miterlimit="10" stroke-linecap="round"/>
<path d="M393.471 599.118C393.471 599.118 398.762 588.536 402.038 589.29C405.314 590.044 409.097 596.349 409.838 597.857C410.579 599.365 422.201 610.103 422.201 610.103C422.201 610.103 432.601 615.654 433.797 617.162C434.575 618.262 434.935 619.603 434.811 620.945H386.1C386.1 620.945 384.8 611.611 384.592 605.059C384.384 598.507 385.086 599.378 385.086 599.378L393.471 599.118Z" fill="white" stroke="#263238" stroke-miterlimit="10" stroke-linecap="round"/>
<path d="M434.824 620.945H386.1C386.1 620.945 385.892 619.411 385.632 617.162H433.732C434.538 618.251 434.925 619.594 434.824 620.945V620.945Z" fill="white" stroke="#263238" stroke-miterlimit="10" stroke-linecap="round"/>
<path d="M339.001 184.171C333.633 184.648 328.491 186.556 324.11 189.695C319.729 192.834 316.27 197.09 314.093 202.02C313.002 204.368 312.287 206.873 311.974 209.443C311.298 217.243 311.467 221.923 309.777 229.515C308.087 237.107 300.677 242.32 303.381 250.419C306.085 258.518 318.383 270.829 339.963 270.829C361.543 270.829 375.544 255.476 376.558 250.419C377.572 245.362 374.036 240.474 371.501 230.685C368.966 220.896 370.656 213.486 366.301 200.785C361.946 188.084 349.245 183.3 339.3 184.145L339.001 184.171Z" fill="#263238" stroke="#263238" stroke-miterlimit="10" stroke-linecap="round"/>
<path d="M428.064 235.144C426.114 236.769 425.464 237.419 425.464 237.419L377.91 286.481L372.008 327.47L385.97 379.158C385.97 379.158 382.772 384.215 373.49 391.3C364.208 398.385 344.5 409.344 344.5 409.344L337.454 371.982L336.154 378.053L333.931 409.344C333.931 409.344 314.197 398.385 304.928 391.3C295.659 384.215 288.548 379.158 288.548 379.158L304.798 327.47L298.896 286.481L251.329 237.419C251.329 237.419 250.666 236.743 248.638 235.053C247.507 234.104 252.226 214.123 256.607 196.69C260.065 182.949 263.302 170.807 263.302 170.807C261.201 170.162 259.167 169.313 257.231 168.272C256.356 167.547 255.665 166.625 255.216 165.581H283.543L277.81 171.314L274.248 199.472L270.725 227.292L312.546 256.802L323.505 261.703H353.405L364.377 256.802L406.198 227.292L402.714 199.784L399.113 171.314L393.38 165.581H421.59C421.139 166.627 420.444 167.55 419.562 168.272C417.627 169.315 415.594 170.165 413.491 170.807C413.491 170.807 416.871 183.495 420.42 197.587C423.345 209.287 426.374 221.858 427.674 229.086C428.298 232.531 428.532 234.754 428.168 235.053L428.064 235.144" fill="white"/>
<path d="M428.064 235.144C426.114 236.769 425.464 237.419 425.464 237.419L377.91 286.481L372.008 327.47L385.97 379.158C385.97 379.158 382.772 384.215 373.49 391.3C364.208 398.385 344.5 409.344 344.5 409.344L337.454 371.982L336.154 378.053L333.931 409.344C333.931 409.344 314.197 398.385 304.928 391.3C295.659 384.215 288.548 379.158 288.548 379.158L304.798 327.47L298.896 286.481L251.329 237.419C251.329 237.419 250.666 236.743 248.638 235.053C247.507 234.104 252.226 214.123 256.607 196.69C260.065 182.949 263.302 170.807 263.302 170.807C261.201 170.162 259.167 169.313 257.231 168.272C256.356 167.547 255.665 166.625 255.216 165.581H283.543L277.81 171.314L274.248 199.472L270.725 227.292L312.546 256.802L323.505 261.703H353.405L364.377 256.802L406.198 227.292L402.714 199.784L399.113 171.314L393.38 165.581H421.59C421.139 166.627 420.444 167.55 419.562 168.272C417.627 169.315 415.594 170.165 413.491 170.807C413.491 170.807 416.871 183.495 420.42 197.587C423.345 209.287 426.374 221.858 427.674 229.086C428.298 232.531 428.532 234.754 428.168 235.053L428.064 235.144" stroke="#263238" stroke-miterlimit="10" stroke-linecap="round"/>
<path d="M377.91 286.481L372.008 327.47L385.97 379.158C385.97 379.158 382.772 384.215 373.49 391.3C364.208 398.385 344.5 409.344 344.5 409.344L337.909 386.425L336.609 392.496L333.931 409.396C333.931 409.396 314.197 398.437 304.928 391.352C295.659 384.267 288.548 379.21 288.548 379.21L304.798 327.522L298.896 286.533L251.329 237.471C251.329 237.471 250.666 236.795 248.638 235.105C247.507 234.156 252.226 214.175 256.607 196.742L274.248 199.524L270.725 227.344L312.546 256.854L323.505 261.755H353.405L364.377 256.854L406.198 227.344L402.714 199.836L420.42 197.6C423.345 209.3 426.374 221.871 427.674 229.099L428.064 235.157C426.114 236.782 425.464 237.432 425.464 237.432L377.91 286.481Z" fill="white" stroke="#263238" stroke-miterlimit="10" stroke-linecap="round"/>
<path d="M338.455 360.308V366.249" stroke="#263238" stroke-miterlimit="10" stroke-linecap="round"/>
<path d="M338.455 303.524V355.017" stroke="#263238" stroke-miterlimit="10" stroke-linecap="round"/>
<path d="M377.91 286.481L385.84 259.844" stroke="#263238" stroke-miterlimit="10" stroke-linecap="round"/>
<path d="M389.285 261.131L390.897 257.816" stroke="#263238" stroke-miterlimit="10" stroke-linecap="round"/>
<path d="M380.003 280.254L387.088 265.668" stroke="#263238" stroke-miterlimit="10" stroke-linecap="round"/>
<path d="M293.527 263.9L292.409 259.168" stroke="#263238" stroke-miterlimit="10" stroke-linecap="round"/>
<path d="M298.818 286.481L294.437 267.813" stroke="#263238" stroke-miterlimit="10" stroke-linecap="round"/>
<path d="M297.635 282.269L287.352 262.704" stroke="#263238" stroke-miterlimit="10" stroke-linecap="round"/>
<path d="M321.919 264.394C321.919 264.394 319.904 278.902 322.764 288.847" stroke="#263238" stroke-miterlimit="10" stroke-linecap="round"/>
<path d="M319.904 263.718C317.688 268.9 316.428 274.441 316.186 280.072" stroke="#263238" stroke-miterlimit="10" stroke-linecap="round"/>
<path d="M353.964 267.8C353.964 267.8 355.264 279.266 353.795 287.69" stroke="#263238" stroke-miterlimit="10" stroke-linecap="round"/>
<path d="M355.654 264.563C357.564 267.831 358.822 271.438 359.359 275.184" stroke="#263238" stroke-miterlimit="10" stroke-linecap="round"/>
<path d="M328.497 247.377L328.328 263.042L335.075 273.169L338.117 295.087L342.667 273L350.935 260.52L350.428 247.221L328.497 247.377Z" fill="white" stroke="#263238" stroke-miterlimit="10" stroke-linecap="round"/>
<path d="M340.756 253.045L328.952 256.152V247.377L340.756 253.045Z" fill="#263238" stroke="#263238" stroke-miterlimit="10" stroke-linecap="round"/>
<path d="M338.455 202.02C338.455 202.02 320.58 213.993 320.58 216.19C320.58 218.387 321.087 238.615 322.595 242.32C324.103 246.025 336.258 255.645 338.624 255.814C340.99 255.983 344.019 255.138 344.695 254.514C345.371 253.89 356.499 244.4 357.175 241.202C357.851 238.004 358.8 219.895 358.8 219.895C358.8 219.895 340.977 211.64 338.455 202.02Z" fill="white" stroke="#263238" stroke-miterlimit="10" stroke-linecap="round"/>
<path d="M343.2 219.895C343.2 219.895 342.693 230.854 343.031 231.699C343.369 232.544 338.819 231.53 338.819 231.53" stroke="#263238" stroke-miterlimit="10" stroke-linecap="round"/>
<path d="M333.723 237.263C333.723 237.263 340.639 240.643 346.723 236.756C346.723 236.756 345.709 242.32 341.523 243.165C336.505 244.166 333.723 237.263 333.723 237.263Z" fill="#263238" stroke="#263238" stroke-miterlimit="10" stroke-linecap="round"/>
<path d="M331.539 224.614C332.379 224.614 333.06 223.595 333.06 222.339C333.06 221.083 332.379 220.064 331.539 220.064C330.699 220.064 330.018 221.083 330.018 222.339C330.018 223.595 330.699 224.614 331.539 224.614Z" fill="#263238"/>
<path d="M351 222.3C351 223.6 350.311 224.575 349.479 224.575C348.647 224.575 347.958 223.561 347.958 222.3C347.958 221.039 348.634 220.025 349.479 220.025C350.324 220.025 351 221.091 351 222.3Z" fill="#263238"/>
<path d="M326.651 217.542C326.651 217.542 332.046 213.642 336.427 216.242" stroke="#263238" stroke-miterlimit="10" stroke-linecap="round"/>
<path d="M343.85 216.021C345.546 215.312 347.399 215.059 349.223 215.287C351.047 215.515 352.78 216.216 354.25 217.321" stroke="#263238" stroke-miterlimit="10" stroke-linecap="round"/>
<path d="M320.749 224.276C320.749 224.276 316.355 220.064 316.186 224.276C316.017 228.488 321.386 232.882 321.386 232.882L320.749 224.276Z" fill="white" stroke="#263238" stroke-miterlimit="10" stroke-linecap="round"/>
<path d="M358.8 224.783C358.8 224.783 362.518 221.585 363.025 224.614C363.532 227.643 358.124 233.051 358.124 233.051L358.8 224.783Z" fill="white" stroke="#263238" stroke-miterlimit="10" stroke-linecap="round"/>
<path d="M325.806 257.647L336.258 271.648L330.525 284.128L321.919 261.196L325.806 257.647Z" fill="white" stroke="#263238" stroke-miterlimit="10" stroke-linecap="round"/>
<path d="M351.936 257.647L341.484 271.648L347.217 284.128L355.823 261.196L351.936 257.647Z" fill="white" stroke="#263238" stroke-miterlimit="10" stroke-linecap="round"/>
<path d="M446.563 35.776H213.72V166.062H446.563V35.776Z" fill="#263238" stroke="#263238" stroke-miterlimit="10" stroke-linecap="round"/>
<path d="M399.373 171.743C399.373 171.743 393.068 165.1 391.963 163.67C390.858 162.24 390.468 160.953 391.443 159.848C392.418 158.743 391.378 152.763 391.313 151.268C391.248 149.773 392.782 149.968 394.316 151.593C395.85 153.218 396.591 159.211 396.513 160.498C396.51 161.373 396.758 162.23 397.228 162.968C397.228 162.968 403.117 163.098 405.249 165.178C407.381 167.258 406.458 171.405 406.458 171.405" fill="white"/>
<path d="M399.373 171.743C399.373 171.743 393.068 165.1 391.963 163.67C390.858 162.24 390.468 160.953 391.443 159.848C392.418 158.743 391.378 152.763 391.313 151.268C391.248 149.773 392.782 149.968 394.316 151.593C395.85 153.218 396.591 159.211 396.513 160.498C396.51 161.373 396.758 162.23 397.228 162.968C397.228 162.968 403.117 163.098 405.249 165.178C407.381 167.258 406.458 171.405 406.458 171.405" stroke="#263238" stroke-miterlimit="10" stroke-linecap="round"/>
<path d="M277.862 171.743C277.862 171.743 284.167 165.1 285.272 163.67C286.377 162.24 286.767 160.953 285.805 159.848C284.843 158.743 285.805 152.763 285.935 151.268C286.065 149.773 284.466 149.968 282.932 151.593C281.398 153.218 280.657 159.211 280.735 160.498C280.732 161.372 280.485 162.228 280.02 162.968C280.02 162.968 274.118 163.098 271.986 165.178C269.854 167.258 270.777 171.405 270.777 171.405" fill="white"/>
<path d="M277.862 171.743C277.862 171.743 284.167 165.1 285.272 163.67C286.377 162.24 286.767 160.953 285.805 159.848C284.843 158.743 285.805 152.763 285.935 151.268C286.065 149.773 284.466 149.968 282.932 151.593C281.398 153.218 280.657 159.211 280.735 160.498C280.732 161.372 280.485 162.228 280.02 162.968C280.02 162.968 274.118 163.098 271.986 165.178C269.854 167.258 270.777 171.405 270.777 171.405" stroke="#263238" stroke-miterlimit="10" stroke-linecap="round"/>
<path d="M249.847 94.2761V54.2621H265.369V58.4091H255.437V71.6561H263.484V75.5561H255.437V90.2851H265.46V94.2761H249.847Z" fill="#9AD0EC"/>
<path d="M267.488 94.2761L275.834 73.3331L267.631 54.2621H272.831L278.902 68.3931L284.44 54.2621H289.64L281.242 73.7621L290.03 94.2631H284.83L278.33 79.1961L272.701 94.2631L267.488 94.2761Z" fill="#9AD0EC"/>
<path d="M303.81 94.7311C301.473 94.8722 299.155 94.2468 297.206 92.9501C295.629 91.7453 294.484 90.0624 293.943 88.1531C293.31 85.9699 293.003 83.705 293.033 81.4321V67.3011C292.989 64.9162 293.296 62.5378 293.943 60.2421C294.466 58.3594 295.617 56.7124 297.206 55.5751C299.184 54.3558 301.49 53.7749 303.81 53.9111C305.882 53.8072 307.941 54.2893 309.751 55.3021C311.21 56.2164 312.325 57.5876 312.923 59.2021C313.606 61.1873 313.932 63.278 313.885 65.3771V68.5361H308.594V65.7671C308.6 64.4638 308.527 63.1613 308.373 61.8671C308.285 60.886 307.858 59.9663 307.164 59.2671C306.214 58.5531 305.032 58.2194 303.849 58.3311C303.269 58.2394 302.677 58.2698 302.11 58.4205C301.543 58.5711 301.013 58.8386 300.555 59.2058C300.098 59.5729 299.722 60.0317 299.452 60.5527C299.181 61.0737 299.023 61.6454 298.987 62.2311C298.753 63.6619 298.644 65.1104 298.662 66.5601V82.4201C298.618 84.0208 298.784 85.6204 299.156 87.1781C299.377 88.1831 299.96 89.0717 300.794 89.6741C301.719 90.211 302.78 90.4683 303.849 90.4151C304.433 90.471 305.022 90.4102 305.582 90.2361C306.143 90.062 306.663 89.7782 307.112 89.4011C307.816 88.6334 308.25 87.6564 308.347 86.6191C308.526 85.2398 308.608 83.8498 308.594 82.4591V79.4041H313.885V82.3681C313.928 84.5683 313.625 86.7616 312.988 88.8681C312.482 90.6188 311.407 92.1511 309.933 93.2231C308.097 94.3473 305.958 94.8742 303.81 94.7311V94.7311Z" fill="#9AD0EC"/>
<path d="M319.514 94.2761V54.2621H325V94.2761H319.514Z" fill="#9AD0EC"/>
<path d="M335.868 94.2761V58.4091H329.095V54.2621H348.023V58.4091H341.523V94.2761H335.868Z" fill="#9AD0EC"/>
<path d="M352.17 94.2761V54.2621H357.656V94.2761H352.17Z" fill="#9AD0EC"/>
<path d="M364.13 94.2761V54.2621H367.9L379.262 80.8471V54.2621H383.903V94.2761H380.38L368.875 66.9761V94.2761H364.13Z" fill="#9AD0EC"/>
<path d="M399.75 94.7701C397.631 94.8745 395.531 94.3156 393.744 93.1711C392.184 92.0084 391.044 90.3706 390.494 88.5041C389.768 86.1162 389.426 83.6282 389.48 81.1331V67.7561C389.426 65.2295 389.732 62.708 390.39 60.2681C390.887 58.3594 392.043 56.6878 393.653 55.5491C395.604 54.3573 397.871 53.786 400.153 53.9111C402.249 53.8366 404.331 54.2832 406.211 55.2111C407.753 56.0722 408.938 57.455 409.552 59.1111C410.295 61.1953 410.643 63.3994 410.579 65.6111V67.0931H405.379V65.8581C405.411 64.429 405.297 63.0004 405.041 61.5941C404.887 60.6245 404.389 59.743 403.637 59.1111C402.636 58.4982 401.467 58.2162 400.296 58.3051C399.653 58.2472 399.005 58.3174 398.389 58.5115C397.773 58.7057 397.202 59.0199 396.708 59.4361C395.928 60.2922 395.445 61.3773 395.33 62.5301C395.138 63.9953 395.046 65.4722 395.057 66.9501V81.7701C395.032 83.3791 395.171 84.9864 395.473 86.5671C395.658 87.6803 396.228 88.693 397.085 89.4271C398.066 90.1076 399.248 90.4374 400.439 90.3631C401.649 90.4433 402.847 90.078 403.806 89.3361C404.663 88.514 405.232 87.4385 405.431 86.2681C405.757 84.6071 405.905 82.9163 405.873 81.2241V78.4161H400.79V74.5161H410.917V94.2761H407.407L406.9 89.7001C406.416 91.1189 405.558 92.3809 404.417 93.3531C403.086 94.3786 401.427 94.8826 399.75 94.7701V94.7701Z" fill="#9AD0EC"/>
<path d="M270.179 145.769V105.755H273.988L285.35 132.327V105.755H289.991V145.769H286.442L274.924 118.469V145.769H270.179Z" fill="#9AD0EC"/>
<path d="M296.27 145.769V105.755H311.779V109.902H301.847V123.149H309.907V127.049H301.847V141.713H311.883V145.717L296.27 145.769Z" fill="#9AD0EC"/>
<path d="M321.568 145.769L315.068 105.755H319.709L324.012 134.511L329.394 105.911H333.294L338.728 134.667L342.94 105.768H347.477L341.055 145.782H336.999L331.5 116.129L325.871 145.769H321.568Z" fill="#9AD0EC"/>
<path d="M361.829 146.211C359.81 146.286 357.814 145.771 356.083 144.729C354.543 143.738 353.33 142.313 352.599 140.634C351.762 138.71 351.29 136.647 351.208 134.55L356.148 133.25C356.244 134.633 356.471 136.004 356.824 137.345C357.101 138.553 357.688 139.669 358.527 140.582C358.953 141.022 359.468 141.365 360.037 141.589C360.607 141.814 361.218 141.913 361.829 141.882C362.432 141.927 363.037 141.842 363.604 141.633C364.172 141.425 364.688 141.097 365.118 140.673C365.921 139.696 366.32 138.45 366.236 137.189C366.29 135.63 365.833 134.097 364.936 132.821C364.007 131.609 362.962 130.49 361.816 129.48L355.16 123.5C353.948 122.452 352.973 121.158 352.3 119.704C351.631 118.104 351.312 116.38 351.364 114.647C351.286 113.396 351.47 112.143 351.904 110.968C352.338 109.793 353.014 108.721 353.886 107.822C354.815 106.987 355.899 106.344 357.077 105.929C358.255 105.514 359.503 105.336 360.75 105.404C362.166 105.378 363.577 105.589 364.923 106.028C366.055 106.395 367.079 107.038 367.9 107.9C368.752 108.839 369.407 109.94 369.824 111.137C370.344 112.609 370.668 114.143 370.786 115.7L366.041 117C365.964 115.775 365.768 114.56 365.456 113.373C365.194 112.376 364.653 111.474 363.896 110.773C363 110.045 361.863 109.683 360.711 109.759C359.529 109.688 358.366 110.085 357.474 110.864C357.064 111.303 356.75 111.821 356.551 112.387C356.352 112.953 356.272 113.555 356.317 114.153C356.276 115.193 356.486 116.227 356.928 117.169C357.44 118.092 358.114 118.916 358.917 119.6L365.69 125.528C367.248 126.897 368.597 128.487 369.694 130.247C370.878 132.205 371.477 134.46 371.423 136.747C371.469 138.529 371.043 140.292 370.188 141.856C369.394 143.254 368.217 144.395 366.795 145.145C365.252 145.902 363.547 146.268 361.829 146.211Z" fill="#9AD0EC"/>
<path d="M376.805 137.228L375.128 105.755H380.458L378.677 137.228H376.805ZM375.128 145.769V140.4H380.458V145.834L375.128 145.769Z" fill="#9AD0EC"/>
<path d="M387.075 137.228L385.398 105.755H390.741L388.96 137.228H387.075ZM385.398 145.769V140.4H390.741V145.834L385.398 145.769Z" fill="#9AD0EC"/>
<path d="M534.508 551.109L523.692 555.984L525.98 562.536L536.393 560.755L534.508 551.109Z" fill="#263238"/>
<path d="M66.3262 620.945H600.743" stroke="#263238" stroke-miterlimit="10" stroke-linecap="round"/>
<path d="M98.9431 78.78L91.1821 87.321L98.1761 89.661L98.9431 78.78Z" fill="#DEDEDE"/>
<path d="M72.4228 52.663L62.3218 58.877L65.4288 65.091L75.5298 61.984L72.4228 52.663Z" fill="#9AD0EC"/>
<path d="M109.044 124.618L100.503 126.165L102.05 134.706L110.604 131.599L109.044 124.618Z" fill="#B5B5B5"/>
<path d="M168.493 208.819L177.97 202.228L171.678 198.393L168.493 208.819Z" fill="#DEDEDE"/>
<path d="M64.7661 173.641L64.3241 161.798L57.3821 161.447L55.1201 171.756L64.7661 173.641Z" fill="#263238"/>
<path d="M168.857 161.902L177.528 162.279L177.918 153.608L168.896 154.739L168.857 161.902Z" fill="#B5B5B5"/>
<path d="M426.335 243.178L435.812 236.574L429.52 232.739L426.335 243.178Z" fill="#DEDEDE"/>
<path d="M145.678 219.96L139.464 229.697L146.744 230.802L145.678 219.96Z" fill="#DEDEDE"/>
<path d="M203.554 217.503L214.773 213.694L213.135 206.947L202.592 207.727L203.554 217.503Z" fill="#9AD0EC"/>
<path d="M426.699 196.248L435.383 196.638L435.773 187.954L426.751 189.085L426.699 196.248Z" fill="#B5B5B5"/>
<path d="M98.9431 194.064L91.1821 202.618L98.1761 204.945L98.9431 194.064Z" fill="#DEDEDE"/>
<path d="M432.276 258.778L422.175 264.992L425.282 271.206L435.383 268.099L432.276 258.778Z" fill="#263238"/>
<path d="M109.044 239.902L100.503 241.449L102.05 250.003L110.604 246.896L109.044 239.902Z" fill="#B5B5B5"/>
<path d="M253.37 306.761L262.847 300.157L256.555 296.335L253.37 306.761Z" fill="#DEDEDE"/>
<path d="M130.039 286.637L141.271 282.828L139.633 276.081L129.09 276.861L130.039 286.637Z" fill="#263238"/>
<path d="M168.857 277.186L177.528 277.576L177.918 268.892L168.896 270.023L168.857 277.186Z" fill="#B5B5B5"/>
<path d="M392.613 251.173L401.284 251.563L401.674 242.892L392.652 244.023L392.613 251.173Z" fill="#B5B5B5"/>
<path d="M237.029 537.693L228.904 545.896L235.794 548.522L237.029 537.693Z" fill="#DEDEDE"/>
<path d="M54.8469 397.631L46.0459 405.119L52.6889 408.317L54.8469 397.631Z" fill="#DEDEDE"/>
<path d="M76.4791 384.345L81.731 374.062L74.373 373.659L76.4791 384.345Z" fill="#DEDEDE"/>
<path d="M125.489 405.6L132.392 396.357L125.203 394.706L125.489 405.6Z" fill="#DEDEDE"/>
<path d="M111.007 360.971L119.366 358.592L117 350.246L108.797 354.159L111.007 360.971Z" fill="#B5B5B5"/>
<path d="M43.719 282.88L34.918 290.368L41.561 293.566L43.719 282.88Z" fill="#DEDEDE"/>
<path d="M82.8749 319.072L74.6069 322.803L76.3489 327.808L84.3179 326.443L82.8749 319.072Z" fill="#9AD0EC"/>
<path d="M47.879 329.628L39.208 330.083L39.663 338.754L48.529 336.765L47.879 329.628Z" fill="#B5B5B5"/>
<path d="M150.072 315.887L141.271 323.375L147.901 326.573L150.072 315.887Z" fill="#DEDEDE"/>
<path d="M217.022 292.37L209.534 295.75L211.12 300.3L218.335 299.052L217.022 292.37Z" fill="#263238"/>
<path d="M154.232 362.635L145.561 363.077L146.003 371.748L154.882 369.759L154.232 362.635Z" fill="#B5B5B5"/>
<path d="M593.749 120.731L603.226 114.127L596.934 110.305L593.749 120.731Z" fill="#DEDEDE"/>
<path d="M536.276 157.586L544.622 155.207L542.256 146.861L534.053 150.774L536.276 157.586Z" fill="#B5B5B5"/>
<path d="M575.328 112.502L566.527 119.99L573.17 123.188L575.328 112.502Z" fill="#DEDEDE"/>
<path d="M617.214 146.094L606.398 150.969L608.686 157.521L619.099 155.727L617.214 146.094Z" fill="#9AD0EC"/>
<path d="M546 432.978L555.477 426.387L549.185 422.552L546 432.978Z" fill="#DEDEDE"/>
<path d="M488.228 421.59L482.014 431.327L489.294 432.445L488.228 421.59Z" fill="#DEDEDE"/>
<path d="M441.506 395.707L433.732 404.248L440.726 406.575L441.506 395.707Z" fill="#DEDEDE"/>
<path d="M413.4 391.495L412.1 382.525L406.796 382.811L405.912 390.845L413.4 391.495Z" fill="#263238"/>
<path d="M451.607 441.532L443.053 443.092L444.613 451.633L453.154 448.526L451.607 441.532Z" fill="#B5B5B5"/>
<path d="M511.043 525.746L520.52 519.142L514.228 515.32L511.043 525.746Z" fill="#DEDEDE"/>
<path d="M472.602 488.28L483.834 484.471L482.183 477.711L471.653 478.491L472.602 488.28Z" fill="#9AD0EC"/>
<path d="M511.407 478.816L520.091 479.206L520.481 470.535L511.459 471.653L511.407 478.816Z" fill="#B5B5B5"/>
<path d="M408.382 482.638L417.859 476.034L411.567 472.212L408.382 482.638Z" fill="#DEDEDE"/>
<path d="M408.746 435.708L417.43 436.098L417.807 427.427L408.798 428.545L408.746 435.708Z" fill="#B5B5B5"/>
<path d="M492.622 517.517L483.821 525.005L490.464 528.203L492.622 517.517Z" fill="#DEDEDE"/>
<path d="M464.763 25.701L474.24 19.11L467.948 15.275L464.763 25.701Z" fill="#DEDEDE"/>
<path d="M372.762 85.943L378.001 75.66L370.643 75.244L372.762 85.943Z" fill="#DEDEDE"/>
<path d="M421.759 107.198L428.675 97.9421L421.486 96.3041L421.759 107.198Z" fill="#DEDEDE"/>
<path d="M407.29 62.5561L415.649 60.1901L413.27 51.8311L405.067 55.7441L407.29 62.5561Z" fill="#B5B5B5"/>
<path d="M381.875 18.057L371.072 22.932L373.36 29.497L383.773 27.703L381.875 18.057Z" fill="#9AD0EC"/>
<path d="M446.342 17.485L437.541 24.96L444.184 28.158L446.342 17.485Z" fill="#DEDEDE"/>
<path d="M561.34 44.057L554.58 34.307L548.548 37.752L552.201 47.671L561.34 44.057Z" fill="#9AD0EC"/>
<path d="M450.502 64.22L441.831 64.675L442.286 73.346L451.152 71.357L450.502 64.22Z" fill="#B5B5B5"/>
<path d="M441.675 397.631L432.887 405.119L439.517 408.317L441.675 397.631Z" fill="#DEDEDE"/>
<path d="M463.32 384.345L468.559 374.062L461.201 373.659L463.32 384.345Z" fill="#DEDEDE"/>
<path d="M512.317 405.6L519.22 396.357L512.044 394.706L512.317 405.6Z" fill="#DEDEDE"/>
<path d="M394.784 315.432L404.261 308.828L397.969 305.006L394.784 315.432Z" fill="#DEDEDE"/>
<path d="M337.012 304.044L330.798 313.781L338.091 314.886L337.012 304.044Z" fill="#DEDEDE"/>
<path d="M360.204 361.27L368.875 361.66L369.265 352.976L360.243 354.107L360.204 361.27Z" fill="#B5B5B5"/>
<path d="M277.472 176.267L286.156 176.657L286.533 167.986L277.511 169.104L277.472 176.267Z" fill="#B5B5B5"/>
<path d="M361.101 288.054L368.004 278.798L360.828 277.16L361.101 288.054Z" fill="#DEDEDE"/>
<path d="M497.848 360.971L506.194 358.592L503.828 350.246L495.625 354.159L497.848 360.971Z" fill="#B5B5B5"/>
<path d="M430.547 282.88L421.759 290.368L428.389 293.566L430.547 282.88Z" fill="#DEDEDE"/>
<path d="M472.433 316.472L461.63 321.347L463.918 327.899L474.331 326.105L472.433 316.472Z" fill="#9AD0EC"/>
<path d="M434.707 329.628L426.036 330.083L426.491 338.754L435.357 336.765L434.707 329.628Z" fill="#B5B5B5"/>
<path d="M83.4209 431.431L92.8849 424.84L86.5929 421.005L83.4209 431.431Z" fill="#DEDEDE"/>
<path d="M106.509 471.432L95.6929 476.294L97.9809 482.859L108.394 481.065L106.509 471.432Z" fill="#263238"/>
<path d="M68.7828 484.588L60.1118 485.03L60.5668 493.701L69.4328 491.712L68.7828 484.588Z" fill="#B5B5B5"/>
<path d="M304.603 541.424L296.829 549.965L303.823 552.292L304.603 541.424Z" fill="#DEDEDE"/>
<path d="M277.407 528.671L267.319 534.872L270.413 541.099L280.514 537.979L277.407 528.671Z" fill="#263238"/>
<path d="M304.772 543.348L295.971 550.836L302.614 554.034L304.772 543.348Z" fill="#DEDEDE"/>
<path d="M326.404 530.062L331.656 519.779L324.298 519.376L326.404 530.062Z" fill="#DEDEDE"/>
<path d="M257.881 461.149L267.358 454.545L261.053 450.723L257.881 461.149Z" fill="#DEDEDE"/>
<path d="M360.932 506.675L369.291 504.309L366.925 495.95L358.722 499.876L360.932 506.675Z" fill="#B5B5B5"/>
<path d="M335.53 462.189L324.714 467.064L327.002 473.616L337.415 471.822L335.53 462.189Z" fill="#263238"/>
<path d="M297.804 475.345L289.133 475.787L289.588 484.471L298.454 482.469L297.804 475.345Z" fill="#B5B5B5"/>
<path d="M246.012 134.966L239.811 144.703L247.091 145.821L246.012 134.966Z" fill="#DEDEDE"/>
<path d="M199.29 109.083L191.529 117.624L198.523 119.951L199.29 109.083Z" fill="#DEDEDE"/>
<path d="M172.107 96.3301L162.006 102.544L165.113 108.758L175.214 105.651L172.107 96.3301Z" fill="#263238"/>
<path d="M199.472 111.007L190.671 118.495L197.301 121.693L199.472 111.007Z" fill="#DEDEDE"/>
<path d="M221.104 97.721L226.343 87.438L218.985 87.035L221.104 97.721Z" fill="#DEDEDE"/>
<path d="M152.581 28.8081L162.058 22.2041L155.753 18.3821L152.581 28.8081Z" fill="#DEDEDE"/>
<path d="M277.719 38.8441L286.065 36.4651L283.699 28.1061L275.496 32.0321L277.719 38.8441Z" fill="#B5B5B5"/>
<path d="M230.217 29.848L219.414 34.723L221.702 41.275L232.115 39.494L230.217 29.848Z" fill="#263238"/>
<path d="M192.504 43.004L183.833 43.446L184.275 52.13L193.154 50.128L192.504 43.004Z" fill="#B5B5B5"/>
<path d="M536.9 315.887L528.099 323.375L534.742 326.573L536.9 315.887Z" fill="#DEDEDE"/>
<path d="M597.974 264.589L596.856 252.772L589.914 252.811L588.237 263.25L597.974 264.589Z" fill="#263238"/>
<path d="M541.06 362.635L532.389 363.077L532.831 371.748L541.71 369.759L541.06 362.635Z" fill="#B5B5B5"/>
<path d="M208.104 489.216L217.581 482.625L211.289 478.79L208.104 489.216Z" fill="#DEDEDE"/>
<path d="M150.332 477.828L144.118 487.565L151.411 488.67L150.332 477.828Z" fill="#DEDEDE"/>
<path d="M173.524 535.054L182.195 535.444L182.585 526.773L173.563 527.891L173.524 535.054Z" fill="#B5B5B5"/>
<path d="M174.421 461.838L181.324 452.582L174.148 450.944L174.421 461.838Z" fill="#DEDEDE"/>
<path d="M159.952 417.209L168.298 414.83L165.932 406.471L157.729 410.397L159.952 417.209Z" fill="#B5B5B5"/>
<path d="M199.004 372.125L190.203 379.6L196.846 382.811L199.004 372.125Z" fill="#DEDEDE"/>
<path d="M258.882 360.464L252.59 350.415L246.402 353.574L249.587 363.649L258.882 360.464Z" fill="#9AD0EC"/>
<path d="M203.164 418.86L194.493 419.315L194.948 427.986L203.814 425.997L203.164 418.86Z" fill="#B5B5B5"/>
<path d="M511.407 78.78L503.646 87.321L510.64 89.661L511.407 78.78Z" fill="#DEDEDE"/>
<path d="M478.296 165.711L487.76 159.107L481.468 155.285L478.296 165.711Z" fill="#DEDEDE"/>
<path d="M478.66 118.781L487.331 119.171L487.721 110.5L478.699 111.618L478.66 118.781Z" fill="#B5B5B5"/>
<path d="M511.407 194.064L503.646 202.618L510.64 204.945L511.407 194.064Z" fill="#DEDEDE"/>
<path d="M559.572 269.087L551.031 270.647L552.578 279.188L561.132 276.081L559.572 269.087Z" fill="#B5B5B5"/>
<path d="M478.296 280.995L487.76 274.404L481.468 270.569L478.296 280.995Z" fill="#DEDEDE"/>
<path d="M517.491 227.539L526.175 227.916L526.565 219.245L517.543 220.376L517.491 227.539Z" fill="#B5B5B5"/>
<path d="M419.042 585.988L424.281 575.692L416.923 575.289L419.042 585.988Z" fill="#DEDEDE"/>
<path d="M468.039 607.243L474.955 597.987L467.766 596.336L468.039 607.243Z" fill="#DEDEDE"/>
<path d="M453.57 562.601L461.916 560.222L459.55 551.876L451.347 555.789L453.57 562.601Z" fill="#B5B5B5"/>
<path d="M319.124 576.758L308.308 581.633L310.596 588.185L321.009 586.391L319.124 576.758Z" fill="#9AD0EC"/>
<path d="M496.782 564.265L488.111 564.707L488.566 573.391L497.432 571.402L496.782 564.265Z" fill="#B5B5B5"/>
<path d="M164.918 581.321L171.236 571.649L163.956 570.466L164.918 581.321Z" fill="#DEDEDE"/>
<path d="M87.2952 567.697L79.5342 576.238L86.5282 578.578L87.2952 567.697Z" fill="#DEDEDE"/>
<path d="M60.1117 554.944L50.0107 561.158L53.1177 567.372L63.2187 564.265L60.1117 554.944Z" fill="#9AD0EC"/>
<path d="M87.4638 569.621L78.6758 577.109L85.3058 580.307L87.4638 569.621Z" fill="#DEDEDE"/>
<path d="M109.109 556.348L114.348 546.052L106.99 545.649L109.109 556.348Z" fill="#DEDEDE"/>
<path d="M198.614 598.091L206.973 595.725L204.594 587.366L196.391 591.279L198.614 598.091Z" fill="#B5B5B5"/>
<path d="M351.325 567.307L345.111 577.044L352.391 578.162L351.325 567.307Z" fill="#DEDEDE"/>
</svg>
