<svg width="466" height="466" viewBox="0 0 466 466" fill="none" xmlns="http://www.w3.org/2000/svg">
<path d="M299.34 105.726C299.34 105.726 248.695 82.6218 194.788 107.758C140.881 132.894 109.976 189.364 83.6097 234.51C57.2434 279.656 65.9017 328.558 103.182 353.759C140.462 378.961 169.866 349.099 224.938 352.296C280.01 355.493 294.102 364.608 342.37 337.533C390.638 310.459 405.262 237.902 374.012 180.575C342.762 123.248 299.34 105.726 299.34 105.726Z" fill="#1572A1"/>
<path opacity="0.7" d="M299.34 105.726C299.34 105.726 248.695 82.6218 194.788 107.758C140.881 132.894 109.976 189.364 83.6097 234.51C57.2434 279.656 65.9017 328.558 103.182 353.759C140.462 378.961 169.866 349.099 224.938 352.296C280.01 355.493 294.102 364.608 342.37 337.533C390.638 310.459 405.262 237.902 374.012 180.575C342.762 123.248 299.34 105.726 299.34 105.726Z" fill="white"/>
<path d="M331.559 333.432C328.008 330.972 323.385 335.231 321.624 338.176C320.16 340.618 318.278 344.383 317.84 345.269L317.784 345.054L317.886 344.971L317.784 345.026C316.981 341.946 315.823 338.968 314.335 336.154C315.109 335.222 318.25 334.113 318.995 333.814C321.903 332.556 324.709 331.55 326.451 328.688C327.794 326.424 328.399 323.236 325.464 321.959C321.503 320.226 317.803 325.305 316.638 328.53C315.706 331.065 314.69 334.83 314.354 336.042C313.067 333.619 311.606 331.292 309.983 329.08C311.102 327.881 312.353 326.812 313.711 325.892C316.209 323.935 318.651 322.248 319.573 319.042C320.291 316.507 320.058 313.273 316.898 312.789C312.63 312.127 310.375 317.989 310.048 321.4C309.843 323.795 309.787 327.169 309.769 328.754C308.538 327.076 307.327 325.557 306.218 324.168C305.109 322.78 304.018 321.372 303.207 320.226L303.496 320.095C303.387 320.141 303.269 320.157 303.151 320.142L303.105 320.086C303.692 319.042 306.581 317.355 307.215 316.927C309.843 315.156 312.406 313.646 313.553 310.524C314.485 308.045 314.485 304.801 311.344 304.084C307.131 303.152 304.428 308.8 303.888 312.183C303.459 314.83 303.133 318.707 303.03 319.974C302.891 319.769 302.76 319.574 302.648 319.378C301.158 316.948 299.834 314.42 298.687 311.81L298.995 311.754C298.881 311.781 298.763 311.781 298.65 311.754C298.603 311.661 298.566 311.558 298.519 311.465C299.424 310.109 300.477 308.858 301.66 307.737C303.804 305.398 305.948 303.338 306.32 300.029C306.619 297.411 305.873 294.26 302.676 294.288C298.352 294.288 297.038 300.477 297.299 303.897C297.457 305.985 297.848 308.8 298.109 310.524C297.373 308.79 296.833 307.336 296.497 306.376C296.329 305.901 296.208 305.556 296.143 305.342C296.063 303.875 296.097 302.404 296.245 300.943C296.385 297.783 296.702 294.82 294.866 292.042C293.421 289.833 290.812 287.904 288.342 289.983C285.052 292.779 288.007 298.371 290.402 300.794C292.089 302.518 294.614 304.773 295.807 305.817C296.124 306.749 296.87 308.883 297.998 311.474C296.757 310.607 295.594 309.634 294.521 308.567C292.145 306.47 290.038 304.363 286.72 304.046C284.101 303.785 280.961 304.606 281.054 307.774C281.175 312.09 287.354 313.283 290.765 312.956C293.235 312.714 296.702 312.136 298.221 311.885C299.38 314.548 300.726 317.127 302.247 319.601C302.331 319.751 302.434 319.9 302.527 320.04C301.094 319.511 299.712 318.852 298.398 318.073C295.602 316.619 293.021 315.1 289.731 315.603C287.121 316.004 284.278 317.57 285.155 320.636C286.338 324.802 292.611 324.429 295.845 323.274C298.175 322.435 301.39 321.027 302.769 320.403C303.599 321.605 304.633 322.938 305.845 324.429C307.057 325.92 308.38 327.617 309.722 329.471C308.79 329.863 305.416 327.822 304.661 327.44C301.865 325.986 299.293 324.467 295.994 324.97C293.393 325.371 290.551 326.936 291.427 330.003C292.611 334.169 298.883 333.796 302.108 332.64C305.118 331.559 309.564 329.527 309.722 329.471V329.62C309.713 329.574 309.713 329.527 309.722 329.481C311.292 331.64 312.709 333.908 313.963 336.266C312.76 336.536 309.61 335.651 308.874 335.492C305.78 334.83 302.909 334.038 299.862 335.39C297.457 336.452 295.127 338.707 296.777 341.448C299.004 345.176 304.969 343.144 307.774 341.187C310.002 339.63 313.068 337.132 314.009 336.359C315.468 339.138 316.606 342.074 317.402 345.11C316.097 345.269 313.208 344.458 312.509 344.309C309.415 343.656 306.544 342.855 303.496 344.206C301.092 345.278 298.762 347.524 300.411 350.264C302.639 353.992 308.604 351.961 311.409 350.003C313.506 348.531 316.349 346.229 317.458 345.343C318.51 349.528 318.847 353.861 318.455 358.158H318.874C319.272 353.837 318.941 349.48 317.896 345.269C318.651 344.467 322.211 343.936 322.984 343.768C326.088 343.107 329.024 342.659 331.251 340.18C332.976 338.316 334.178 335.259 331.559 333.432Z" fill="white"/>
<path d="M359.752 348.941C356.471 349.509 354.533 351.737 352.296 354.039C351.793 354.551 349.845 356.835 348.671 357.422C347.638 354.457 346.953 351.383 346.629 348.26C347.841 348.382 351.774 348.754 354.486 348.81C357.916 348.876 363.983 347.226 363.806 342.911C363.657 339.723 360.47 339.183 357.879 339.593C354.589 340.161 352.65 342.389 350.423 344.682C349.891 345.222 347.766 347.711 346.62 348.149C346.353 345.492 346.272 342.82 346.378 340.152L346.48 340.255L346.396 340.133C346.536 340.133 351.383 339.313 354.486 338.54C357.813 337.71 363.238 334.523 361.942 330.413C360.964 327.374 357.73 327.617 355.344 328.763C352.324 330.18 351.047 332.864 349.509 335.632C349.099 336.368 347.403 339.956 346.434 340.133C346.518 337.841 346.695 335.706 346.862 333.786C347.03 331.867 347.161 330.189 347.179 328.735C348.671 328.474 352.128 327.859 354.533 327.262C357.86 326.433 363.284 323.246 361.989 319.135C361.057 316.097 357.776 316.339 355.39 317.486C352.296 318.884 351.038 321.54 349.5 324.336C348.839 325.717 348.056 327.036 347.161 328.278C347.161 328.101 347.161 327.924 347.161 327.756C347.05 324.852 346.738 321.959 346.229 319.098C347.608 318.483 350.814 317.038 352.995 315.855C356.015 314.233 360.451 309.815 358.186 306.153C356.49 303.45 353.433 304.512 351.392 306.153C348.81 308.268 348.232 311.185 347.422 314.242C347.121 315.73 346.694 317.189 346.145 318.604C345.642 315.808 345.092 313.646 344.821 312.677C345.231 311.148 346.08 307.868 346.527 305.5C347.161 302.126 346.527 295.873 342.23 295.36C339.062 294.987 337.962 298.035 337.98 300.672C337.98 304.009 339.919 306.264 341.792 308.837C342.726 309.972 343.57 311.178 344.318 312.444C344.383 312.658 344.477 313.012 344.598 313.497C344.849 314.485 345.203 315.995 345.53 317.84C344.784 316.265 343.554 313.711 342.519 311.884C340.832 308.893 336.331 304.503 332.715 306.88C330.04 308.632 331.168 311.67 332.873 313.674C335.035 316.209 337.962 316.74 341.047 317.486C342.644 317.763 344.207 318.213 345.707 318.828L345.763 319.135C345.692 319.231 345.599 319.307 345.492 319.359L345.781 319.238C346.289 322.043 346.601 324.88 346.713 327.728C346.713 327.961 346.713 328.194 346.713 328.437C345.93 327.449 343.498 324.401 341.671 322.435C339.341 319.918 333.936 316.703 330.972 319.853C328.782 322.174 330.59 324.877 332.715 326.377C335.408 328.344 338.381 328.167 341.541 328.185C342.305 328.185 345.651 327.98 346.713 328.521V328.595C346.621 328.672 346.513 328.726 346.396 328.754L346.713 328.698C346.713 330.124 346.555 331.783 346.396 333.647C346.238 335.511 346.089 337.375 345.996 339.434C345.064 338.13 343.2 335.362 341.671 333.479C339.528 330.804 334.374 327.207 331.196 330.124C328.838 332.286 330.441 335.11 332.444 336.806C334.989 338.959 337.962 339.006 341.121 339.248C342.757 339.258 344.386 339.455 345.977 339.835C345.859 342.577 345.937 345.324 346.21 348.055C345.278 347.226 342.305 344.682 340.143 343.078C337.347 341.047 331.484 338.875 329.145 342.519C327.421 345.213 329.695 347.524 332.072 348.661C335.082 350.087 337.971 349.369 341.084 348.801C341.83 348.661 345.073 347.869 346.229 348.186C346.553 351.362 347.244 354.489 348.288 357.506V357.506L348.363 357.72C347.506 357.226 343.852 355.139 341.28 353.927C338.176 352.454 331.96 351.476 330.385 355.502C329.22 358.475 331.885 360.311 334.439 360.954C337.673 361.784 340.366 360.516 343.312 359.351C344.048 359.062 347.3 357.487 348.382 357.767C349.853 361.846 351.995 365.651 354.719 369.025L355.055 368.764C352.345 365.416 350.218 361.635 348.764 357.58C350.18 357.72 353.824 358.056 356.387 358.112C359.817 358.177 365.885 356.537 365.707 352.212C365.558 349.071 362.371 348.493 359.752 348.941Z" fill="white"/>
<path d="M107.786 338.251C104.514 337.598 101.895 339.006 99.0156 340.32C98.3632 340.618 95.7256 342.035 94.4115 342.184C94.5164 339.034 94.9855 335.906 95.8095 332.864C96.8906 333.414 100.47 335.175 102.949 336.21C106.117 337.505 112.371 338.158 113.741 334.057C114.748 331.018 111.98 329.331 109.398 328.819C106.127 328.166 103.508 329.574 100.628 330.897C99.9383 331.205 97.0584 332.761 95.8375 332.761C96.5395 330.185 97.424 327.662 98.4844 325.212C98.5092 325.253 98.528 325.297 98.5403 325.343V325.193C98.6708 325.193 103.489 326.228 106.658 326.619C110.06 327.048 116.267 326.032 116.509 321.717C116.686 318.53 113.573 317.626 110.917 317.803C107.59 318.036 105.428 320.077 103.005 322.108C102.352 322.64 99.4816 325.389 98.5123 325.193C99.4443 323.087 100.376 321.158 101.187 319.424C101.998 317.691 102.772 316.172 103.312 314.82C104.803 315.128 108.242 315.799 110.703 316.106C114.105 316.526 120.312 315.51 120.554 311.195C120.731 308.007 117.618 307.103 114.962 307.28C111.635 307.513 109.473 309.554 107.04 311.586C105.927 312.624 104.723 313.559 103.443 314.382C103.508 314.224 103.564 314.056 103.62 313.898C104.558 311.156 105.305 308.354 105.856 305.51C107.376 305.435 110.88 305.239 113.312 304.932C116.714 304.503 122.483 301.987 121.7 297.746C121.085 294.605 117.851 294.503 115.344 295.323C112.185 296.367 110.591 298.874 108.727 301.446C107.902 302.725 106.967 303.929 105.931 305.044C106.462 302.248 106.733 300.048 106.863 299.041C107.795 297.765 109.771 295.006 111.038 292.956C112.837 290.038 114.505 283.971 110.675 281.958C107.879 280.457 105.735 282.89 104.803 285.378C103.629 288.501 104.58 291.315 105.418 294.372C105.875 295.767 106.227 297.194 106.472 298.641C106.472 298.864 106.416 299.228 106.36 299.722C106.239 300.738 106.024 302.276 105.698 304.13C105.568 302.387 105.335 299.563 105.027 297.485C104.533 294.093 101.914 288.37 97.6828 289.283C94.5606 289.955 94.514 293.198 95.3901 295.686C96.4899 298.827 99.0342 300.346 101.635 302.21C103.032 303.042 104.332 304.027 105.512 305.146C105.495 305.247 105.474 305.346 105.446 305.444C105.347 305.507 105.236 305.549 105.12 305.565H105.428C104.888 308.366 104.153 311.125 103.228 313.823C103.154 314.037 103.07 314.261 102.986 314.485C102.604 313.273 101.439 309.564 100.442 307.029C99.174 303.851 95.2876 298.902 91.3918 300.766C88.512 302.154 89.2203 305.314 90.6462 307.532C92.445 310.328 95.3062 311.26 98.2327 312.388C98.941 312.667 102.128 313.683 102.893 314.569V314.643C102.779 314.665 102.662 314.665 102.548 314.643L102.855 314.708C102.324 316.032 101.597 317.504 100.777 319.21C99.9569 320.916 99.1554 322.556 98.3259 324.466C97.9624 322.919 97.1609 319.648 96.4619 317.355C95.4274 314.084 91.9138 308.865 87.8875 310.449C84.9144 311.614 85.3991 314.82 86.6573 317.132C88.251 320.058 91.0097 321.177 93.871 322.537C95.3923 323.14 96.8426 323.909 98.1954 324.83C97.0936 327.345 96.1748 329.937 95.446 332.584C94.8589 331.475 93.0135 328.027 91.5782 325.753C89.7142 322.863 85.0542 318.716 81.522 321.27C78.9496 323.134 80.2265 326.135 82.0439 328.055C84.3273 330.469 87.2817 330.851 90.4319 331.428C91.1775 331.568 94.4954 331.978 95.446 332.705C94.6135 335.778 94.1381 338.937 94.0294 342.119H93.9082L94.0294 342.184C94.0294 342.258 94.0294 342.333 94.0294 342.407C93.4143 341.643 90.7488 338.372 88.7916 336.312C86.4243 333.833 80.9814 330.674 78.0549 333.861C75.8927 336.21 77.7287 338.884 79.9189 340.385C82.631 342.314 85.6041 342.109 88.7636 342.081C89.5651 342.081 93.1533 341.811 94.0667 342.426C93.9712 346.766 94.6012 351.091 95.9307 355.222L96.3314 355.092C95.0011 350.986 94.3709 346.685 94.4674 342.37C95.7443 343.013 99.0249 344.635 101.392 345.604C104.57 346.909 110.824 347.552 112.185 343.451C113.135 340.45 110.367 338.763 107.786 338.251Z" fill="white"/>
<path d="M152.419 361.802C150.248 361.374 148.514 362.306 146.604 363.182C145.631 363.712 144.598 364.125 143.528 364.412C143.601 362.33 143.914 360.263 144.46 358.252C145.178 358.615 147.526 359.789 149.194 360.47C151.291 361.327 155.448 361.765 156.352 359.044C157.023 357.031 155.187 355.912 153.472 355.567C151.301 355.139 149.567 356.071 147.657 356.947C147.2 357.152 145.289 358.186 144.479 358.177C144.949 356.471 145.535 354.799 146.231 353.172C146.237 353.203 146.237 353.235 146.231 353.265V353.163C146.324 353.163 149.511 353.853 151.618 354.095C153.873 354.374 157.993 353.703 158.142 350.842C158.263 348.727 156.194 348.121 154.414 348.242C152.214 348.4 150.779 349.752 149.167 351.094C148.738 351.457 146.827 353.275 146.184 353.144C146.781 351.746 147.396 350.469 147.955 349.314C148.514 348.158 148.999 347.161 149.362 346.266C150.35 346.462 152.634 346.909 154.265 347.114C156.52 347.394 160.639 346.723 160.789 343.852C160.91 341.737 158.841 341.14 157.061 341.261C154.861 341.41 153.426 342.771 151.813 344.113C151.072 344.804 150.27 345.428 149.418 345.977C149.418 345.865 149.502 345.753 149.539 345.651C150.164 343.824 150.659 341.955 151.021 340.059C152.028 340.012 154.358 339.882 155.989 339.677C158.244 339.388 162.065 337.72 161.516 334.905C161.115 332.827 158.962 332.752 157.303 333.302C155.206 333.992 154.153 335.66 152.913 337.356C152.363 338.208 151.74 339.009 151.049 339.751C151.403 337.887 151.58 336.433 151.646 335.772C152.261 334.924 153.575 333.097 154.442 331.736C155.635 329.798 156.744 325.771 154.209 324.439C152.345 323.441 150.928 325.072 150.313 326.703C149.53 328.772 150.164 330.646 150.714 332.668C151.022 333.58 151.259 334.515 151.422 335.464C151.422 335.613 151.375 335.856 151.338 336.182C151.264 336.853 151.124 337.878 150.9 339.099C150.816 337.943 150.658 336.07 150.462 334.691C150.126 332.444 148.393 328.651 145.588 329.257C143.519 329.704 143.481 331.848 144.059 333.498C144.795 335.585 146.482 336.611 148.207 337.813C149.135 338.363 149.998 339.016 150.779 339.761C150.779 339.826 150.779 339.891 150.779 339.956C150.712 339.999 150.635 340.025 150.555 340.031H150.76C150.402 341.89 149.913 343.721 149.297 345.511C149.25 345.651 149.194 345.8 149.139 345.949C148.887 345.148 148.113 342.687 147.452 341.028C146.613 338.922 144.031 335.641 141.45 336.881C139.586 337.813 140.005 339.891 140.956 341.364C142.149 343.228 144.031 343.824 145.988 344.588C146.464 344.766 148.57 345.446 149.101 346.033V346.08C149.027 346.092 148.952 346.092 148.878 346.08L149.083 346.126C148.728 347.002 148.244 347.99 147.703 349.109C147.163 350.227 146.622 351.327 146.072 352.594C145.83 351.569 145.299 349.398 144.823 347.878C144.134 345.707 141.804 342.286 139.138 343.293C137.162 344.067 137.479 346.201 138.318 347.729C139.371 349.668 141.207 350.413 143.099 351.317C144.112 351.709 145.076 352.219 145.97 352.837C145.229 354.503 144.606 356.219 144.106 357.972C143.724 357.245 142.493 354.962 141.543 353.452C140.322 351.532 137.19 348.792 134.87 350.479C133.164 351.728 134.012 353.703 135.214 354.971C136.734 356.574 138.691 356.835 140.76 357.217C141.254 357.31 143.453 357.581 144.087 358.056C143.537 360.094 143.224 362.19 143.155 364.3H143.071H143.155C143.155 364.347 143.155 364.403 143.155 364.449C142.745 363.946 140.984 361.775 139.679 360.404C138.113 358.764 134.506 356.676 132.568 358.783C131.132 360.339 132.344 362.119 133.77 363.126C135.569 364.412 137.544 364.272 139.641 364.254C140.173 364.254 142.549 364.077 143.155 364.487C143.095 367.363 143.514 370.229 144.395 372.968L144.665 372.884C143.785 370.158 143.372 367.303 143.444 364.44C144.292 364.869 146.464 365.95 148.039 366.593C150.136 367.45 154.293 367.888 155.197 365.167C155.97 363.266 154.134 362.147 152.419 361.802Z" fill="white"/>
<path d="M145.644 361.252C143.78 362.371 143.062 364.226 142.223 366.155C141.848 367.185 141.347 368.165 140.732 369.072C139.396 367.475 138.248 365.73 137.312 363.871C138.094 363.657 140.62 362.939 142.326 362.362C144.469 361.607 147.843 359.165 146.706 356.527C145.867 354.589 143.752 354.971 142.251 355.866C140.387 356.984 139.67 358.839 138.831 360.768C138.46 361.848 137.939 362.871 137.284 363.806C136.498 362.22 135.823 360.582 135.261 358.904H135.345L135.261 358.848C135.345 358.801 138.169 357.17 139.921 355.959C141.673 354.747 144.404 351.42 142.615 349.183C141.301 347.524 139.362 348.456 138.141 349.705C136.594 351.289 136.426 353.256 136.128 355.297C136.044 355.847 135.83 358.475 135.27 358.811C134.777 357.366 134.394 356.015 134.04 354.775C133.686 353.536 133.388 352.473 133.052 351.56C133.928 351.047 135.923 349.863 137.274 348.922C139.138 347.636 141.767 344.383 139.977 342.146C138.654 340.488 136.715 341.42 135.494 342.668C133.956 344.253 133.789 346.219 133.481 348.26C133.393 349.271 133.215 350.273 132.95 351.252C132.95 351.14 132.866 351.038 132.829 350.935C132.077 349.158 131.202 347.436 130.21 345.781C130.927 345.073 132.577 343.423 133.658 342.184C135.149 340.469 136.883 336.676 134.59 334.942C132.903 333.665 131.254 335.045 130.377 336.554C129.278 338.474 129.595 340.422 129.818 342.51C129.974 343.503 130.048 344.506 130.042 345.511C129.11 343.899 128.225 342.715 127.833 342.137C127.731 341.103 127.488 338.866 127.209 337.291C126.808 335.054 124.953 331.317 122.167 332.006C120.107 332.519 120.144 334.663 120.778 336.294C121.57 338.363 123.294 339.332 125.056 340.469C125.9 340.959 126.707 341.51 127.47 342.119L127.889 342.706C128.28 343.265 128.821 344.113 129.511 345.175C128.681 344.374 127.311 343.079 126.239 342.184C124.497 340.73 120.647 339.062 118.988 341.382C117.74 343.097 119.147 344.719 120.685 345.558C122.614 346.629 124.552 346.266 126.64 346.005C127.699 345.802 128.778 345.717 129.856 345.753C129.893 345.807 129.927 345.863 129.958 345.921C129.936 345.997 129.898 346.067 129.846 346.126L129.995 345.986C130.961 347.611 131.817 349.299 132.558 351.038L132.726 351.476C132.008 351.047 129.79 349.724 128.187 348.931C126.156 347.916 122.045 347.189 120.946 349.863C120.135 351.821 121.878 353.07 123.565 353.536C125.699 354.123 127.498 353.321 129.464 352.604C129.939 352.426 131.971 351.522 132.754 351.606C132.716 351.675 132.662 351.732 132.596 351.774L132.782 351.672C133.099 352.557 133.406 353.619 133.714 354.812C134.022 356.005 134.394 357.189 134.823 358.54C133.956 357.944 132.12 356.676 130.741 355.866C128.784 354.701 124.748 353.675 123.453 356.238C122.521 358.102 124.152 359.5 125.801 360.087C127.88 360.833 129.734 360.162 131.757 359.575C132.774 359.196 133.831 358.933 134.907 358.792C135.474 360.524 136.165 362.212 136.976 363.843C136.193 363.555 133.761 362.669 132.046 362.175C129.856 361.56 125.68 361.597 125.093 364.403C124.655 366.481 126.603 367.385 128.346 367.534C130.545 367.711 132.167 366.602 133.938 365.502C134.376 365.241 136.193 363.983 136.985 363.918C137.933 365.805 139.093 367.578 140.443 369.202H140.369H140.452L140.555 369.314C139.903 369.212 137.144 368.774 135.261 368.625C132.996 368.438 128.914 369.286 128.877 372.157C128.877 374.273 130.937 374.785 132.67 374.589C134.87 374.347 136.24 372.93 137.796 371.514C138.188 371.16 139.847 369.445 140.592 369.342C142.461 371.528 144.682 373.387 147.163 374.841L147.312 374.599C144.844 373.153 142.638 371.3 140.788 369.119C141.72 368.876 144.041 368.233 145.644 367.665C147.787 366.9 151.161 364.459 150.024 361.821C149.26 359.976 147.144 360.358 145.644 361.252Z" fill="white"/>
<path d="M122.139 255.741C122.14 251.681 120.571 247.777 117.76 244.847C114.95 241.917 111.115 240.186 107.059 240.018V239.85H115.223C114.921 237.726 113.863 235.781 112.242 234.374C110.622 232.968 108.548 232.193 106.402 232.193C104.256 232.193 102.182 232.968 100.561 234.374C98.9406 235.781 97.8821 237.726 97.5803 239.85H105.754V240.018C102.41 240.154 99.1969 241.352 96.5809 243.439C93.9649 245.526 92.0826 248.393 91.2075 251.623C90.3325 254.853 90.5102 258.278 91.7149 261.401C92.9196 264.523 95.0886 267.179 97.9065 268.984L95.8282 275.145C95.7828 275.28 95.7644 275.422 95.7741 275.564C95.7837 275.705 95.8212 275.844 95.8844 275.971C95.9476 276.098 96.0353 276.212 96.1423 276.305C96.2494 276.399 96.3739 276.47 96.5085 276.515C96.6198 276.552 96.7362 276.571 96.8534 276.571C97.0716 276.567 97.2838 276.499 97.463 276.375C97.6423 276.25 97.7804 276.075 97.8599 275.872L99.8078 270.075C101.827 271.006 104.021 271.498 106.244 271.519C108.468 271.54 110.67 271.089 112.707 270.196L114.571 275.872C114.606 276.017 114.672 276.154 114.763 276.272C114.854 276.391 114.969 276.49 115.1 276.562C115.232 276.634 115.376 276.678 115.525 276.691C115.675 276.704 115.825 276.686 115.967 276.638C116.108 276.59 116.239 276.513 116.349 276.413C116.46 276.312 116.548 276.189 116.609 276.052C116.67 275.915 116.701 275.767 116.702 275.617C116.702 275.468 116.672 275.32 116.612 275.182L114.636 269.143C116.928 267.736 118.82 265.766 120.134 263.42C121.447 261.073 122.138 258.43 122.139 255.741V255.741ZM106.406 268.267C103.929 268.265 101.508 267.529 99.4498 266.151C97.3911 264.774 95.7871 262.817 94.8404 260.528C93.8938 258.239 93.6471 255.721 94.1314 253.291C94.6158 250.862 95.8095 248.631 97.5617 246.88C99.3139 245.129 101.546 243.937 103.975 243.455C106.405 242.972 108.923 243.221 111.211 244.169C113.5 245.117 115.455 246.723 116.831 248.783C118.207 250.842 118.942 253.264 118.942 255.741C118.937 259.063 117.614 262.248 115.264 264.596C112.914 266.944 109.729 268.264 106.406 268.267V268.267Z" fill="#263238"/>
<path d="M106.406 254.287H106.351L102.175 247.679C102.128 247.593 102.064 247.518 101.987 247.457C101.909 247.397 101.821 247.353 101.726 247.329C101.631 247.304 101.532 247.299 101.435 247.314C101.338 247.329 101.246 247.364 101.163 247.416C101.08 247.469 101.008 247.537 100.953 247.618C100.898 247.699 100.86 247.79 100.841 247.887C100.822 247.983 100.824 248.082 100.845 248.178C100.866 248.273 100.906 248.364 100.964 248.443L105.13 255.051C105.018 255.261 104.957 255.494 104.953 255.731C104.954 255.987 105.022 256.239 105.152 256.46C105.281 256.68 105.466 256.863 105.689 256.99V262.498C105.709 262.675 105.794 262.839 105.927 262.958C106.06 263.077 106.233 263.143 106.411 263.143C106.59 263.143 106.762 263.077 106.895 262.958C107.028 262.839 107.113 262.675 107.133 262.498V256.99C107.41 256.829 107.626 256.582 107.748 256.287C107.871 255.991 107.892 255.664 107.809 255.355C107.726 255.046 107.544 254.773 107.291 254.578C107.037 254.384 106.726 254.278 106.406 254.278V254.287Z" fill="#263238"/>
<path d="M113.449 284.806C129.88 281.085 140.184 264.749 136.463 248.318C132.742 231.887 116.405 221.583 99.9742 225.304C83.5431 229.025 73.2396 245.361 76.9606 261.793C80.6816 278.224 97.018 288.527 113.449 284.806Z" stroke="#1572A1" stroke-width="2" stroke-linecap="round" stroke-linejoin="round"/>
<path d="M372.288 248.844V239.449C372.224 238.838 371.922 238.277 371.448 237.886C370.974 237.495 370.365 237.307 369.753 237.362H353.713C353.101 237.307 352.492 237.495 352.017 237.886C351.543 238.277 351.241 238.838 351.178 239.449V248.844C351.196 249.254 351.335 249.65 351.577 249.981C351.819 250.313 352.154 250.565 352.538 250.708C352.152 250.848 351.816 251.101 351.574 251.433C351.332 251.765 351.194 252.161 351.178 252.572V257.866C351.211 258.337 351.397 258.784 351.709 259.139C352.02 259.494 352.439 259.738 352.902 259.832C351.914 260.993 351.311 262.433 351.178 263.952V276.366C351.244 276.975 351.546 277.535 352.02 277.923C352.494 278.312 353.102 278.499 353.713 278.444H369.753C370.363 278.499 370.971 278.312 371.445 277.923C371.919 277.535 372.222 276.975 372.288 276.366V263.886C372.154 262.368 371.552 260.928 370.563 259.767C371.026 259.672 371.445 259.429 371.756 259.074C372.068 258.719 372.254 258.272 372.288 257.8V252.507C372.272 252.096 372.134 251.699 371.891 251.367C371.649 251.035 371.313 250.783 370.927 250.643C371.302 250.505 371.63 250.262 371.871 249.943C372.112 249.624 372.257 249.243 372.288 248.844V248.844Z" fill="#263238"/>
<path d="M360.143 231.742H363.312C363.498 231.742 363.682 231.778 363.854 231.85C364.026 231.921 364.182 232.025 364.314 232.157C364.446 232.288 364.55 232.444 364.621 232.616C364.692 232.788 364.729 232.972 364.729 233.158V236.197H358.727V233.158C358.727 232.972 358.763 232.788 358.835 232.616C358.906 232.444 359.01 232.288 359.142 232.157C359.273 232.025 359.429 231.921 359.601 231.85C359.773 231.778 359.957 231.742 360.143 231.742V231.742Z" fill="#263238"/>
<path d="M364.067 234.892H359.407V239.347H364.067V234.892Z" fill="#263238"/>
<path d="M352.399 249.711C352.433 250.062 352.563 250.398 352.773 250.681C352.983 250.965 353.266 251.187 353.591 251.323C353.248 251.464 352.952 251.7 352.739 252.004C352.526 252.308 352.404 252.667 352.389 253.038V257.996C352.405 258.43 352.562 258.847 352.836 259.183C353.11 259.519 353.487 259.757 353.908 259.86C353.027 260.965 352.498 262.31 352.389 263.719V275.331C352.432 275.886 352.692 276.402 353.112 276.766C353.533 277.131 354.08 277.315 354.635 277.279H368.83C369.385 277.315 369.932 277.131 370.353 276.766C370.773 276.402 371.033 275.886 371.076 275.331V263.691C370.967 262.282 370.438 260.938 369.557 259.832C369.978 259.729 370.355 259.491 370.629 259.155C370.903 258.819 371.06 258.402 371.076 257.968V253.038C371.061 252.667 370.939 252.308 370.726 252.004C370.513 251.7 370.217 251.464 369.874 251.323C370.199 251.187 370.482 250.965 370.692 250.681C370.902 250.398 371.032 250.062 371.066 249.711C371.066 249.711 371.066 249.636 371.066 249.599V244.352C368.844 245.179 366.533 245.742 364.179 246.029C359.78 246.486 358.54 244.958 354.663 244.958C353.867 244.966 353.084 245.165 352.38 245.535V249.599C352.38 249.599 352.38 249.673 352.38 249.711H352.399Z" fill="white"/>
<path d="M366.5 258.76C366.529 259.429 366.422 260.097 366.186 260.723C365.95 261.349 365.59 261.921 365.127 262.405C364.665 262.888 364.109 263.273 363.493 263.535C362.878 263.798 362.215 263.934 361.546 263.934C360.877 263.934 360.215 263.798 359.599 263.535C358.984 263.273 358.428 262.888 357.965 262.405C357.502 261.921 357.142 261.349 356.906 260.723C356.67 260.097 356.564 259.429 356.593 258.76C356.593 256.02 361.541 250.372 361.541 250.372C361.541 250.372 366.5 256.02 366.5 258.76Z" fill="#263238"/>
<path d="M383.303 276.632C395.216 264.719 395.216 245.405 383.304 233.492C371.391 221.579 352.077 221.579 340.164 233.492C328.251 245.405 328.251 264.719 340.164 276.632C352.077 288.544 371.391 288.544 383.303 276.632Z" stroke="#1572A1" stroke-width="2" stroke-linecap="round" stroke-linejoin="round"/>
<path d="M128.178 198.935C134.818 198.935 140.201 192.768 140.201 185.16C140.201 177.553 134.818 171.385 128.178 171.385C121.538 171.385 116.155 177.553 116.155 185.16C116.155 192.768 121.538 198.935 128.178 198.935Z" fill="#263238"/>
<path d="M128.178 199.373C121.3 199.373 115.717 192.999 115.717 185.16C115.717 177.322 121.309 170.947 128.178 170.947C135.047 170.947 140.639 177.322 140.639 185.16C140.639 192.999 135.047 199.373 128.178 199.373ZM128.178 171.823C121.784 171.823 116.584 177.807 116.584 185.16C116.584 192.514 121.784 198.516 128.178 198.516C134.571 198.516 139.8 192.514 139.8 185.16C139.8 177.807 134.562 171.823 128.178 171.823V171.823Z" fill="white"/>
<path d="M124.245 198.935C130.885 198.935 136.268 192.768 136.268 185.16C136.268 177.553 130.885 171.385 124.245 171.385C117.605 171.385 112.222 177.553 112.222 185.16C112.222 192.768 117.605 198.935 124.245 198.935Z" fill="#263238"/>
<path d="M124.245 199.373C117.367 199.373 111.775 192.999 111.775 185.16C111.775 177.322 117.367 170.947 124.245 170.947C131.123 170.947 136.706 177.322 136.706 185.16C136.706 192.999 131.114 199.373 124.245 199.373ZM124.245 171.823C117.852 171.823 112.651 177.807 112.651 185.16C112.651 192.514 117.852 198.516 124.245 198.516C130.639 198.516 135.83 192.533 135.83 185.179C135.83 177.826 130.629 171.823 124.245 171.823V171.823Z" fill="white"/>
<path d="M125.55 186.689H100.843V182.756H125.55C125.808 182.755 126.065 182.805 126.304 182.903C126.543 183.001 126.76 183.146 126.943 183.329C127.126 183.512 127.271 183.729 127.369 183.968C127.468 184.208 127.518 184.464 127.516 184.722C127.516 184.981 127.466 185.236 127.367 185.475C127.268 185.714 127.123 185.93 126.94 186.113C126.758 186.296 126.541 186.44 126.302 186.539C126.064 186.638 125.808 186.689 125.55 186.689V186.689Z" fill="#263238"/>
<path d="M125.55 187.127H100.386V182.318H125.55C126.187 182.318 126.799 182.571 127.25 183.022C127.701 183.473 127.954 184.085 127.954 184.722C127.954 185.36 127.701 185.972 127.25 186.423C126.799 186.874 126.187 187.127 125.55 187.127V187.127ZM101.318 186.251H125.55C125.955 186.251 126.344 186.09 126.631 185.803C126.917 185.517 127.078 185.128 127.078 184.722C127.078 184.317 126.917 183.928 126.631 183.642C126.344 183.355 125.955 183.194 125.55 183.194H101.318V186.251Z" fill="white"/>
<path d="M106.751 198.935C113.391 198.935 118.774 192.768 118.774 185.16C118.774 177.553 113.391 171.385 106.751 171.385C100.111 171.385 94.7285 177.553 94.7285 185.16C94.7285 192.768 100.111 198.935 106.751 198.935Z" fill="#263238"/>
<path d="M106.751 199.373C99.8732 199.373 94.2812 192.999 94.2812 185.16C94.2812 177.322 99.8732 170.947 106.751 170.947C113.63 170.947 119.212 177.322 119.212 185.16C119.212 192.999 113.62 199.373 106.751 199.373ZM106.751 171.823C100.358 171.823 95.1573 177.807 95.1573 185.16C95.1573 192.514 100.358 198.516 106.751 198.516C113.145 198.516 118.364 192.514 118.364 185.16C118.364 177.807 113.136 171.823 106.751 171.823V171.823Z" fill="white"/>
<path d="M102.809 198.935C109.449 198.935 114.832 192.768 114.832 185.16C114.832 177.553 109.449 171.385 102.809 171.385C96.1689 171.385 90.7861 177.553 90.7861 185.16C90.7861 192.768 96.1689 198.935 102.809 198.935Z" fill="#263238"/>
<path d="M102.809 199.373C95.9401 199.373 90.3481 192.999 90.3481 185.16C90.3481 177.322 95.9401 170.947 102.809 170.947C109.678 170.947 115.279 177.322 115.279 185.16C115.279 192.999 109.687 199.373 102.809 199.373ZM102.809 171.823C96.4248 171.823 91.2242 177.807 91.2242 185.16C91.2242 192.514 96.4248 198.516 102.809 198.516C109.193 198.516 114.403 192.533 114.403 185.179C114.403 177.826 109.202 171.823 102.809 171.823V171.823Z" fill="white"/>
<path d="M107.18 185.16C107.18 187.956 105.214 190.184 102.79 190.184C100.367 190.184 98.4006 187.938 98.4006 185.16C98.4006 182.383 100.367 180.128 102.79 180.128C105.214 180.128 107.18 182.383 107.18 185.16Z" fill="#263238"/>
<path d="M102.809 190.622C100.153 190.622 97.9812 188.171 97.9812 185.16C97.9812 182.15 100.153 179.69 102.809 179.69C105.465 179.69 107.637 182.141 107.637 185.16C107.637 188.18 105.474 190.622 102.809 190.622ZM102.809 180.566C100.628 180.566 98.8573 182.625 98.8573 185.16C98.8573 187.695 100.628 189.746 102.809 189.746C104.99 189.746 106.761 187.686 106.761 185.16C106.761 182.635 104.99 180.566 102.809 180.566Z" fill="white"/>
<path d="M105.456 185.16C105.456 187.956 103.489 190.184 101.066 190.184C98.6428 190.184 96.6763 187.938 96.6763 185.16C96.6763 182.383 98.6335 180.128 101.066 180.128C103.499 180.128 105.456 182.383 105.456 185.16Z" fill="#263238"/>
<path d="M101.066 190.622C98.4005 190.622 96.2383 188.171 96.2383 185.16C96.2383 182.15 98.4005 179.69 101.066 179.69C103.732 179.69 105.894 182.141 105.894 185.16C105.894 188.18 103.722 190.622 101.066 190.622ZM101.066 180.566C98.8852 180.566 97.105 182.625 97.105 185.16C97.105 187.695 98.8852 189.746 101.066 189.746C103.247 189.746 105.018 187.686 105.018 185.16C105.018 182.635 103.238 180.566 101.066 180.566Z" fill="white"/>
<path d="M144.101 196.562C150.8 181.104 143.7 163.143 128.242 156.444C112.784 149.745 94.8219 156.846 88.1231 172.304C81.4242 187.762 88.5248 205.723 103.983 212.422C119.441 219.121 137.402 212.02 144.101 196.562Z" stroke="#1572A1" stroke-width="2" stroke-linecap="round" stroke-linejoin="round"/>
<path d="M376.267 170.463C376.267 170.463 379.781 166.269 377.05 165.188C374.319 164.107 371.868 172.522 371.868 172.522C371.868 172.522 372.418 168.04 370.582 165.998C368.746 163.957 368.205 168.403 368.839 172.047C369.105 173.662 369.546 175.243 370.153 176.763C369.393 175.959 368.567 175.22 367.683 174.554C361.774 170.025 355.866 180.146 355.866 180.146C355.866 180.146 341.447 192.262 339.043 200.65C336.638 209.038 361.924 195.459 368.867 190.156C373.872 186.344 374.105 182.281 371.663 178.608C374.133 178.823 379.249 179.093 380.694 177.937C382.623 176.39 377.348 175.607 377.348 175.607C377.348 175.607 385.457 173.128 386.491 169.456C387.526 165.784 376.267 170.463 376.267 170.463Z" fill="#263238"/>
<path d="M347.738 194.49C347.669 194.51 347.596 194.514 347.525 194.501C347.453 194.488 347.386 194.459 347.328 194.415C346.813 194.045 346.214 193.808 345.586 193.725C345.525 193.722 345.465 193.706 345.41 193.679C345.356 193.653 345.307 193.615 345.267 193.569C345.227 193.523 345.197 193.469 345.178 193.411C345.159 193.353 345.152 193.292 345.157 193.232C345.16 193.171 345.176 193.111 345.203 193.056C345.23 193.002 345.267 192.953 345.313 192.913C345.359 192.873 345.413 192.843 345.471 192.824C345.529 192.805 345.59 192.798 345.651 192.803C346.456 192.893 347.224 193.192 347.878 193.67C347.976 193.742 348.041 193.85 348.061 193.97C348.08 194.09 348.051 194.213 347.981 194.313C347.923 194.398 347.837 194.46 347.738 194.49V194.49Z" fill="white"/>
<path d="M362.781 191.377C362.662 191.412 362.535 191.4 362.425 191.342C362.315 191.285 362.232 191.187 362.194 191.069C361.64 189.071 360.617 187.234 359.212 185.71C359.145 185.62 359.114 185.508 359.124 185.396C359.133 185.284 359.183 185.18 359.263 185.102C359.344 185.023 359.45 184.977 359.562 184.971C359.674 184.964 359.784 184.999 359.873 185.067C361.389 186.689 362.492 188.652 363.089 190.79C363.124 190.908 363.112 191.036 363.054 191.146C362.997 191.255 362.899 191.338 362.781 191.377Z" fill="white"/>
<path d="M357.748 184.294C357.689 184.319 357.626 184.332 357.562 184.332C357.498 184.332 357.434 184.319 357.375 184.294C356.681 183.858 355.909 183.56 355.101 183.418C354.978 183.401 354.867 183.338 354.79 183.24C354.713 183.143 354.678 183.019 354.691 182.896C354.705 182.773 354.767 182.662 354.863 182.585C354.959 182.508 355.082 182.472 355.204 182.486C356.143 182.646 357.042 182.988 357.851 183.492C357.926 183.539 357.986 183.607 358.025 183.687C358.063 183.767 358.078 183.856 358.067 183.944C358.056 184.032 358.02 184.116 357.964 184.184C357.907 184.253 357.833 184.304 357.748 184.331V184.294Z" fill="white"/>
<path d="M368.643 188.618C368.573 188.632 368.5 188.632 368.429 188.618C368.307 188.595 368.2 188.526 368.128 188.425C368.057 188.324 368.028 188.2 368.047 188.078C368.248 187.042 368.135 185.97 367.723 184.999C367.311 184.028 366.619 183.201 365.735 182.625C365.628 182.562 365.55 182.459 365.518 182.339C365.487 182.218 365.505 182.09 365.568 181.982C365.631 181.875 365.734 181.797 365.855 181.765C365.975 181.734 366.103 181.751 366.211 181.815C367.255 182.493 368.076 183.464 368.573 184.605C369.07 185.747 369.221 187.009 369.007 188.236C368.994 188.33 368.953 188.418 368.887 188.486C368.822 188.555 368.737 188.601 368.643 188.618V188.618Z" fill="white"/>
<path d="M355.512 195.04C355.393 195.075 355.265 195.063 355.155 195.005C355.046 194.948 354.963 194.85 354.924 194.732C354.669 194.103 354.29 193.531 353.81 193.051C353.329 192.571 352.758 192.192 352.128 191.936C352.015 191.889 351.924 191.799 351.876 191.686C351.827 191.573 351.824 191.445 351.867 191.33C351.888 191.273 351.92 191.22 351.962 191.175C352.003 191.13 352.053 191.094 352.109 191.069C352.164 191.044 352.224 191.03 352.285 191.029C352.346 191.027 352.407 191.038 352.464 191.06C353.234 191.366 353.933 191.828 354.517 192.416C355.101 193.005 355.557 193.707 355.856 194.48C355.882 194.6 355.86 194.725 355.796 194.829C355.732 194.933 355.63 195.009 355.512 195.04Z" fill="white"/>
<path d="M369.361 214.116C385.77 210.298 395.976 193.9 392.158 177.492C388.339 161.083 371.942 150.876 355.533 154.695C339.125 158.513 328.918 174.911 332.737 191.319C336.555 207.728 352.952 217.934 369.361 214.116Z" stroke="#1572A1" stroke-width="2" stroke-linecap="round" stroke-linejoin="round"/>
<path d="M173.883 125.363C174.447 125.204 174.931 124.842 175.244 124.347C176.335 122.623 175.831 119.38 175.188 117.078C173.813 115.169 172.027 113.592 169.963 112.463C167.899 111.334 165.608 110.682 163.259 110.554C168.888 112.977 173.045 118.616 173.883 125.363Z" fill="#263238"/>
<path d="M157.778 130.573C162.7 131.304 167.719 131.048 172.541 129.818C172.611 129.171 172.649 128.521 172.653 127.87C172.653 127.554 172.653 127.243 172.653 126.938H172.606C169.13 126.938 165.971 124.758 162.634 122.465C161.036 121.323 159.381 120.262 157.676 119.287C155.202 117.899 152.404 117.191 149.567 117.236C147.676 119.89 146.657 123.065 146.65 126.323C147.731 127.414 150.77 129.641 157.778 130.573Z" fill="#263238"/>
<path d="M177.257 120.983C177.393 122.407 177.097 123.839 176.409 125.093C176.139 125.518 175.788 125.885 175.375 126.173C174.962 126.461 174.496 126.664 174.004 126.771C174.004 127.134 174.004 127.498 174.004 127.87C174.004 128.243 174.004 128.868 173.948 129.362C175.443 128.858 176.856 128.139 178.142 127.227C178.142 126.929 178.142 126.64 178.142 126.351C178.161 124.524 177.862 122.707 177.257 120.983V120.983Z" fill="#263238"/>
<path d="M173.352 133.22C174.388 133.09 175.436 133.335 176.306 133.91C177.128 132.387 177.695 130.741 177.984 129.035C176.675 129.814 175.28 130.44 173.827 130.899C173.717 131.682 173.559 132.457 173.352 133.22V133.22Z" fill="#263238"/>
<path d="M171.134 135.308C170.304 135.708 169.391 136.24 168.403 136.818C165.896 138.281 163.063 139.94 159.894 140.443C159.172 140.553 158.443 140.609 157.713 140.611C156.876 140.609 156.04 140.537 155.215 140.396C158.684 142.187 162.696 142.616 166.465 141.599C168.493 139.897 170.092 137.742 171.134 135.308V135.308Z" fill="#263238"/>
<path d="M173.138 134.618L172.877 134.674C172.141 136.75 171.046 138.68 169.643 140.378C172.033 139.15 174.071 137.33 175.561 135.093C174.847 134.622 173.976 134.451 173.138 134.618Z" fill="#263238"/>
<path d="M158.309 118.056C160.06 119.054 161.758 120.139 163.398 121.309C166.651 123.546 169.493 125.503 172.504 125.531C171.572 117.917 166.092 111.821 159.148 110.889C155.863 111.593 152.886 113.323 150.648 115.829C153.339 115.973 155.961 116.735 158.309 118.056V118.056Z" fill="#263238"/>
<path d="M159.68 139.073C162.587 138.616 165.272 137.023 167.695 135.625C168.993 134.798 170.366 134.096 171.796 133.528C172.018 132.806 172.199 132.071 172.336 131.328C169.489 132.036 166.565 132.383 163.631 132.363C161.614 132.357 159.6 132.22 157.601 131.953C151.795 131.179 148.514 129.539 146.743 128.225C147.181 131.857 148.868 135.224 151.515 137.75C154.044 138.995 156.887 139.456 159.68 139.073Z" fill="#263238"/>
<path d="M169.34 156.064C185.748 152.246 195.955 135.849 192.136 119.44C188.318 103.031 171.92 92.825 155.512 96.6434C139.103 100.462 128.897 116.859 132.715 133.268C136.534 149.676 152.931 159.883 169.34 156.064Z" stroke="#1572A1" stroke-width="2" stroke-linecap="round" stroke-linejoin="round"/>
<path d="M331.046 127.414C331.046 135.597 324.355 144.283 317.943 144.283C316.377 144.283 312.285 144.283 310.831 143.724C302.891 140.657 299.824 133.052 299.824 126.435C299.824 123.005 300.85 119.259 303.552 116.966C307.159 113.937 311.13 115.848 315.314 115.848C318.958 115.848 324.066 114.356 326.843 116.397C330.366 118.988 331.046 123.341 331.046 127.414Z" fill="#263238"/>
<path d="M314.914 116.957C315.539 115.014 316.27 113.106 317.104 111.244C317.694 110.07 318.618 109.097 319.76 108.448L321.428 109.147C320.215 109.951 319.134 110.938 318.222 112.073C317.069 113.93 316.09 115.889 315.296 117.926" fill="#263238"/>
<path d="M315.995 114.45C316.01 114.029 315.93 113.61 315.76 113.224C315.591 112.838 315.336 112.496 315.016 112.222C313.284 111.066 311.468 110.041 309.583 109.156C309.583 109.156 309.163 111.523 310.515 112.884C311.866 114.245 315.995 114.45 315.995 114.45Z" fill="#263238"/>
<path d="M326.75 121.915C326.228 122.847 324.634 122.903 323.199 122.073C321.764 121.244 321.018 119.827 321.549 118.914C322.081 118.001 323.665 117.926 325.11 118.755C326.554 119.585 327.281 121.002 326.75 121.915Z" fill="white"/>
<path d="M343.958 137.11C349.899 121.346 341.935 103.75 326.171 97.8082C310.406 91.867 292.81 99.8304 286.868 115.595C280.927 131.36 288.891 148.956 304.655 154.897C320.42 160.839 338.016 152.875 343.958 137.11Z" stroke="#1572A1" stroke-width="2" stroke-linecap="round" stroke-linejoin="round"/>
<path d="M262.349 99.4164L262.209 99.3418C262.116 99.3418 252.73 94.2717 250.503 93.8244C247.795 93.536 245.069 93.455 242.348 93.5821H241.323C239.906 93.5821 238.732 93.871 238.583 94.2438C238.527 94.4115 238.676 94.7843 239.3 95.3529C241.164 97.0491 244.781 97.3101 246.514 97.4405C246.921 97.4482 247.327 97.495 247.726 97.5803C248.681 98.1726 249.529 98.9226 250.233 99.7985L250.811 100.451L226.662 102.93C226.363 102.946 226.083 103.08 225.883 103.303C225.683 103.526 225.579 103.819 225.595 104.118C225.611 104.417 225.746 104.698 225.968 104.898C226.191 105.098 226.485 105.202 226.784 105.185V105.185L244.958 104.906L224.519 109.482C224.393 109.509 224.274 109.562 224.17 109.638C224.066 109.713 223.978 109.809 223.913 109.92C223.844 110.03 223.798 110.153 223.778 110.281C223.759 110.409 223.767 110.54 223.801 110.666C223.864 110.88 223.998 111.067 224.181 111.196C224.364 111.324 224.585 111.387 224.808 111.374L240.102 110.078L240.27 110.955L226.597 114.953C226.344 115.038 226.132 115.214 226.002 115.447C225.872 115.68 225.833 115.953 225.894 116.213C225.954 116.472 226.11 116.7 226.329 116.852C226.549 117.003 226.817 117.067 227.082 117.031L240.298 114.72L240.531 115.587L232.581 118.485C232.509 118.514 232.445 118.561 232.396 118.621C232.347 118.682 232.314 118.753 232.301 118.83C232.291 118.908 232.302 118.987 232.333 119.059C232.365 119.131 232.415 119.194 232.478 119.24C232.519 119.272 232.565 119.295 232.615 119.307C232.665 119.32 232.716 119.323 232.767 119.315C234.976 119.091 246.076 117.917 247.931 117.507C249.953 117.059 260.503 112.707 260.606 112.66H260.764L281.967 112.203L277.14 96.6111H277.093L262.349 99.4164Z" fill="#263238"/>
<path d="M229.505 113.191L233.941 111.896L234.212 111.495L230.204 111.84L229.505 113.191Z" fill="#263238"/>
<path d="M234.37 111.486L234.268 111.793L235.74 111.365L234.37 111.486Z" fill="#263238"/>
<path d="M228.163 106.08C227.809 106.621 227.52 107.012 227.333 107.32C227.147 107.627 227.045 107.795 226.914 108.047L236.234 105.959L228.163 106.08Z" fill="#263238"/>
<path d="M231.742 108.708L230.651 110.908L240.121 110.106L240.288 110.982L233.923 112.846L232.851 116.053L237.697 115.204C239.058 113.825 240.316 112.408 240.316 112.408C239.663 113.24 239.071 114.119 238.545 115.037L240.316 114.729L240.549 115.596L238.163 116.463C238.177 116.507 238.2 116.548 238.229 116.584C238.928 117.283 240.093 117.972 240.782 117.283C241.472 116.593 247.045 109.398 248.238 108.699C251.102 107.075 253.818 105.204 256.356 103.107C257.13 102.445 258.751 100.73 260.764 98.5216C257.968 97.0864 252.227 94.1226 250.512 93.7871C247.804 93.4987 245.078 93.4177 242.357 93.5448H241.332C239.916 93.5448 238.741 93.8337 238.592 94.2065C238.536 94.3743 238.685 94.747 239.31 95.3156C241.174 97.0118 244.79 97.2728 246.523 97.4033C246.931 97.4109 247.337 97.4577 247.735 97.5431C248.69 98.1353 249.538 98.8853 250.242 99.7612L250.82 100.414L230.512 102.52C229.878 103.452 229.281 104.384 228.769 105.139L244.976 104.887L226.476 109.044C226.189 109.772 225.956 110.519 225.777 111.281L229.561 110.964C230.642 109.817 231.742 108.708 231.742 108.708Z" fill="#263238"/>
<path d="M227.333 113.583C227.713 113.005 228.147 112.465 228.629 111.97L225.553 112.231L225.479 112.651C225.479 112.651 226.867 114.506 227.333 113.583Z" fill="#263238"/>
<path d="M231.509 94.57C233.042 94.252 234.604 94.0958 236.169 94.104L231.136 101.588L248.947 99.724C248.504 99.2162 247.989 98.7766 247.418 98.4192C247.091 98.3675 246.761 98.3364 246.43 98.326C244.454 98.1768 240.773 97.9066 238.685 96.0053C238.359 95.7164 237.38 94.8216 237.753 93.9083C238.163 92.8365 240.167 92.678 241.323 92.678H242.329C245.128 92.5467 247.932 92.634 250.717 92.939C252.581 93.3118 258.695 96.4526 261.389 97.8693C267.782 90.7861 277.457 79.4902 277.457 79.4902L261.892 73.7025C261.193 73.7025 254.007 87.841 254.007 87.841C254.007 87.841 241.491 85.977 239.869 86.2193C238.247 86.4616 231.052 90.3946 229.431 91.0936C227.809 91.7926 225.954 92.4823 226.877 93.4143C227.505 93.955 228.251 94.3411 229.056 94.5418C229.86 94.7425 230.7 94.7521 231.509 94.57Z" fill="#263238"/>
<path d="M234.864 117.665L234.212 117.907C234.386 117.885 234.556 117.835 234.715 117.758L234.864 117.665Z" fill="#263238"/>
<path d="M235.516 116.5L232.842 116.966C232.924 117.109 233.021 117.243 233.13 117.367L235.516 116.5Z" fill="#263238"/>
<path d="M233.149 113.061L228.955 114.282L228.722 114.738C228.805 115.405 228.977 116.057 229.235 116.677L230.745 116.407C231.434 115.568 232.376 114.179 233.149 113.061Z" fill="#263238"/>
<path d="M237.772 86.0143C237.772 86.0143 234.473 78.9777 232.022 81.3543C229.412 83.9545 237.772 86.0143 237.772 86.0143Z" fill="#263238"/>
<path d="M247.912 86.0143C247.912 86.0143 251.211 78.9777 253.672 81.3543C256.3 83.9545 247.912 86.0143 247.912 86.0143Z" fill="#263238"/>
<path d="M239.384 85.511C239.265 85.5086 239.151 85.4594 239.067 85.374C238.984 85.2886 238.937 85.1738 238.937 85.0543V69.6204C238.939 69.5025 238.987 69.3901 239.07 69.3067C239.154 69.2233 239.266 69.1754 239.384 69.173C239.443 69.173 239.501 69.1846 239.555 69.2071C239.61 69.2296 239.659 69.2625 239.7 69.3041C239.742 69.3456 239.775 69.3949 239.797 69.4492C239.82 69.5035 239.831 69.5616 239.831 69.6204V85.0543C239.833 85.1138 239.822 85.173 239.8 85.2284C239.778 85.2837 239.745 85.3342 239.704 85.3767C239.662 85.4192 239.612 85.453 239.558 85.4761C239.503 85.4991 239.444 85.511 239.384 85.511V85.511Z" fill="#263238"/>
<path d="M242.665 91.1216C242.546 91.1216 242.432 91.0745 242.349 90.9906C242.265 90.9067 242.218 90.7929 242.218 90.6743V87.3936C242.218 87.275 242.265 87.1612 242.349 87.0773C242.432 86.9934 242.546 86.9463 242.665 86.9463C242.783 86.9487 242.895 86.9966 242.979 87.08C243.062 87.1633 243.11 87.2757 243.112 87.3936V90.6743C243.11 90.7922 243.062 90.9046 242.979 90.988C242.895 91.0714 242.783 91.1193 242.665 91.1216Z" fill="white"/>
<path d="M242.665 87.8503C242.605 87.8503 242.546 87.8384 242.491 87.8154C242.436 87.7923 242.387 87.7585 242.345 87.716C242.303 87.6735 242.271 87.623 242.249 87.5677C242.227 87.5123 242.216 87.4532 242.217 87.3936V79.0056C242.216 78.9465 242.227 78.8878 242.249 78.8329C242.271 78.7781 242.304 78.7283 242.346 78.6865C242.387 78.6447 242.437 78.6118 242.492 78.5897C242.547 78.5677 242.606 78.557 242.665 78.5583C242.723 78.5583 242.782 78.5698 242.836 78.5923C242.89 78.6148 242.94 78.6478 242.981 78.6893C243.023 78.7308 243.056 78.7802 243.078 78.8344C243.101 78.8887 243.112 78.9469 243.112 79.0056V87.3936C243.112 87.5131 243.065 87.6279 242.982 87.7133C242.898 87.7987 242.784 87.8479 242.665 87.8503V87.8503Z" fill="#263238"/>
<path d="M246.635 89.7143C246.516 89.7143 246.403 89.6671 246.319 89.5832C246.235 89.4993 246.188 89.3856 246.188 89.2669V75.492C246.188 75.3724 246.235 75.2577 246.318 75.1723C246.402 75.0869 246.516 75.0377 246.635 75.0353C246.695 75.0353 246.754 75.0471 246.808 75.0702C246.863 75.0933 246.913 75.127 246.955 75.1696C246.996 75.2121 247.029 75.2625 247.051 75.3179C247.073 75.3733 247.084 75.4324 247.082 75.492V89.2856C247.081 89.3431 247.069 89.3998 247.046 89.4525C247.022 89.5052 246.989 89.5528 246.948 89.5926C246.906 89.6324 246.857 89.6636 246.803 89.6845C246.75 89.7054 246.693 89.7155 246.635 89.7143V89.7143Z" fill="#263238"/>
<path d="M246.635 74.56C246.576 74.56 246.518 74.5484 246.464 74.5259C246.41 74.5035 246.36 74.4705 246.319 74.429C246.277 74.3874 246.244 74.3381 246.222 74.2838C246.199 74.2296 246.188 74.1714 246.188 74.1126V70.5617C246.188 70.4422 246.235 70.3274 246.318 70.242C246.402 70.1567 246.516 70.1075 246.635 70.105C246.695 70.105 246.754 70.1169 246.808 70.14C246.863 70.163 246.913 70.1968 246.955 70.2393C246.996 70.2819 247.029 70.3323 247.051 70.3877C247.073 70.443 247.084 70.5022 247.082 70.5617V74.066C247.091 74.1289 247.085 74.1927 247.066 74.2532C247.047 74.3136 247.015 74.3692 246.973 74.4162C246.93 74.4632 246.878 74.5003 246.82 74.5252C246.761 74.55 246.698 74.5619 246.635 74.56V74.56Z" fill="#263238"/>
<path d="M235.181 96.2849C234.269 95.8616 233.282 95.623 232.278 95.5831C231.273 95.5431 230.271 95.7024 229.328 96.0519C226.057 97.2169 227.464 99.5562 229.561 99.0902C231.658 98.6242 235.181 96.2849 235.181 96.2849Z" fill="#263238"/>
<path d="M236.346 101.411C236.227 101.411 236.113 101.364 236.029 101.28C235.946 101.196 235.898 101.082 235.898 100.964V96.7509C235.901 96.633 235.949 96.5206 236.032 96.4372C236.115 96.3538 236.228 96.3059 236.346 96.3035C236.464 96.3035 236.578 96.3507 236.662 96.4346C236.746 96.5185 236.793 96.6322 236.793 96.7509V100.964C236.794 101.023 236.784 101.081 236.762 101.136C236.74 101.191 236.707 101.241 236.665 101.283C236.623 101.324 236.573 101.357 236.518 101.379C236.464 101.401 236.405 101.412 236.346 101.411V101.411Z" fill="white"/>
<path d="M265.596 123.397C277.508 111.484 277.508 92.1701 265.596 80.2574C253.683 68.3447 234.369 68.3448 222.456 80.2574C210.543 92.1701 210.543 111.484 222.456 123.397C234.369 135.31 253.683 135.31 265.596 123.397Z" stroke="#1572A1" stroke-width="2" stroke-linecap="round" stroke-linejoin="round"/>
<path d="M224.612 409.148C269.687 409.148 306.227 403.515 306.227 396.566C306.227 389.617 269.687 383.984 224.612 383.984C179.537 383.984 142.997 389.617 142.997 396.566C142.997 403.515 179.537 409.148 224.612 409.148Z" fill="#263238"/>
<path d="M211.079 259.553C209.681 265.559 208.623 271.639 207.911 277.764C206.569 288.678 208.787 305.724 208.787 305.724C208.787 305.724 192.943 297.597 184.322 298.669C175.701 299.74 140.984 312.062 136.408 311.633C136.408 311.633 132.987 317.7 136.314 317.616C140.863 317.504 189.336 318.548 197.174 319.434C205.18 320.366 216.522 322.789 220.474 319.173C223.177 316.722 233.065 285.966 233.214 275.881C233.265 270.211 233.663 264.55 234.407 258.928" fill="white"/>
<path d="M211.079 259.553C209.681 265.559 208.623 271.639 207.911 277.764C206.569 288.678 208.787 305.724 208.787 305.724C208.787 305.724 192.943 297.597 184.322 298.669C175.701 299.74 140.984 312.062 136.408 311.633C136.408 311.633 132.987 317.7 136.314 317.616C140.863 317.504 189.336 318.548 197.174 319.434C205.18 320.366 216.522 322.789 220.474 319.173C223.177 316.722 233.065 285.966 233.214 275.881C233.265 270.211 233.663 264.55 234.407 258.928" stroke="#263238" stroke-linecap="round" stroke-linejoin="round"/>
<path d="M207.901 277.736C206.568 288.65 208.833 305.696 208.833 305.696C208.833 305.696 192.989 297.569 184.368 298.641C181.317 299.167 178.301 299.879 175.337 300.775C173.175 304.978 171.246 311.418 174.256 318.353C184.769 318.669 194.136 319.042 197.221 319.406C205.226 320.338 216.569 322.761 220.521 319.145C223.223 316.694 233.112 285.938 233.261 275.853C233.311 270.183 233.71 264.522 234.454 258.9L211.098 259.487C209.691 265.506 208.624 271.598 207.901 277.736V277.736Z" fill="#263238" stroke="#263238" stroke-linecap="round" stroke-linejoin="round"/>
<path d="M223.009 264.082L217.818 266.701C217.818 266.701 216.084 266.515 219.374 261.967" fill="white"/>
<path d="M223.009 264.082L217.818 266.701C217.818 266.701 216.084 266.515 219.374 261.967" stroke="#263238" stroke-linecap="round" stroke-linejoin="round"/>
<path d="M240.4 155.774C240.4 155.774 235.181 152.158 226.364 151.758C217.547 151.357 211.564 163.389 212.729 171.013C213.894 178.636 213.53 186.652 203.101 185.449C192.672 184.247 179.848 185.449 177.005 196.633C174.163 207.817 186.624 221.9 200.66 216.69C214.695 211.48 211.312 201.172 217.902 199.038C224.491 196.904 231.136 197.034 231.937 189.019C232.739 181.004 227.529 173.781 231.136 166.558C233.295 162.259 236.476 158.557 240.4 155.774Z" fill="#263238" stroke="#263238" stroke-linecap="round" stroke-linejoin="round"/>
<path d="M234.696 157.415C234.696 157.415 223.754 155.29 220.101 164.405C216.448 173.52 224.668 181.423 221.965 190.501C219.262 199.579 208.917 206.606 200.389 203.549C191.861 200.492 183.604 197.584 183.026 202.402C182.448 207.221 188.795 208.479 190.314 207.566C191.833 206.652 189.709 204.835 189.709 204.835" stroke="white" stroke-linecap="round" stroke-linejoin="round"/>
<path d="M199.662 193.017C198.392 192.684 197.094 192.465 195.785 192.365" stroke="white" stroke-linecap="round" stroke-linejoin="round"/>
<path d="M226.187 156.203C226.187 156.203 215.851 158.067 215.851 168.962C215.851 179.857 221.014 186.596 216.457 193.586C213.297 198.432 209.001 196.27 203.577 194.285" stroke="white" stroke-linecap="round" stroke-linejoin="round"/>
<path d="M246.374 166.586C246.374 166.586 246.738 172.448 245.442 175.906C244.147 179.363 238.359 184.89 238.694 187.835C239.03 190.78 247.474 196.838 250.167 195.823C252.861 194.807 255.107 179.503 255.107 179.503C255.107 179.503 250.372 168.617 246.374 166.586Z" fill="white" stroke="#263238" stroke-linecap="round" stroke-linejoin="round"/>
<path d="M251.099 177.238C252.833 180.482 254.315 183.175 258.173 183.884C263.458 184.816 265.406 178.012 266.114 171.115C266.289 171.191 266.474 171.241 266.664 171.264C267.324 171.363 267.998 171.309 268.635 171.107C269.271 170.905 269.853 170.561 270.336 170.099C270.765 169.661 270.112 168.822 269.255 167.918C266.738 165.253 266.524 163.193 266.552 159.53C266.636 157.891 266.498 156.249 266.142 154.647C266.046 154.299 265.931 153.956 265.797 153.622C261.948 144.208 242.683 143.864 241.64 155.486C241.341 159.596 241.821 163.726 243.056 167.657" fill="white"/>
<path d="M266.552 159.558C266.636 157.919 266.498 156.277 266.142 154.675C266.047 154.327 265.931 153.984 265.797 153.65C261.948 144.236 242.683 143.891 241.64 155.514C241.339 159.605 241.817 163.716 243.047 167.63C250.726 165.093 258.608 163.222 266.608 162.038C266.552 161.283 266.552 160.472 266.552 159.558Z" fill="#1572A1"/>
<path opacity="0.5" d="M266.552 159.558C266.636 157.919 266.498 156.277 266.142 154.675C266.047 154.327 265.931 153.984 265.797 153.65C261.948 144.236 242.683 143.891 241.64 155.514C241.339 159.605 241.817 163.716 243.047 167.63C250.726 165.093 258.608 163.222 266.608 162.038C266.552 161.283 266.552 160.472 266.552 159.558Z" fill="white"/>
<path d="M251.099 177.238C252.833 180.482 254.315 183.175 258.173 183.884C263.458 184.816 265.406 178.012 266.114 171.115C266.289 171.191 266.474 171.241 266.664 171.264C267.324 171.363 267.998 171.309 268.635 171.107C269.271 170.905 269.853 170.561 270.336 170.099C270.765 169.661 270.112 168.822 269.255 167.918C266.738 165.253 266.524 163.193 266.552 159.53C266.636 157.891 266.498 156.249 266.142 154.647C266.046 154.299 265.931 153.956 265.797 153.622C261.948 144.208 242.683 143.864 241.64 155.486C241.341 159.596 241.821 163.726 243.056 167.657" stroke="#263238" stroke-linecap="round" stroke-linejoin="round"/>
<path d="M263.887 163.827C263.887 164.535 263.691 165.122 263.355 165.141C263.02 165.16 262.722 164.601 262.675 163.892C262.628 163.184 262.871 162.597 263.206 162.578C263.542 162.559 263.849 163.1 263.887 163.827Z" fill="#263238"/>
<path d="M263.756 173.92C263.756 173.92 260.895 174.107 260.317 172.01" stroke="#263238" stroke-linecap="round" stroke-linejoin="round"/>
<path d="M264.688 151.767C259.217 144.255 241.5 149.744 240.53 160.5C240.046 165.933 239.841 173.231 245.06 174.079C246.672 169.018 251.882 168.878 251.714 166.278C251.481 162.42 259.171 162.55 258.145 156.716C257.334 151.655 261.351 154.712 264.688 151.767Z" fill="#263238" stroke="#263238" stroke-linecap="round" stroke-linejoin="round"/>
<path d="M240.717 164.815L267.558 155.765C267.558 155.765 264.054 146.445 259.506 144.059C254.958 141.673 244.147 144.059 240.456 148.794C236.765 153.528 238.974 156.958 240.717 164.815Z" fill="#1572A1"/>
<path opacity="0.2" d="M245.34 151.478C245.638 147.023 250.289 144.106 251.565 143.388C247.213 144.069 242.618 146.026 240.456 148.794C236.728 153.528 238.974 156.958 240.717 164.815L248.993 162.019C247.455 158.999 245.116 154.712 245.34 151.478Z" fill="black"/>
<path d="M240.717 164.815L267.558 155.765C267.558 155.765 264.054 146.445 259.506 144.059C254.958 141.673 244.147 144.059 240.456 148.794C236.765 153.528 238.974 156.958 240.717 164.815Z" stroke="#263238" stroke-linecap="round" stroke-linejoin="round"/>
<path d="M258.593 158.999C258.593 158.999 270.15 158.598 275.844 159.186C281.539 159.773 278.006 156.856 267.559 155.765C267.559 155.765 260.587 158.244 258.593 158.999Z" fill="white" stroke="#263238" stroke-linecap="round" stroke-linejoin="round"/>
<path d="M241.668 181.106C241.668 181.106 252.497 189.028 254.827 196.177C257.735 205.115 256.514 212.328 253.728 220.409C250.941 228.489 247.297 228.862 245.116 237.455C242.711 246.943 242.236 265.48 237.567 273.933C228.899 289.638 204.676 275.62 204.266 260.559C203.819 244.277 218.889 234.556 220.632 226.373C222.496 217.501 220.437 205.217 224.537 196.904C228.638 188.59 236.476 180.808 241.668 181.106Z" fill="#263238" stroke="#263238" stroke-linecap="round" stroke-linejoin="round"/>
<path d="M238.48 188.86C235.712 189.623 233.239 191.205 231.388 193.399C226.867 198.786 221.397 219.989 220.288 223.223C218.657 228.014 215.814 245.256 216.96 245.591C218.107 245.927 225.246 245.703 237.595 246.887C249.944 248.07 273.057 241.574 273.057 241.574C273.057 241.574 276.869 244.137 280.187 243.131C280.616 243 280.998 242.87 281.352 242.749C282.377 242.39 283.244 241.684 283.803 240.754C284.03 240.403 284.203 240.02 284.316 239.617C284.504 239.013 284.53 238.37 284.39 237.753C284.37 236.408 284.052 235.084 283.458 233.876C282.666 232.525 282.163 233.27 281.063 232.683C279.683 232.077 278.145 231.927 276.674 232.254C275.742 232.637 272.47 237.11 272.47 237.11C272.47 237.11 258.9 238.685 246.98 234.864C236.215 231.425 233.652 231.444 233.652 231.444C233.652 231.444 244.035 207.594 247.632 200.921" fill="#1572A1"/>
<path d="M238.48 188.86C235.712 189.623 233.239 191.205 231.388 193.399C226.867 198.786 221.397 219.989 220.288 223.223C218.657 228.014 215.814 245.256 216.96 245.591C218.107 245.927 225.246 245.703 237.595 246.887C249.944 248.07 273.057 241.574 273.057 241.574C273.057 241.574 276.869 244.137 280.187 243.131C280.616 243 280.998 242.87 281.352 242.749C282.377 242.39 283.244 241.684 283.803 240.754C284.03 240.403 284.203 240.02 284.316 239.617C284.504 239.013 284.53 238.37 284.39 237.753C284.37 236.408 284.052 235.084 283.458 233.876C282.666 232.525 282.163 233.27 281.063 232.683C279.683 232.077 278.145 231.927 276.674 232.254C275.742 232.637 272.47 237.11 272.47 237.11C272.47 237.11 258.9 238.685 246.98 234.864C236.215 231.425 233.652 231.444 233.652 231.444C233.652 231.444 244.035 207.594 247.632 200.921" stroke="#263238" stroke-linecap="round" stroke-linejoin="round"/>
<path d="M280.187 243.196L281.035 242.916C281.684 242.714 282.285 242.384 282.804 241.946C283.322 241.507 283.748 240.969 284.055 240.363C284.171 240.148 284.259 239.92 284.316 239.682C284.504 239.078 284.529 238.436 284.39 237.818C284.37 236.473 284.052 235.149 283.458 233.941C282.666 232.59 282.163 233.336 281.063 232.748C279.683 232.143 278.145 231.992 276.673 232.32C275.741 232.702 272.47 237.175 272.47 237.175C269.341 237.458 266.197 237.539 263.057 237.418L263.178 244.063C268.919 242.805 273.095 241.63 273.095 241.63C273.095 241.63 276.869 244.184 280.187 243.196Z" fill="white" stroke="#263238" stroke-linecap="round" stroke-linejoin="round"/>
<path d="M281.026 232.758C281.026 232.758 282.172 235.926 281.464 237.595C280.756 239.263 278.37 235.218 278.37 235.218" stroke="#263238" stroke-linecap="round" stroke-linejoin="round"/>
<path d="M280.038 240.456L279.563 237.362C279.563 237.362 275.76 241.407 274.092 239.738" stroke="#263238" stroke-linecap="round" stroke-linejoin="round"/>
<path d="M259.208 210.632C258.751 208.526 258.155 206.438 257.512 204.36C256.654 201.629 255.703 198.917 254.827 196.223C254.62 195.609 254.367 195.011 254.072 194.434V193.054C254.072 191.563 255.815 188.833 255.815 188.833C254.52 187.392 253.108 186.061 251.593 184.853C248.369 182.122 242.655 178.403 242.655 178.403L239.971 181.33C234.883 182.476 228.209 189.541 224.537 196.997C220.437 205.31 222.534 217.594 220.632 226.467C219.644 231.127 214.369 236.243 210.073 242.786C220.069 248.495 231.154 252.038 242.609 253.187C243.41 247.316 244.091 241.612 245.116 237.548C246.22 233.318 248.356 229.427 251.332 226.224C255.629 221.536 260.764 217.78 259.208 210.632Z" fill="#1572A1"/>
<path opacity="0.2" d="M225.003 246.98C225.003 245.601 234.659 234.92 236.728 232.161C238.797 229.403 228.107 231.472 226.383 231.472C224.659 231.472 231.211 223.54 235.703 215.273C240.195 207.007 239.142 204.928 239.142 204.928L227.408 199.737C227.408 199.737 225.544 200.622 222.823 201.946C221.07 209.709 222.17 219.197 220.623 226.42C219.635 231.08 214.36 236.197 210.063 242.739C214.711 245.423 219.628 247.61 224.733 249.263C224.874 248.509 224.965 247.746 225.003 246.98V246.98Z" fill="black"/>
<path d="M259.208 210.632C258.751 208.526 258.155 206.438 257.512 204.36C256.654 201.629 255.703 198.917 254.827 196.223C254.62 195.609 254.367 195.011 254.072 194.434V193.054C254.072 191.563 255.815 188.833 255.815 188.833C254.52 187.392 253.108 186.061 251.593 184.853C248.369 182.122 242.655 178.403 242.655 178.403L239.971 181.33C234.883 182.476 228.209 189.541 224.537 196.997C220.437 205.31 222.534 217.594 220.632 226.467C219.644 231.127 214.369 236.243 210.073 242.786C220.069 248.495 231.154 252.038 242.609 253.187C243.41 247.316 244.091 241.612 245.116 237.548C246.22 233.318 248.356 229.427 251.332 226.224C255.629 221.536 260.764 217.78 259.208 210.632Z" stroke="#263238" stroke-linecap="round" stroke-linejoin="round"/>
<path d="M242.581 187.854C239.885 186.894 236.963 186.764 234.193 187.481C227.399 189.28 210.716 203.474 207.938 205.497C203.847 208.47 191.6 220.931 192.309 221.909C193.017 222.888 199.019 226.765 208.442 234.845C217.864 242.926 237.334 250.242 237.334 250.242C237.334 250.242 242.106 255.21 245.395 256.291C246.383 256.617 247.185 256.831 247.847 256.98C248.033 257.046 248.229 257.111 248.415 257.157C249.063 257.394 249.764 257.448 250.44 257.315C251.117 257.182 251.745 256.866 252.255 256.402C252.752 256.017 253.14 255.51 253.383 254.93C254.134 253.809 254.627 252.536 254.827 251.202C254.958 249.646 252.646 249.338 252.087 248.247C251.311 246.953 250.137 245.943 248.741 245.368C247.809 245.163 242.516 246.915 242.516 246.915C242.516 246.915 230.586 240.391 223.009 230.353C216.187 221.35 214.08 219.887 214.08 219.887C214.08 219.887 236.299 206.363 243.056 202.952" fill="#1572A1"/>
<path opacity="0.2" d="M251.202 255.927C243.615 253.858 234.659 246.961 228.107 242.823C221.555 238.685 203.633 223.522 201.219 222.832C198.805 222.142 201.908 221.108 205.702 218.349C209.495 215.59 200.874 218.349 198.805 218.349C196.736 218.349 228.797 197.668 233.289 192.505C236.672 188.6 232.189 189.019 229.794 189.457C221.937 193.903 210.222 203.828 207.92 205.497C203.828 208.47 191.582 220.931 192.29 221.909C192.999 222.888 199.001 226.765 208.423 234.845C217.846 242.926 237.315 250.242 237.315 250.242C237.315 250.242 242.087 255.21 245.377 256.291C246.365 256.617 247.166 256.831 247.828 256.98C248.015 257.046 248.21 257.111 248.397 257.157C249.045 257.394 249.745 257.448 250.422 257.315C251.098 257.182 251.726 256.866 252.236 256.403L252.386 256.272L251.202 255.927Z" fill="black"/>
<path d="M242.581 187.854C239.885 186.894 236.963 186.764 234.193 187.481C227.399 189.28 210.716 203.474 207.938 205.497C203.847 208.47 191.6 220.931 192.309 221.909C193.017 222.888 199.019 226.765 208.442 234.845C217.864 242.926 237.334 250.242 237.334 250.242C237.334 250.242 242.106 255.21 245.395 256.291C246.383 256.617 247.185 256.831 247.847 256.98C248.033 257.046 248.229 257.111 248.415 257.157C249.063 257.394 249.764 257.448 250.44 257.315C251.117 257.182 251.745 256.866 252.255 256.402C252.752 256.017 253.14 255.51 253.383 254.93C254.134 253.809 254.627 252.536 254.827 251.202C254.958 249.646 252.646 249.338 252.087 248.247C251.311 246.953 250.137 245.943 248.741 245.368C247.809 245.163 242.516 246.915 242.516 246.915C242.516 246.915 230.586 240.391 223.009 230.353C216.187 221.35 214.08 219.887 214.08 219.887C214.08 219.887 236.299 206.363 243.056 202.952" stroke="#263238" stroke-linecap="round" stroke-linejoin="round"/>
<path d="M252.097 248.248C251.32 246.953 250.147 245.943 248.751 245.368C247.819 245.163 242.525 246.915 242.525 246.915C240.602 245.821 238.735 244.629 236.933 243.345L232.636 248.35C235.432 249.552 237.296 250.214 237.296 250.214C237.296 250.214 242.068 255.182 245.358 256.263C246.346 256.589 247.148 256.803 247.809 256.952C247.996 257.018 248.192 257.083 248.378 257.13C249.026 257.366 249.726 257.42 250.403 257.287C251.08 257.154 251.707 256.838 252.218 256.375C252.714 255.989 253.103 255.482 253.346 254.902C254.096 253.781 254.59 252.508 254.79 251.174C254.967 249.646 252.656 249.357 252.097 248.248Z" fill="white" stroke="#263238" stroke-linecap="round" stroke-linejoin="round"/>
<path d="M250.522 168.245C250.522 168.245 247.614 162.951 245.321 164.815C243.028 166.679 245.759 170.211 248.807 171.227C251.854 172.243 250.596 170.295 250.596 170.295" fill="white"/>
<path d="M250.522 168.245C250.522 168.245 247.614 162.951 245.321 164.815C243.028 166.679 245.759 170.211 248.807 171.227C251.854 172.243 250.596 170.295 250.596 170.295" stroke="#263238" stroke-linecap="round" stroke-linejoin="round"/>
<path d="M217.305 274.055C221.554 278.525 226.051 282.753 230.773 286.72C239.161 293.832 254.436 300.328 254.436 300.328C254.436 300.328 246.113 319.741 246.421 328.381C246.728 337.021 255.899 372.744 255.061 377.255C255.061 377.255 260.112 381.085 261.016 377.889C262.489 372.725 265.247 330.757 266.347 322.761C267.428 314.923 270.299 300.812 270.289 297.168C270.289 290.178 251.5 270.205 243.159 264.548C238.452 261.387 233.942 257.942 229.654 254.231" fill="white"/>
<path d="M217.305 274.055C221.554 278.525 226.051 282.753 230.773 286.72C239.161 293.832 254.436 300.328 254.436 300.328C254.436 300.328 246.113 319.741 246.421 328.381C246.728 337.021 255.899 372.744 255.061 377.255C255.061 377.255 260.112 381.085 261.016 377.889C262.489 372.725 265.247 330.757 266.347 322.761C267.428 314.923 270.299 300.812 270.289 297.168C270.289 290.178 251.5 270.205 243.159 264.548C238.452 261.387 233.942 257.942 229.654 254.231" stroke="#263238" stroke-linecap="round" stroke-linejoin="round"/>
<path d="M243.159 264.539C238.452 261.378 233.942 257.932 229.654 254.222L217.305 274.055C221.554 278.525 226.051 282.753 230.773 286.721C239.161 293.832 254.436 300.328 254.436 300.328C254.436 300.328 246.113 319.741 246.421 328.381C246.769 332.267 247.364 336.127 248.201 339.938C253.633 341.066 259.218 341.261 264.716 340.516C265.378 332.463 265.965 325.548 266.347 322.761C267.428 314.923 270.299 300.812 270.289 297.168C270.28 290.178 251.5 270.205 243.159 264.539Z" fill="#263238" stroke="#263238" stroke-linecap="round" stroke-linejoin="round"/>
<path d="M215.348 276.431C219.561 279.842 226.159 284.819 230.773 286.683" stroke="white" stroke-linecap="round" stroke-linejoin="round"/>
<path d="M211.256 273.02C211.256 273.02 211.974 273.644 213.12 274.632" stroke="white" stroke-linecap="round" stroke-linejoin="round"/>
<path d="M224.649 252.768L239.03 260.932" stroke="white" stroke-linecap="round" stroke-linejoin="round"/>
<path d="M215.506 247.912C215.506 247.912 209.299 251.183 209.625 254.119C209.952 257.055 217.137 252.162 216.485 255.424C215.833 258.686 212.291 259.292 215.833 260.652C219.374 262.013 235.106 274.698 244.911 281.24C254.716 287.783 264.837 296.59 263.859 299.2C262.88 301.81 253.728 325.296 255.685 340.693" stroke="white" stroke-linecap="round" stroke-linejoin="round"/>
<path d="M173.352 312.22C173.352 312.22 196.876 315.808 206.671 316.787C216.466 317.765 217.454 315.808 215.823 313.851C214.192 311.894 217.454 314.503 218.107 311.558C218.759 308.613 220.073 290.327 220.399 285.751" stroke="white" stroke-linecap="round" stroke-linejoin="round"/>
<path d="M137.302 312.136C137.302 312.136 131.254 303.674 129.268 304.68C127.283 305.687 122.567 308.986 120.014 310.356C117.46 311.726 112.893 317.253 112.93 319.042C112.968 320.832 117.805 317.933 121.011 317.29C124.217 316.647 136.314 317.672 136.314 317.672C136.314 317.672 135.662 313.021 137.302 312.136Z" fill="#1572A1" stroke="#263238" stroke-linecap="round" stroke-linejoin="round"/>
<path d="M131.198 305.286C130.415 304.717 129.734 304.429 129.268 304.662C127.293 305.649 122.567 308.967 120.014 310.337C117.46 311.707 112.893 317.234 112.93 319.024C112.93 319.685 113.62 319.704 114.617 319.434C116.565 315.566 120.769 313.553 124.739 310.114C126.77 308.347 128.928 306.734 131.198 305.286V305.286Z" fill="white" stroke="#263238" stroke-linecap="round" stroke-linejoin="round"/>
<path d="M255.06 377.255C255.06 377.255 250.708 386.715 252.572 387.936C254.436 389.157 259.637 391.664 262.097 393.155C264.558 394.646 271.613 395.951 273.151 395.019C274.688 394.087 269.767 391.337 267.624 388.877C265.48 386.416 261.035 377.907 261.035 377.907C261.035 377.907 256.645 378.243 255.06 377.255Z" fill="#1572A1" stroke="#263238" stroke-linecap="round" stroke-linejoin="round"/>
<path d="M273.132 395C273.794 394.599 273.244 393.854 272.2 392.94C270.805 393.104 269.397 393.132 267.997 393.024C265.294 392.754 256.039 387.824 252.153 385.699C251.994 386.78 252.059 387.628 252.525 387.936C254.389 389.166 259.59 391.664 262.05 393.155C264.511 394.646 271.594 395.923 273.132 395Z" fill="white" stroke="#263238" stroke-linecap="round" stroke-linejoin="round"/>
</svg>
