<svg width="175" height="47" viewBox="0 0 175 47" fill="none" xmlns="http://www.w3.org/2000/svg">
<path d="M88.44 12.06V33H84.24V24.09H75.27V33H71.07V12.06H75.27V20.67H84.24V12.06H88.44ZM91.4939 24.63C91.4939 22.95 91.8239 21.46 92.4839 20.16C93.1639 18.86 94.0739 17.86 95.2139 17.16C96.3739 16.46 97.6639 16.11 99.0839 16.11C100.324 16.11 101.404 16.36 102.324 16.86C103.264 17.36 104.014 17.99 104.574 18.75V16.38H108.804V33H104.574V30.57C104.034 31.35 103.284 32 102.324 32.52C101.384 33.02 100.294 33.27 99.0539 33.27C97.6539 33.27 96.3739 32.91 95.2139 32.19C94.0739 31.47 93.1639 30.46 92.4839 29.16C91.8239 27.84 91.4939 26.33 91.4939 24.63ZM104.574 24.69C104.574 23.67 104.374 22.8 103.974 22.08C103.574 21.34 103.034 20.78 102.354 20.4C101.674 20 100.944 19.8 100.164 19.8C99.3839 19.8 98.6639 19.99 98.0039 20.37C97.3439 20.75 96.8039 21.31 96.3839 22.05C95.9839 22.77 95.7839 23.63 95.7839 24.63C95.7839 25.63 95.9839 26.51 96.3839 27.27C96.8039 28.01 97.3439 28.58 98.0039 28.98C98.6839 29.38 99.4039 29.58 100.164 29.58C100.944 29.58 101.674 29.39 102.354 29.01C103.034 28.61 103.574 28.05 103.974 27.33C104.374 26.59 104.574 25.71 104.574 24.69ZM117.106 18.81C117.646 18.01 118.386 17.36 119.326 16.86C120.286 16.36 121.376 16.11 122.596 16.11C124.016 16.11 125.296 16.46 126.436 17.16C127.596 17.86 128.506 18.86 129.166 20.16C129.846 21.44 130.186 22.93 130.186 24.63C130.186 26.33 129.846 27.84 129.166 29.16C128.506 30.46 127.596 31.47 126.436 32.19C125.296 32.91 124.016 33.27 122.596 33.27C121.356 33.27 120.266 33.03 119.326 32.55C118.406 32.05 117.666 31.41 117.106 30.63V33H112.906V10.8H117.106V18.81ZM125.896 24.63C125.896 23.63 125.686 22.77 125.266 22.05C124.866 21.31 124.326 20.75 123.646 20.37C122.986 19.99 122.266 19.8 121.486 19.8C120.726 19.8 120.006 20 119.326 20.4C118.666 20.78 118.126 21.34 117.706 22.08C117.306 22.82 117.106 23.69 117.106 24.69C117.106 25.69 117.306 26.56 117.706 27.3C118.126 28.04 118.666 28.61 119.326 29.01C120.006 29.39 120.726 29.58 121.486 29.58C122.266 29.58 122.986 29.38 123.646 28.98C124.326 28.58 124.866 28.01 125.266 27.27C125.686 26.53 125.896 25.65 125.896 24.63ZM135.368 14.4C134.628 14.4 134.008 14.17 133.508 13.71C133.028 13.23 132.788 12.64 132.788 11.94C132.788 11.24 133.028 10.66 133.508 10.2C134.008 9.72 134.628 9.48 135.368 9.48C136.108 9.48 136.718 9.72 137.198 10.2C137.698 10.66 137.948 11.24 137.948 11.94C137.948 12.64 137.698 13.23 137.198 13.71C136.718 14.17 136.108 14.4 135.368 14.4ZM137.438 16.38V33H133.238V16.38H137.438ZM146.478 19.83V27.87C146.478 28.43 146.608 28.84 146.868 29.1C147.148 29.34 147.608 29.46 148.248 29.46H150.198V33H147.558C144.018 33 142.248 31.28 142.248 27.84V19.83H140.268V16.38H142.248V12.27H146.478V16.38H150.198V19.83H146.478ZM160.598 33.27C158.998 33.27 157.558 32.92 156.278 32.22C154.998 31.5 153.988 30.49 153.248 29.19C152.528 27.89 152.168 26.39 152.168 24.69C152.168 22.99 152.538 21.49 153.278 20.19C154.038 18.89 155.068 17.89 156.368 17.19C157.668 16.47 159.118 16.11 160.718 16.11C162.318 16.11 163.768 16.47 165.068 17.19C166.368 17.89 167.388 18.89 168.128 20.19C168.888 21.49 169.268 22.99 169.268 24.69C169.268 26.39 168.878 27.89 168.098 29.19C167.338 30.49 166.298 31.5 164.978 32.22C163.678 32.92 162.218 33.27 160.598 33.27ZM160.598 29.61C161.358 29.61 162.068 29.43 162.728 29.07C163.408 28.69 163.948 28.13 164.348 27.39C164.748 26.65 164.948 25.75 164.948 24.69C164.948 23.11 164.528 21.9 163.688 21.06C162.868 20.2 161.858 19.77 160.658 19.77C159.458 19.77 158.448 20.2 157.628 21.06C156.828 21.9 156.428 23.11 156.428 24.69C156.428 26.27 156.818 27.49 157.598 28.35C158.398 29.19 159.398 29.61 160.598 29.61Z" fill="black"/>
<circle cx="23.5" cy="23.5" r="23.5" fill="#1C1F3E"/>
<path d="M39 22.5752C39 22.5752 27.9327 21.275 26.8318 22.5752C25.7308 23.8754 25.3407 32.2587 23.2393 32.5653C21.1378 32.8719 20.8636 12.1408 19.7626 12.0009C18.6617 11.861 16.1701 28.5659 15.3009 28.5659C14.4318 28.5659 14.6056 25.0521 13.5047 25.0521C12.4037 25.0521 11.8243 35.7335 10.7234 34.9599C9.62243 34.1864 8 22.5752 8 22.5752" stroke="white" stroke-width="1.5" stroke-linecap="round"/>
</svg>
