<svg width="496" height="523" viewBox="0 0 496 523" fill="none" xmlns="http://www.w3.org/2000/svg">
<path d="M77.1975 498.022C77.1975 498.022 60.3335 406.078 60.3335 387.146C60.3335 360.996 79.2807 350.536 79.2807 350.536L71.9002 328.329H112.513L106.144 350.41C106.144 350.41 127.522 362.366 124.546 389.51C118.961 440.272 110.082 498.011 110.082 498.011L77.1975 498.022Z" fill="#F5F5F5"/>
<path d="M115.935 360.996C115.783 361.01 115.631 361.01 115.479 360.996C115.041 360.946 114.6 360.925 114.159 360.933C112.45 360.96 110.764 361.347 109.199 362.073C106.744 363.232 104.578 364.976 102.87 367.167C101.79 368.52 100.818 369.965 99.9638 371.487C98.9822 373.177 98.1297 374.947 97.4144 376.78C96.6216 378.766 96.22 380.901 96.2339 383.056C96.2969 385.383 97.1485 387.61 98.6345 389.332C99.4146 390.226 100.408 390.884 101.511 391.235C102.646 391.586 103.857 391.553 104.973 391.141C106.132 390.671 107.172 389.926 108.015 388.965C108.858 388.004 109.48 386.852 109.834 385.598C110.181 384.27 110.208 382.872 109.912 381.531C109.615 380.19 109.006 378.949 108.138 377.92C106.361 375.695 103.906 374.191 101.194 373.663C98.3582 373.205 95.458 373.567 92.8016 374.709C90.0446 375.857 87.4947 377.495 85.2624 379.552C80.7414 383.557 77.617 389.038 76.384 395.127C75.8152 397.989 75.8694 400.95 76.5427 403.787C77.1041 406.515 78.4979 408.973 80.5107 410.785C81.4694 411.643 82.6324 412.207 83.8736 412.417C85.0722 412.611 86.2974 412.356 87.3357 411.695C88.3008 410.998 89.088 410.06 89.6278 408.965C90.1676 407.871 90.4434 406.653 90.4307 405.419C90.4666 404.245 90.246 403.079 89.7859 402.009C89.3003 400.983 88.6259 400.069 87.8019 399.321C86.2382 397.917 84.342 396.988 82.3161 396.633C78.831 396.047 75.2603 396.714 72.1779 398.526C69.813 399.873 67.7548 401.747 66.1465 404.018C65.1128 405.44 64.2899 407.02 63.7062 408.704C63.2995 409.854 63.1606 410.492 63.1309 410.482C63.2388 409.863 63.3947 409.254 63.5971 408.662C64.1407 406.944 64.9375 405.327 65.9581 403.871C67.5601 401.54 69.6338 399.614 72.0291 398.233C75.1993 396.328 78.8922 395.623 82.4947 396.235C84.5991 396.591 86.5715 397.545 88.1987 398.997C89.0569 399.779 89.7613 400.732 90.272 401.8C90.7659 402.938 91.0068 404.179 90.9763 405.43C90.9856 406.747 90.6873 408.047 90.1077 409.215C89.5282 410.382 88.6852 411.381 87.6531 412.124C86.5131 412.858 85.1639 413.143 83.8438 412.929C82.5095 412.716 81.2568 412.118 80.223 411.204C78.096 409.317 76.6178 406.743 76.0169 403.882C75.3134 400.961 75.249 397.91 75.8285 394.959C77.0918 388.756 80.2785 383.173 84.8854 379.091C87.1721 376.988 89.7821 375.311 92.6032 374.133C95.3609 372.965 98.3667 372.604 101.303 373.087C104.158 373.635 106.741 375.219 108.604 377.564C109.492 378.714 110.135 380.052 110.489 381.487C110.83 382.903 110.793 384.391 110.38 385.786C109.997 387.122 109.328 388.348 108.425 389.369C107.523 390.39 106.409 391.179 105.172 391.675C103.954 392.115 102.637 392.144 101.402 391.758C100.213 391.369 99.1468 390.646 98.3171 389.666C96.757 387.834 95.8672 385.476 95.8073 383.014C95.7987 380.785 96.2241 378.577 97.0573 376.529C97.7994 374.686 98.6749 372.906 99.6761 371.205C100.548 369.67 101.544 368.218 102.652 366.864C104.4 364.651 106.62 362.905 109.13 361.77C110.717 361.059 112.426 360.703 114.149 360.724C114.752 360.745 115.351 360.836 115.935 360.996V360.996Z" fill="#E0E0E0"/>
<path d="M116.987 430.45C117.092 432.016 116.968 433.589 116.62 435.115C116.256 436.937 115.655 438.697 114.834 440.345C113.768 442.529 112.325 444.483 110.578 446.109C108.456 448.081 105.914 449.484 103.168 450.198C100.007 451.064 96.6821 451.013 93.5456 450.052C90.0772 448.941 87.0405 446.682 84.8855 443.609C82.4846 440.328 81.2996 436.238 81.5524 432.103C81.6518 429.972 82.5089 427.959 83.953 426.465C84.7091 425.793 85.6147 425.335 86.5847 425.134C87.5547 424.933 88.5572 424.995 89.4983 425.314C90.4084 425.578 91.2578 426.036 91.9946 426.658C92.7315 427.28 93.3402 428.055 93.7837 428.933C94.5717 430.654 94.7715 432.609 94.3492 434.467C93.9796 436.222 93.1752 437.843 92.018 439.163C90.9268 440.388 89.6013 441.354 88.1293 441.998C85.4941 443.126 82.625 443.508 79.8064 443.107C77.4948 442.804 75.2516 442.075 73.1799 440.952C71.6161 440.117 70.1676 439.061 68.8746 437.814C67.7458 436.782 66.7754 435.571 65.9978 434.226C66.0728 434.294 66.1395 434.371 66.1962 434.456L66.7319 435.167C67.4381 436.048 68.204 436.873 69.0234 437.636C70.3248 438.833 71.7687 439.846 73.3188 440.648C75.3645 441.722 77.5744 442.406 79.8461 442.667C82.5892 443.036 85.3762 442.643 87.9309 441.527C89.3387 440.908 90.6039 439.977 91.641 438.797C92.7249 437.542 93.4775 436.009 93.8234 434.352C94.2078 432.618 94.0188 430.799 93.2877 429.195C92.8726 428.39 92.3069 427.681 91.6249 427.113C90.9429 426.545 90.1587 426.129 89.3197 425.889C88.4764 425.609 87.5795 425.558 86.7123 425.741C85.8452 425.924 85.0359 426.334 84.3597 426.935C83.0257 428.323 82.2389 430.191 82.1575 432.165C81.9049 436.138 83.0255 440.073 85.312 443.243C87.3837 446.232 90.3175 448.434 93.6746 449.519C96.7201 450.467 99.9516 450.532 103.029 449.707C105.718 449.026 108.212 447.674 110.301 445.763C112.028 444.185 113.464 442.285 114.536 440.157C115.367 438.557 115.991 436.847 116.391 435.073C116.644 433.952 116.813 432.812 116.897 431.663C116.897 431.297 116.897 431.004 116.947 430.764C116.947 430.658 116.96 430.552 116.987 430.45Z" fill="#E0E0E0"/>
<path d="M109.428 473.775C109.368 473.89 107.602 472.886 104.527 471.945C103.692 471.682 102.845 471.469 101.988 471.307C101.075 471.087 100.073 470.982 99.0116 470.836C96.7318 470.606 94.4366 470.606 92.1568 470.836C89.886 471.129 87.647 471.65 85.4708 472.395C84.4788 472.782 83.4868 473.116 82.6832 473.545C81.886 473.917 81.1078 474.332 80.352 474.79C77.5546 476.422 76.0368 477.813 75.9674 477.708C76.26 477.337 76.593 477.004 76.9594 476.715C77.3769 476.336 77.8176 475.986 78.2788 475.669C78.8653 475.214 79.4782 474.798 80.114 474.424C80.8681 473.941 81.65 473.508 82.4551 473.127C83.3868 472.664 84.3404 472.252 85.312 471.892C87.5206 471.101 89.8012 470.554 92.1172 470.261C94.4258 470.011 96.7525 470.011 99.0612 470.261C100.061 470.39 101.054 470.571 102.037 470.805C102.904 470.987 103.759 471.228 104.597 471.526C105.295 471.746 105.98 472.008 106.65 472.311C107.167 472.516 107.671 472.757 108.158 473.033C108.607 473.228 109.033 473.477 109.428 473.775V473.775Z" fill="#E0E0E0"/>
<path d="M106.59 351.728C106.175 352.104 105.727 352.437 105.251 352.722C104.368 353.339 103.049 354.155 101.382 355.086C92.6271 359.931 82.9602 362.664 73.0807 363.088C71.1959 363.161 69.6682 363.15 68.6167 363.088C68.0679 363.093 67.5198 363.044 66.9799 362.941C67.5216 362.857 68.0695 362.825 68.6167 362.847C69.6682 362.847 71.1859 362.784 73.0608 362.659C82.844 362.004 92.405 359.298 101.184 354.699C102.861 353.82 104.16 353.067 105.152 352.523C105.61 352.217 106.091 351.951 106.59 351.728V351.728Z" fill="#E0E0E0"/>
<path d="M111.709 329.427C111.709 329.49 110.717 329.333 108.912 329.323C106.373 329.331 103.851 329.766 101.442 330.609C99.7848 331.191 98.1917 331.959 96.6902 332.9C95.8584 333.427 95.0599 334.011 94.2995 334.647C93.4789 335.288 92.7419 336.041 92.1072 336.885C91.4385 337.737 90.9817 338.751 90.7779 339.835C90.6837 340.384 90.7195 340.949 90.8822 341.48C91.0448 342.011 91.3293 342.492 91.7104 342.879C92.562 343.663 93.5844 344.213 94.6864 344.479C95.7885 344.894 96.966 345.037 98.1286 344.898C98.6571 344.727 99.1206 344.384 99.4522 343.918C99.7838 343.451 99.9664 342.886 99.9738 342.304C100.058 341.108 99.8204 339.912 99.2893 338.852C98.3022 336.786 96.7181 335.105 94.7658 334.051C93.0127 333.061 91.0686 332.507 89.0816 332.429C87.3421 332.394 85.6091 332.662 83.953 333.224C81.5466 334.075 79.2857 335.329 77.257 336.938C76.5427 337.513 75.9971 337.984 75.6301 338.287C75.452 338.466 75.2557 338.624 75.0448 338.758C75.1931 338.55 75.3628 338.361 75.5507 338.193C75.8979 337.848 76.4237 337.356 77.128 336.749C79.1289 335.042 81.3941 333.711 83.824 332.816C85.5178 332.2 87.2997 331.895 89.0915 331.917C91.1667 331.981 93.2013 332.539 95.0435 333.548C97.1075 334.647 98.7833 336.414 99.825 338.59C100.402 339.751 100.66 341.059 100.569 342.366C100.519 343.055 100.3 343.718 99.9341 344.291C99.5431 344.889 98.9567 345.313 98.2874 345.483C97.027 345.662 95.7443 345.518 94.5475 345.065C93.3443 344.773 92.2292 344.169 91.3037 343.308C90.8613 342.853 90.5307 342.292 90.3406 341.672C90.1505 341.052 90.1065 340.393 90.2125 339.751C90.442 338.566 90.9464 337.459 91.6806 336.53C92.3486 335.66 93.1186 334.883 93.9722 334.218C94.756 333.578 95.5777 332.991 96.4323 332.461C97.971 331.519 99.6047 330.761 101.303 330.201C103.757 329.375 106.327 329 108.902 329.093C109.599 329.109 110.295 329.172 110.985 329.281C111.231 329.302 111.474 329.351 111.709 329.427V329.427Z" fill="#E0E0E0"/>
<path d="M180.137 39.3924H54.0938V278.142H180.137V39.3924Z" fill="#EBEBEB"/>
<path d="M173.798 46.3169H59.1332V271.029H173.798V46.3169Z" fill="#FAFAFA"/>
<path d="M185.464 280.286L180.137 278.142V35.3444H185.464V280.286Z" fill="#E0E0E0"/>
<path d="M87.296 191.47C97.216 181.708 107.136 171.976 117.056 162.276C120.826 158.584 125.756 154.599 130.607 156.419C132.948 157.298 134.704 159.4 136.985 160.404C141.558 162.412 146.786 159.515 150.298 155.833C153.81 152.151 156.587 147.549 160.853 144.881C165.118 142.214 171.765 142.559 173.828 147.287V179.044L130.547 198.583L87.296 191.47Z" fill="#F5F5F5"/>
<path d="M59.1332 173.207C70.1047 168.5 81.0564 172.496 88.8932 181.858C90.5399 183.824 92.0477 186.042 94.3194 187.182C97.3946 188.657 100.946 187.558 104.309 187.182C108.923 186.693 113.575 187.559 117.751 189.686C121.927 191.813 125.463 195.117 127.968 199.232L91.3137 218.227L59.1332 217.986V173.207Z" fill="#E0E0E0"/>
<path d="M173.798 173.364C166.577 169.682 160.208 174.138 153.542 178.845C146.876 183.552 140.646 189.598 132.859 191.502C127.631 192.767 122.026 192.067 116.987 193.96C106.69 197.83 100.738 211.606 89.8355 212.265C83.8835 212.62 78.5962 208.834 73.3088 205.989C68.0215 203.144 63.8551 200.445 59.1431 204.252V271.019H173.798V173.364Z" fill="#EBEBEB"/>
<path d="M176.288 110.96H59.1332V113.355H176.288V110.96Z" fill="#E0E0E0"/>
<path d="M176.288 164.473H59.1332V166.868H176.288V164.473Z" fill="#E0E0E0"/>
<path d="M176.288 217.986H59.1332V220.382H176.288V217.986Z" fill="#E0E0E0"/>
<path d="M113.574 112.142L113.574 277.389H119.367L119.367 112.142H113.574Z" fill="#E0E0E0"/>
<path d="M83.8439 46.3169H81.2151V112.152H83.8439V46.3169Z" fill="#E0E0E0"/>
<path d="M106.481 46.3169H103.853V112.152H106.481V46.3169Z" fill="#E0E0E0"/>
<path d="M129.109 46.3169H126.48V112.152H129.109V46.3169Z" fill="#E0E0E0"/>
<path d="M151.746 46.3169H149.117V112.152H151.746V46.3169Z" fill="#E0E0E0"/>
<path d="M54.0938 35.3444H48.7667V279.617H54.0938V35.3444Z" fill="#E0E0E0"/>
<path d="M185.464 32.8758H48.7667V39.3924H185.464V32.8758Z" fill="#E0E0E0"/>
<path d="M189.065 281.092H44.9773V287.158H189.065V281.092Z" fill="#E0E0E0"/>
<path d="M180.137 278.142L189.075 281.092H44.9773L54.0938 278.142H180.137Z" fill="#EBEBEB"/>
<path d="M419.368 494.57V181.073H415.688V494.643L385.263 497.049H415.688H419.368H449.793L419.368 494.57Z" fill="#EBEBEB"/>
<path d="M396.512 153.762L382.853 218.164H452.213L436.609 153.961L396.512 153.762Z" fill="#E0E0E0"/>
<path d="M409.23 244.262C409.071 244.262 408.962 236.354 408.982 226.605C409.002 216.857 409.141 208.949 409.299 208.959C409.458 208.97 409.577 216.857 409.547 226.605C409.518 236.354 409.389 244.262 409.23 244.262Z" fill="#E0E0E0"/>
<path d="M409.2 244.136C409.2 244.063 409.696 244.136 409.914 244.795C409.975 244.992 409.991 245.2 409.96 245.404C409.928 245.608 409.852 245.801 409.736 245.967C409.574 246.174 409.354 246.32 409.107 246.384C408.861 246.448 408.601 246.426 408.367 246.323C408.151 246.254 407.959 246.121 407.814 245.938C407.669 245.756 407.579 245.533 407.553 245.297C407.528 245.061 407.569 244.822 407.671 244.61C407.774 244.398 407.933 244.222 408.129 244.105C408.714 243.739 409.121 244.042 409.121 244.105C409.121 244.168 408.754 244.105 408.406 244.461C408.316 244.547 408.243 244.652 408.192 244.769C408.14 244.885 408.112 245.012 408.109 245.141C408.124 245.285 408.18 245.421 408.268 245.533C408.356 245.644 408.473 245.726 408.605 245.768C408.731 245.828 408.872 245.846 409.008 245.82C409.145 245.794 409.27 245.725 409.369 245.622C409.447 245.522 409.504 245.407 409.537 245.282C409.569 245.158 409.576 245.028 409.557 244.9C409.468 244.408 409.16 244.22 409.2 244.136Z" fill="#E0E0E0"/>
<path d="M453.592 46.7353H383.706V123.554H453.592V46.7353Z" fill="#E0E0E0"/>
<path d="M448.86 46.7353H378.974V123.554H448.86V46.7353Z" fill="#EBEBEB"/>
<path d="M439.466 57.0593H388.368V113.23H439.466V57.0593Z" fill="#FAFAFA"/>
<path d="M388.368 113.596C387.996 114.149 387.57 114.661 387.098 115.123C386.275 116.033 385.114 117.215 383.835 118.595C382.555 119.976 381.374 121.116 380.501 121.974C380.062 122.464 379.573 122.902 379.043 123.282C379.421 122.736 379.846 122.228 380.313 121.765C381.136 120.855 382.297 119.673 383.577 118.292C384.856 116.911 386.047 115.761 386.92 114.914C387.359 114.424 387.844 113.982 388.368 113.596V113.596Z" fill="#E0E0E0"/>
<path d="M439.456 113.46C439.982 113.855 440.468 114.307 440.904 114.809C441.767 115.677 442.888 116.901 444.198 118.24C445.507 119.579 446.589 120.844 447.402 121.754C447.867 122.218 448.282 122.734 448.642 123.292C448.121 122.898 447.639 122.45 447.204 121.953C446.35 121.085 445.22 119.861 443.91 118.512C442.601 117.162 441.51 115.907 440.706 114.997C440.24 114.532 439.821 114.017 439.456 113.46Z" fill="#E0E0E0"/>
<path d="M439.327 57.2058C439.708 56.6562 440.137 56.145 440.607 55.6786C441.43 54.7791 442.591 53.5866 443.861 52.2164C445.13 50.8461 446.331 49.685 447.194 48.8378C447.639 48.3537 448.127 47.9158 448.652 47.5303C448.282 48.0794 447.86 48.5876 447.392 49.047C446.569 49.9465 445.408 51.139 444.128 52.5197C442.849 53.9004 441.658 55.051 440.795 55.8983C440.352 56.3889 439.86 56.8273 439.327 57.2058V57.2058Z" fill="#E0E0E0"/>
<path d="M388.229 57.3522C387.708 56.9505 387.223 56.4988 386.781 56.0028C385.928 55.1347 384.797 53.9108 383.497 52.572C382.198 51.2331 381.097 49.9674 380.293 49.0574C379.837 48.5823 379.419 48.068 379.043 47.5198C379.569 47.9113 380.055 48.3601 380.492 48.8587C381.345 49.7164 382.476 50.9507 383.785 52.3C385.094 53.6493 386.186 54.9045 386.989 55.8146C387.454 56.2784 387.87 56.794 388.229 57.3522V57.3522Z" fill="#E0E0E0"/>
<path d="M439.327 113.23C439.327 113.23 439.327 113.135 439.327 112.958C439.327 112.78 439.327 112.508 439.327 112.173C439.327 111.472 439.327 110.458 439.327 109.14C439.327 106.493 439.327 102.623 439.327 97.6964C439.327 87.864 439.277 73.8476 439.238 57.0593L439.406 57.2371H388.457L388.656 57.0384C388.656 77.6551 388.656 96.9433 388.656 113.209L388.487 113.031L425.399 113.125H435.756H438.494H435.825H425.499L388.487 113.209H388.328V113.041C388.328 96.7759 388.328 77.4772 388.328 56.871V56.6723H388.527H439.476H439.456V56.8501C439.456 73.6803 439.397 87.7385 439.377 97.6441C439.377 102.55 439.377 106.399 439.377 109.046C439.377 110.353 439.377 111.357 439.377 112.048V112.968C439.365 113.056 439.348 113.143 439.327 113.23V113.23Z" fill="#E0E0E0"/>
<path d="M401.859 80.542C401.859 80.542 400.758 94.4538 415.043 94.4538C415.043 87.0063 409.24 81.1487 401.859 80.542Z" fill="#EBEBEB"/>
<path d="M427.988 80.542C427.988 80.542 414.805 79.3914 414.805 94.4538C421.838 94.4433 427.393 88.3138 427.988 80.542Z" fill="#EBEBEB"/>
<path d="M414.408 72.9271C414.408 72.9271 403.635 83.1256 415.003 94.4329C420.291 88.523 419.834 79.2659 414.408 72.9271Z" fill="#E0E0E0"/>
<path d="M334.235 55.2602H227.356C213.457 55.2602 202.189 67.1412 202.189 81.7972V372.679C202.189 387.335 213.457 399.216 227.356 399.216H334.235C348.134 399.216 359.402 387.335 359.402 372.679V81.7972C359.402 67.1412 348.134 55.2602 334.235 55.2602Z" fill="#FAFAFA"/>
<path d="M334.235 399.216L336.615 399.06C337.399 398.955 338.371 398.798 339.512 398.578L341.337 398.076C341.992 397.898 342.657 397.585 343.381 397.323C346.917 395.859 350.087 393.558 352.646 390.597C354.302 388.738 355.677 386.621 356.723 384.321C357.951 381.726 358.746 378.927 359.074 376.048C359.305 372.811 359.378 369.564 359.292 366.32C359.292 362.896 359.292 359.311 359.292 355.567C359.292 348.067 359.292 339.877 359.292 331.174C359.292 313.675 359.292 293.738 359.292 271.709C359.292 227.651 359.292 175.195 359.233 116.901V94.8408C359.233 91.1171 359.233 87.3619 359.233 83.5963C359.233 82.6549 359.233 81.7031 359.183 80.7721C359.173 79.836 359.094 78.9022 358.945 77.9793L358.737 76.5777C358.648 76.1279 358.519 75.6676 358.42 75.2179C358.32 74.7681 358.201 74.2974 358.072 73.8476L357.606 72.5192C356.339 68.9688 354.348 65.7551 351.773 63.1052C349.166 60.4176 346.035 58.3616 342.597 57.0802C340.87 56.4323 339.08 55.9902 337.26 55.7623C336.357 55.6263 335.435 55.6367 334.512 55.574C333.59 55.5112 332.657 55.574 331.725 55.574H227.376C223.425 55.5932 219.532 56.5854 216.008 58.4714C212.511 60.3503 209.491 63.0831 207.199 66.4419C204.891 69.7573 203.377 73.6112 202.785 77.676L202.566 79.1822L202.497 80.7094C202.428 81.7554 202.497 82.8014 202.497 83.7846V89.9351C202.497 106.308 202.497 122.427 202.497 138.292C202.497 169.996 202.497 200.571 202.497 229.702C202.497 258.833 202.497 286.51 202.497 312.419C202.497 325.369 202.497 337.865 202.497 349.908C202.497 355.912 202.497 361.811 202.497 367.575C202.42 370.415 202.492 373.258 202.715 376.089C203.033 378.839 203.781 381.515 204.927 384.008C206.003 386.465 207.454 388.719 209.223 390.681C212.605 394.519 217 397.2 221.841 398.38C222.421 398.541 223.011 398.656 223.607 398.725C224.19 398.846 224.779 398.926 225.372 398.965C226.553 399.039 227.733 399.101 228.914 399.08H255.5H298.066L324.979 399.133H331.923H334.304H331.923H324.979L298.066 399.185H255.5H228.914C227.733 399.185 226.543 399.185 225.343 399.08C224.748 399.08 224.152 398.913 223.557 398.84C222.955 398.763 222.359 398.644 221.772 398.484C219.361 397.903 217.045 396.951 214.897 395.66C212.681 394.339 210.673 392.663 208.945 390.692C207.148 388.707 205.674 386.424 204.58 383.934C203.414 381.406 202.653 378.692 202.328 375.901C202.1 373.052 202.02 370.192 202.09 367.334V349.866C202.09 337.837 202.09 325.341 202.09 312.377C202.09 286.468 202.09 258.791 202.09 229.66C202.09 200.529 202.09 169.954 202.09 138.25V83.7428C202.09 82.6968 202.09 81.6508 202.14 80.6048L202.219 79.0462L202.437 77.5086C203.036 73.3462 204.581 69.3984 206.941 66.0026C209.287 62.5774 212.371 59.7883 215.939 57.8647C219.535 55.9456 223.504 54.9324 227.535 54.9045H331.645C332.578 54.9045 333.51 54.9045 334.443 54.9045C335.375 54.9045 336.318 54.9673 337.24 55.1033C342.823 55.8069 348.028 58.4405 352.041 62.5926C354.671 65.3125 356.703 68.6083 357.993 72.2472L358.459 73.5966C358.598 74.0568 358.697 74.5275 358.816 74.9877C358.935 75.448 359.044 75.9187 359.144 76.3894L359.352 77.8015C359.499 78.746 359.581 79.7002 359.6 80.6571C359.66 81.6194 359.6 82.5608 359.65 83.5022C359.65 87.2678 359.65 91.0229 359.65 94.7467V116.859C359.65 175.111 359.65 227.568 359.59 271.667C359.59 293.696 359.59 313.633 359.59 331.132C359.59 339.877 359.59 348.025 359.59 355.525C359.59 359.27 359.59 362.854 359.59 366.278C359.669 369.53 359.589 372.783 359.352 376.027C359.025 378.942 358.216 381.774 356.961 384.395C355.892 386.69 354.505 388.806 352.844 390.671C350.261 393.634 347.063 395.929 343.5 397.375C342.766 397.637 342.101 397.951 341.446 398.118L339.611 398.61C338.46 398.829 337.478 398.976 336.705 399.07L334.235 399.216Z" fill="#263238"/>
<path d="M344.293 75.6258C340.479 75.9884 336.641 75.9884 332.826 75.6258C336.641 75.2632 340.479 75.2632 344.293 75.6258V75.6258Z" fill="#263238"/>
<path d="M344.293 79.5692C340.479 79.9318 336.641 79.9318 332.826 79.5692C336.641 79.2067 340.479 79.2067 344.293 79.5692V79.5692Z" fill="#263238"/>
<path d="M344.293 83.5126C340.479 83.8752 336.641 83.8752 332.826 83.5126C336.641 83.15 340.479 83.15 344.293 83.5126V83.5126Z" fill="#263238"/>
<path d="M265.122 83.5126V79.3286L263.138 82.7909H262.781L260.797 79.36V83.4812H260.053V77.8224H260.688L262.94 81.8181L265.162 77.8224H265.856V83.5126H265.122Z" fill="#263238"/>
<path d="M270.995 79.2031L269.011 83.952C268.653 84.862 268.177 85.1444 267.552 85.1444C267.167 85.1556 266.792 85.0137 266.501 84.7469L266.818 84.1612C267.015 84.3617 267.278 84.4742 267.552 84.475C267.909 84.475 268.128 84.3076 268.336 83.8055L268.465 83.5126L266.66 79.2031H267.433L268.832 82.634L270.241 79.1822L270.995 79.2031Z" fill="#263238"/>
<path d="M278.236 79.7993C278.236 81.0441 277.383 81.7867 275.974 81.7867H274.645V83.5126H273.871V77.8224H275.974C277.383 77.8224 278.236 78.565 278.236 79.7993ZM277.462 79.7993C277.462 78.9939 276.947 78.5232 275.955 78.5232H274.645V81.0859H275.955C276.947 81.0859 277.462 80.6152 277.462 79.7993V79.7993Z" fill="#263238"/>
<path d="M281.391 79.1613V79.9144H281.212C281.032 79.9016 280.852 79.9313 280.684 80.0014C280.517 80.0715 280.366 80.1802 280.243 80.3196C280.121 80.4589 280.029 80.6254 279.975 80.8069C279.922 80.9883 279.907 81.1802 279.932 81.3684V83.4604H279.188V79.2031H279.893V79.9249C280.05 79.6631 280.274 79.4528 280.539 79.3179C280.803 79.183 281.098 79.1287 281.391 79.1613V79.1613Z" fill="#263238"/>
<path d="M281.877 81.3579C281.869 80.9114 281.987 80.4726 282.217 80.0973C282.446 79.722 282.777 79.4272 283.166 79.2506C283.554 79.0739 283.985 79.0234 284.401 79.1054C284.817 79.1874 285.201 79.3982 285.503 79.711C285.805 80.0238 286.013 80.4243 286.098 80.8617C286.184 81.299 286.144 81.7533 285.984 82.1667C285.823 82.5801 285.55 82.9338 285.199 83.1828C284.847 83.4318 284.433 83.5649 284.01 83.5649C283.729 83.5795 283.449 83.5327 283.187 83.4275C282.924 83.3223 282.685 83.161 282.485 82.9537C282.285 82.7463 282.127 82.4975 282.023 82.2229C281.918 81.9482 281.868 81.6537 281.877 81.3579ZM285.388 81.3579C285.375 81.0739 285.283 80.8003 285.123 80.571C284.964 80.3418 284.744 80.1668 284.491 80.0679C284.238 79.969 283.963 79.9505 283.701 80.0146C283.438 80.0787 283.199 80.2226 283.013 80.4286C282.827 80.6345 282.702 80.8935 282.654 81.1733C282.606 81.4532 282.638 81.7417 282.744 82.0031C282.85 82.2645 283.026 82.4874 283.251 82.6442C283.476 82.8009 283.74 82.8847 284.01 82.885C284.198 82.89 284.385 82.8532 284.559 82.7773C284.733 82.7013 284.89 82.5877 285.02 82.4438C285.15 82.3 285.25 82.129 285.313 81.942C285.377 81.7549 285.402 81.556 285.388 81.3579Z" fill="#263238"/>
<path d="M288.612 77.404C288.908 77.3926 289.2 77.4805 289.446 77.6551L289.228 78.2513C289.06 78.1234 288.859 78.0539 288.652 78.0525C288.216 78.0525 287.988 78.314 287.988 78.8057V79.1822H289.178V79.8203H288.007V83.4917H287.263V79.8412H286.569V79.2031H287.263V78.8161C287.246 78.6253 287.27 78.4328 287.331 78.2526C287.393 78.0724 287.492 77.9089 287.621 77.7739C287.75 77.6388 287.906 77.5356 288.078 77.4717C288.249 77.4077 288.432 77.3846 288.612 77.404ZM290.368 77.8433C290.37 77.7746 290.384 77.7069 290.41 77.644C290.436 77.581 290.474 77.5241 290.521 77.4765C290.568 77.429 290.623 77.3916 290.684 77.3666C290.744 77.3416 290.809 77.3294 290.874 77.3308C291.006 77.3308 291.132 77.3859 291.225 77.484C291.318 77.5821 291.37 77.7151 291.37 77.8538C291.37 77.9925 291.318 78.1255 291.225 78.2236C291.132 78.3217 291.006 78.3768 290.874 78.3768C290.809 78.3782 290.744 78.366 290.684 78.341C290.623 78.316 290.568 78.2786 290.521 78.231C290.474 78.1834 290.436 78.1266 290.41 78.0636C290.384 78.0007 290.37 77.9329 290.368 77.8643V77.8433ZM290.497 79.1822H291.241V83.4917H290.497V79.1822Z" fill="#263238"/>
<path d="M292.64 77.4772H293.384V83.5127H292.64V77.4772Z" fill="#263238"/>
<path d="M298.483 81.588H295.17C295.207 81.9569 295.377 82.2967 295.644 82.5378C295.912 82.779 296.257 82.9032 296.608 82.885C296.829 82.8924 297.049 82.8495 297.252 82.7593C297.456 82.669 297.639 82.5335 297.789 82.362L298.195 82.8641C297.995 83.102 297.747 83.2887 297.468 83.4101C297.19 83.5315 296.889 83.5845 296.588 83.5649C296.303 83.5869 296.016 83.5457 295.747 83.4441C295.478 83.3425 295.232 83.1827 295.024 82.9749C294.817 82.7671 294.653 82.5159 294.543 82.2375C294.433 81.959 294.38 81.6594 294.386 81.3579C294.372 81.0682 294.415 80.7787 294.513 80.5076C294.611 80.2365 294.761 79.9899 294.954 79.7833C295.148 79.5768 295.379 79.4148 295.635 79.3077C295.891 79.2006 296.164 79.1508 296.439 79.1613C296.71 79.1608 296.978 79.2188 297.227 79.3316C297.476 79.4445 297.7 79.61 297.886 79.8177C298.072 80.0255 298.216 80.2712 298.308 80.5396C298.4 80.8081 298.44 81.0937 298.423 81.3788C298.447 81.4473 298.467 81.5171 298.483 81.588V81.588ZM295.17 81.0232H297.789C297.761 80.6801 297.61 80.3612 297.366 80.1318C297.123 79.9023 296.805 79.7796 296.479 79.7889C296.147 79.7747 295.822 79.8998 295.577 80.137C295.331 80.3741 295.185 80.704 295.17 81.0545V81.0232Z" fill="#263238"/>
<path d="M307.153 195.341H254.944V198.604H307.153V195.341Z" fill="#9AD0EC"/>
<path d="M328.084 203.886C328.084 204.043 307.748 204.169 282.661 204.169C257.573 204.169 237.227 204.043 237.227 203.886C237.227 203.729 257.563 203.614 282.661 203.614C307.758 203.614 328.084 203.74 328.084 203.886Z" fill="#263238"/>
<path d="M235.451 254.251C243.998 254.251 250.926 246.946 250.926 237.934C250.926 228.922 243.998 221.616 235.451 221.616C226.905 221.616 219.976 228.922 219.976 237.934C219.976 246.946 226.905 254.251 235.451 254.251Z" fill="#9AD0EC"/>
<path d="M280.716 254.251C289.263 254.251 296.191 246.946 296.191 237.934C296.191 228.922 289.263 221.616 280.716 221.616C272.169 221.616 265.241 228.922 265.241 237.934C265.241 246.946 272.169 254.251 280.716 254.251Z" fill="#9AD0EC"/>
<path d="M325.981 254.251C334.528 254.251 341.456 246.946 341.456 237.934C341.456 228.922 334.528 221.616 325.981 221.616C317.434 221.616 310.506 228.922 310.506 237.934C310.506 246.946 317.434 254.251 325.981 254.251Z" fill="#9AD0EC"/>
<path d="M254.805 261.5C254.805 261.646 246.135 261.772 235.451 261.772C224.767 261.772 216.107 261.646 216.107 261.5C216.107 261.354 224.767 261.228 235.451 261.228C246.135 261.228 254.805 261.312 254.805 261.5Z" fill="#263238"/>
<path d="M297.541 261.5C297.541 261.646 290.011 261.772 280.677 261.772C271.342 261.772 263.812 261.646 263.812 261.5C263.812 261.354 271.342 261.228 280.677 261.228C290.011 261.228 297.541 261.312 297.541 261.5Z" fill="#263238"/>
<path d="M341.466 261.5C341.466 261.646 333.937 261.772 324.602 261.772C315.268 261.772 307.788 261.646 307.788 261.5C307.788 261.354 315.317 261.228 324.602 261.228C333.887 261.228 341.466 261.312 341.466 261.5Z" fill="#263238"/>
<path d="M343.559 317.587C343.559 317.587 343.559 317.346 343.559 316.896C343.559 316.446 343.559 315.777 343.559 314.909C343.559 313.151 343.559 310.568 343.559 307.221C343.559 300.505 343.51 290.746 343.47 278.424L343.629 278.592L217.952 278.696L218.21 278.424V317.587L217.952 317.325L307.758 317.44L334.086 317.513H341.169H343.004H343.639H343.034H341.149H334.125L307.847 317.597L217.873 317.712H217.625V317.451C217.625 304.982 217.625 291.813 217.625 278.288V278.016H217.893L343.569 278.11H343.738V278.288C343.738 290.652 343.669 300.453 343.649 307.179C343.649 310.516 343.649 313.089 343.649 314.836C343.649 315.693 343.649 316.342 343.649 316.802C343.649 317.262 343.559 317.587 343.559 317.587Z" fill="#263238"/>
<path d="M334.86 290.893C334.86 291.039 310.704 291.165 280.895 291.165C251.085 291.165 226.93 291.039 226.93 290.893C226.93 290.746 251.085 290.621 280.895 290.621C310.704 290.621 334.86 290.788 334.86 290.893Z" fill="#263238"/>
<path d="M334.86 298.643C334.86 298.8 310.704 298.915 280.895 298.915C251.085 298.915 226.93 298.8 226.93 298.643C226.93 298.487 251.085 298.372 280.895 298.372C310.704 298.372 334.86 298.497 334.86 298.643Z" fill="#263238"/>
<path d="M334.86 306.405C334.86 306.551 310.704 306.677 280.895 306.677C251.085 306.677 226.93 306.551 226.93 306.405C226.93 306.258 251.085 306.133 280.895 306.133C310.704 306.133 334.86 306.258 334.86 306.405Z" fill="#263238"/>
<path d="M343.559 366.728C343.559 366.728 343.559 366.497 343.559 366.048C343.559 365.598 343.559 364.918 343.559 364.05C343.559 362.293 343.559 359.709 343.559 356.362C343.559 349.657 343.51 339.887 343.47 327.565L343.629 327.743L217.952 327.837L218.21 327.565V366.728L217.952 366.466L307.758 366.592L334.086 366.665H341.169H343.004H343.639C343.639 366.665 343.44 366.665 343.034 366.665H341.228H334.205L307.927 366.738L217.952 366.864H217.704V366.592C217.704 354.123 217.704 340.965 217.704 327.429V327.157H217.972L343.649 327.262H343.817V327.429C343.817 339.793 343.748 349.605 343.728 356.33C343.728 359.667 343.728 362.23 343.728 363.987C343.728 364.834 343.728 365.493 343.728 365.943C343.728 366.393 343.559 366.728 343.559 366.728Z" fill="#263238"/>
<path d="M334.86 340.034C334.86 340.191 310.704 340.306 280.895 340.306C251.085 340.306 226.93 340.191 226.93 340.034C226.93 339.877 251.085 339.762 280.895 339.762C310.704 339.762 334.86 339.887 334.86 340.034Z" fill="#263238"/>
<path d="M334.86 347.795C334.86 347.941 310.704 348.067 280.895 348.067C251.085 348.067 226.93 347.941 226.93 347.795C226.93 347.649 251.085 347.523 280.895 347.523C310.704 347.523 334.86 347.638 334.86 347.795Z" fill="#263238"/>
<path d="M334.86 355.546C334.86 355.703 310.704 355.818 280.895 355.818C251.085 355.818 226.93 355.703 226.93 355.546C226.93 355.389 251.085 355.274 280.895 355.274C310.704 355.274 334.86 355.399 334.86 355.546Z" fill="#263238"/>
<path d="M219.569 83.5231H219.758H220.284H222.208L222.149 83.5859C222.149 83.1361 222.149 82.6445 222.149 82.111C222.149 81.8391 222.149 81.5776 222.149 81.2638C222.178 81.0999 222.256 80.9503 222.372 80.8372C222.488 80.7241 222.636 80.6536 222.793 80.6361C223.111 80.6361 223.379 80.6361 223.716 80.6361C223.893 80.666 224.054 80.7614 224.17 80.9051C224.287 81.0489 224.351 81.2317 224.351 81.4206C224.351 82.1005 224.351 82.8223 224.351 83.5126L224.262 83.4185H226.692L226.593 83.5126C226.593 82.4666 226.593 81.4207 226.593 80.3224C226.593 80.0504 226.593 79.7784 226.593 79.5065C226.582 79.3869 226.546 79.2712 226.488 79.1681C226.43 79.0649 226.35 78.9768 226.255 78.9103L225.184 77.7492L224.192 76.7032L223.696 76.1906C223.527 76.0128 223.398 75.835 223.2 75.7932C223.105 75.7665 223.006 75.763 222.91 75.783C222.813 75.8029 222.723 75.8458 222.645 75.9082C222.496 76.0338 222.337 76.222 222.188 76.3789C222.039 76.5358 221.603 77.0065 221.315 77.2994C220.77 77.9061 220.194 78.45 219.788 78.973C219.665 79.2725 219.62 79.6011 219.659 79.9249V80.8244C219.659 81.3788 219.659 81.8704 219.659 82.2784C219.659 82.6863 219.659 82.9583 219.659 83.2093C219.668 83.3206 219.668 83.4327 219.659 83.544C219.659 83.544 219.659 83.4394 219.659 83.2302C219.659 83.021 219.659 82.6863 219.659 82.3202C219.659 81.9541 219.659 81.4102 219.659 80.8558C219.659 80.5629 219.659 80.2596 219.659 79.9353V79.4333C219.659 79.2455 219.707 79.0612 219.798 78.8998C220.244 78.314 220.789 77.8538 221.335 77.1844L222.198 76.2534C222.357 76.0861 222.486 75.9292 222.664 75.7618C222.765 75.6849 222.88 75.6319 223.001 75.6067C223.123 75.5814 223.248 75.5843 223.369 75.6154C223.598 75.7029 223.8 75.8548 223.954 76.0547L224.45 76.5672L225.442 77.6132L226.503 78.6592C226.605 78.7514 226.695 78.8568 226.771 78.973C226.854 79.0993 226.898 79.2486 226.9 79.4019C226.9 79.6738 226.9 79.9458 226.9 80.2178C226.9 81.2638 226.9 82.3725 226.9 83.408V83.5022H226.811H224.381H224.192V83.408C224.192 82.6654 224.192 81.9436 224.192 81.316C224.194 81.1677 224.147 81.0233 224.058 80.9085C223.969 80.7936 223.844 80.7156 223.706 80.6885H222.823C222.696 80.7016 222.576 80.7575 222.482 80.8479C222.387 80.9383 222.322 81.0584 222.297 81.1905C222.297 81.4416 222.297 81.7449 222.297 82.0064V83.5336H219.609L219.569 83.5231Z" fill="#263238"/>
<path d="M317.015 152.522C321.911 130.266 308.769 108.038 287.662 102.875C266.554 97.7121 245.474 111.569 240.577 133.826C235.681 156.083 248.823 178.311 269.93 183.473C291.038 188.636 312.119 174.779 317.015 152.522Z" fill="#E0E0E0"/>
<path d="M310.208 147.58C311.114 146.467 311.707 145.109 311.921 143.659C312.134 142.209 311.959 140.725 311.415 139.375C310.872 138.024 309.982 136.861 308.845 136.015C307.708 135.169 306.369 134.675 304.98 134.589C305.438 133.223 305.552 131.755 305.311 130.329C305.069 128.903 304.481 127.567 303.603 126.453C302.725 125.339 301.588 124.484 300.303 123.972C299.017 123.46 297.628 123.309 296.271 123.533C296.18 122.093 295.764 120.698 295.057 119.462C294.351 118.227 293.374 117.188 292.209 116.433C291.043 115.677 289.723 115.226 288.359 115.119C286.995 115.011 285.626 115.249 284.367 115.813C283.558 114.775 282.532 113.949 281.37 113.399C280.207 112.849 278.94 112.59 277.667 112.643C276.393 112.695 275.149 113.058 274.031 113.702C272.913 114.347 271.952 115.255 271.223 116.357L269.159 116.472C267.37 116.544 265.616 117.017 264.013 117.859C262.411 118.702 260.996 119.894 259.864 121.357C259.747 121.524 259.614 121.679 259.468 121.817C257.484 123.773 255.4 125.865 254.696 128.637C253.912 131.712 254.954 135.248 253.476 138.051C252.9 139.149 251.958 140.038 251.571 141.189C250.827 143.438 252.266 145.865 252.097 148.239C251.928 150.614 249.944 152.946 250.182 155.457C250.352 156.353 250.695 157.203 251.19 157.953C251.685 158.704 252.321 159.339 253.059 159.818C254.538 160.772 255.918 161.887 257.176 163.145C258.089 164.191 258.684 165.603 259.577 166.722C260.909 168.249 262.741 169.187 264.704 169.346C266.666 169.505 268.613 168.874 270.151 167.58C271.203 168.423 272.431 168.988 273.732 169.228C275.033 169.468 276.37 169.377 277.631 168.96C280.145 168.112 282.51 166.836 284.635 165.184C285.107 165.867 285.735 166.413 286.46 166.773C287.186 167.133 287.985 167.295 288.785 167.244C289.585 167.193 290.36 166.931 291.039 166.481C291.718 166.032 292.279 165.409 292.67 164.672C293.225 166.502 295.289 167.433 297.104 167.245C298.894 166.901 300.588 166.139 302.064 165.017C304.98 163.124 308.234 160.624 308.314 157.015C308.363 154.808 307.153 152.528 307.947 150.488C308.55 149.399 309.314 148.418 310.208 147.58V147.58Z" fill="#263238"/>
<path d="M290.557 133.888C289.902 132.005 290.19 129.913 289.942 127.926C289.406 123.533 286.162 119.83 282.254 118.219C278.256 116.741 273.896 116.767 269.913 118.292C266.901 119.245 264.197 121.055 262.096 123.522C260.769 125.212 259.845 127.212 259.401 129.356C258.957 131.5 259.007 133.725 259.547 135.844L280.835 132.842C282.715 134.718 284.873 136.259 287.224 137.403C287.916 137.735 288.678 137.872 289.436 137.8C289.813 137.757 290.17 137.601 290.465 137.351C290.76 137.101 290.982 136.767 291.102 136.388C291.161 135.516 290.971 134.646 290.557 133.888V133.888Z" fill="#263238"/>
<path d="M287.888 128.857L269.388 124.474C263.485 123.972 259.755 131.723 259.537 137.967C259.289 144.902 259.259 153.375 260.162 158.511C261.977 168.856 269.566 169.965 269.566 169.965C269.566 169.965 269.566 177.036 269.735 180.801C276.431 184.159 283.315 183.678 290.339 180.372L291.073 132.486C291.073 131.57 290.745 130.687 290.155 130.014C289.564 129.341 288.755 128.928 287.888 128.857V128.857Z" fill="#B78876"/>
<path d="M263.376 144.4C263.384 144.746 263.518 145.076 263.751 145.32C263.984 145.563 264.298 145.702 264.626 145.708C264.787 145.716 264.948 145.691 265.1 145.633C265.252 145.576 265.391 145.487 265.51 145.372C265.629 145.257 265.725 145.119 265.793 144.965C265.861 144.81 265.899 144.643 265.906 144.474C265.898 144.127 265.763 143.798 265.53 143.554C265.297 143.31 264.984 143.171 264.656 143.166C264.494 143.156 264.333 143.18 264.18 143.238C264.028 143.295 263.888 143.383 263.769 143.498C263.649 143.613 263.553 143.753 263.486 143.907C263.418 144.062 263.381 144.23 263.376 144.4V144.4Z" fill="#263238"/>
<path d="M261.382 142.308C261.551 142.476 262.483 141.712 263.842 141.67C265.201 141.628 266.213 142.329 266.362 142.151C266.511 141.974 266.263 141.764 265.826 141.44C265.232 141.031 264.533 140.823 263.824 140.846C263.114 140.868 262.428 141.12 261.858 141.566C261.442 141.921 261.303 142.256 261.382 142.308Z" fill="#263238"/>
<path d="M276.262 144.4C276.267 144.747 276.401 145.078 276.635 145.322C276.868 145.567 277.183 145.705 277.512 145.708C277.673 145.718 277.834 145.693 277.986 145.636C278.138 145.579 278.277 145.49 278.395 145.375C278.514 145.26 278.609 145.12 278.676 144.966C278.742 144.811 278.778 144.643 278.782 144.474C278.777 144.127 278.643 143.796 278.409 143.551C278.176 143.307 277.861 143.169 277.532 143.166C277.371 143.156 277.21 143.181 277.058 143.238C276.906 143.295 276.767 143.384 276.649 143.499C276.53 143.614 276.435 143.753 276.368 143.908C276.302 144.063 276.266 144.23 276.262 144.4V144.4Z" fill="#263238"/>
<path d="M274.784 142.256C274.943 142.423 275.885 141.649 277.244 141.618C278.603 141.587 279.615 142.277 279.754 142.089C279.893 141.9 279.665 141.702 279.218 141.388C278.631 140.978 277.938 140.77 277.234 140.792C276.516 140.796 275.819 141.05 275.25 141.513C274.784 141.817 274.675 142.141 274.784 142.256Z" fill="#263238"/>
<path d="M270.082 152.977C269.359 152.755 268.612 152.632 267.86 152.611C267.513 152.611 267.185 152.528 267.126 152.277C267.091 151.915 267.16 151.551 267.324 151.231C267.632 150.331 267.949 149.39 268.316 148.417C269.207 146.039 269.917 143.591 270.439 141.095C269.364 143.399 268.468 145.792 267.761 148.25L266.848 151.074C266.637 151.521 266.584 152.033 266.699 152.517C266.753 152.645 266.834 152.759 266.935 152.849C267.036 152.94 267.156 153.005 267.284 153.04C267.476 153.09 267.673 153.111 267.87 153.103C268.609 153.159 269.352 153.117 270.082 152.977Z" fill="#263238"/>
<path d="M269.566 169.954C274.204 169.903 278.738 168.495 282.66 165.885C282.66 165.885 279.516 173.207 269.635 172.464L269.566 169.954Z" fill="#AA6550"/>
<path d="M270.747 156.408C270.992 156.054 271.32 155.772 271.699 155.589C272.077 155.406 272.494 155.328 272.909 155.362C273.21 155.382 273.503 155.465 273.773 155.607C274.042 155.749 274.281 155.947 274.477 156.189C274.666 156.421 274.783 156.711 274.81 157.016C274.836 157.322 274.772 157.629 274.625 157.894C274.415 158.158 274.134 158.349 273.82 158.444C273.505 158.539 273.171 158.533 272.86 158.427C272.213 158.202 271.613 157.847 271.094 157.381C270.94 157.266 270.806 157.125 270.697 156.963C270.646 156.884 270.618 156.791 270.618 156.696C270.618 156.601 270.646 156.508 270.697 156.429" fill="#AA6550"/>
<path d="M274.109 153.856C273.881 153.856 273.921 155.404 272.681 156.544C271.441 157.684 269.874 157.59 269.874 157.768C269.874 157.946 270.231 158.061 270.866 158.061C271.728 158.051 272.561 157.721 273.217 157.13C273.845 156.56 274.237 155.752 274.308 154.881C274.377 154.222 274.209 153.846 274.109 153.856Z" fill="#263238"/>
<path d="M274.417 137.884C274.566 138.271 275.915 138.051 277.512 138.208C279.109 138.365 280.409 138.794 280.617 138.438C280.706 138.271 280.478 137.905 279.942 137.539C279.24 137.093 278.449 136.824 277.631 136.754C276.811 136.674 275.985 136.8 275.221 137.12C274.645 137.392 274.357 137.706 274.417 137.884Z" fill="#263238"/>
<path d="M261.63 136.032C261.878 136.357 262.801 136.032 263.931 135.938C265.062 135.844 266.015 136.105 266.223 135.76C266.312 135.593 266.154 135.269 265.727 134.976C265.167 134.607 264.511 134.435 263.852 134.484C263.189 134.519 262.552 134.767 262.027 135.195C261.64 135.541 261.521 135.875 261.63 136.032Z" fill="#263238"/>
<path d="M293.999 130.907C292.144 124.924 283.841 116.692 277.889 117.173L268.425 123.261C268.752 124.963 269.508 126.541 270.613 127.83C271.718 129.118 273.131 130.069 274.705 130.583C276.391 131.116 278.415 131.242 279.417 132.758C280.419 134.275 279.873 136.587 280.835 138.177C282.165 140.394 285.795 140.269 286.787 142.664C287.224 143.71 287.005 144.965 287.462 146.011C288.077 147.392 291.43 149.149 292.799 148.658C294.168 148.166 294.158 145.708 294.604 144.411C295.159 142.939 295.219 141.311 294.773 139.798C294.128 136.9 294.882 133.763 293.999 130.907Z" fill="#263238"/>
<path d="M292.769 146.147C292.719 146.147 292.918 145.614 293.067 144.641C293.253 143.264 293.148 141.86 292.759 140.53C292.199 138.559 291.002 136.856 289.376 135.719C288.372 135.106 287.331 134.561 286.261 134.087C285.063 133.57 283.979 132.797 283.077 131.817C282.317 130.729 281.697 129.54 281.232 128.281C280.584 126.803 279.559 125.544 278.271 124.645C276.984 123.745 275.484 123.241 273.941 123.187C272.621 123.152 271.312 123.435 270.112 124.014C269.249 124.411 268.832 124.756 268.802 124.715C268.773 124.673 268.892 124.6 269.09 124.443C269.382 124.205 269.695 123.995 270.022 123.815C271.229 123.137 272.574 122.778 273.941 122.769C275.996 122.778 277.979 123.569 279.526 124.997C280.435 125.835 281.171 126.86 281.688 128.009C282.134 129.226 282.735 130.373 283.474 131.419C284.311 132.35 285.325 133.084 286.45 133.574C287.538 134.061 288.592 134.627 289.605 135.269C291.017 136.291 292.115 137.728 292.76 139.401C293.405 141.075 293.571 142.911 293.235 144.683C293.159 145.066 293.05 145.44 292.908 145.802C292.848 146.032 292.789 146.158 292.769 146.147Z" fill="#455A64"/>
<path d="M291.866 135.028C291.817 135.028 291.648 134.662 291.132 134.129C290.365 133.412 289.486 132.842 288.533 132.445C287.855 132.133 287.192 131.784 286.549 131.399C285.826 130.979 285.197 130.401 284.704 129.704C283.643 128.135 283.305 126.043 281.897 124.6C280.577 123.243 278.874 122.376 277.046 122.131C275.539 121.94 274.011 122.068 272.552 122.508C271.198 122.955 269.873 123.493 268.584 124.118C268.88 123.842 269.214 123.617 269.576 123.449C270.49 122.9 271.458 122.458 272.463 122.131C273.964 121.624 275.549 121.457 277.115 121.639C279.061 121.864 280.879 122.774 282.274 124.223C283.801 125.813 284.139 127.989 285.101 129.453C286.076 130.663 287.32 131.601 288.722 132.183C289.695 132.622 290.575 133.262 291.311 134.066C291.505 134.292 291.669 134.545 291.797 134.819C291.846 134.934 291.886 135.018 291.866 135.028Z" fill="#455A64"/>
<path d="M288.672 149.944C288.672 149.17 289.456 147.329 290.18 147.193C292.104 146.817 295.596 146.89 295.755 152.067C295.973 159.138 289.188 157.915 289.178 157.716C289.168 157.517 288.771 152.622 288.672 149.944Z" fill="#B78876"/>
<path d="M291.182 154.954C291.182 154.954 291.301 155.038 291.499 155.132C291.78 155.248 292.092 155.248 292.372 155.132C292.798 154.829 293.139 154.411 293.361 153.922C293.582 153.433 293.676 152.89 293.632 152.35C293.633 151.741 293.501 151.139 293.245 150.593C293.177 150.373 293.06 150.174 292.902 150.014C292.745 149.853 292.553 149.736 292.342 149.672C292.206 149.642 292.064 149.662 291.939 149.729C291.815 149.795 291.716 149.904 291.658 150.038C291.579 150.237 291.658 150.373 291.589 150.394C291.519 150.415 291.44 150.279 291.489 149.986C291.516 149.806 291.605 149.642 291.737 149.526C291.917 149.377 292.144 149.306 292.372 149.327C292.65 149.373 292.911 149.493 293.132 149.676C293.353 149.859 293.525 150.099 293.632 150.373C293.939 150.974 294.099 151.646 294.098 152.329C294.098 153.762 293.453 155.122 292.491 155.467C292.312 155.529 292.122 155.548 291.935 155.522C291.748 155.497 291.569 155.428 291.41 155.321C291.202 155.132 291.162 154.975 291.182 154.954Z" fill="#AA6550"/>
<path d="M294.118 156.701C294.217 156.555 294.445 156.482 294.773 156.628C294.989 156.752 295.178 156.922 295.329 157.127C295.479 157.332 295.587 157.569 295.646 157.821C295.756 158.237 295.765 158.675 295.671 159.096C295.578 159.517 295.385 159.905 295.11 160.226C294.77 160.617 294.341 160.91 293.864 161.078C293.387 161.246 292.877 161.284 292.382 161.189C291.892 161.082 291.435 160.848 291.053 160.506C290.672 160.164 290.378 159.726 290.2 159.233C290.057 158.859 289.991 158.458 290.006 158.056C290.021 157.654 290.118 157.26 290.289 156.9C290.402 156.652 290.569 156.435 290.776 156.266C290.982 156.097 291.223 155.981 291.479 155.927C291.866 155.927 292.055 156.074 292.075 156.252C292.071 156.449 292.045 156.646 291.995 156.837C291.966 157.056 291.966 157.278 291.995 157.496C292.062 157.74 292.173 157.967 292.323 158.166C292.446 158.341 292.626 158.464 292.829 158.511C293.026 158.54 293.228 158.515 293.414 158.438C293.504 158.4 293.585 158.342 293.652 158.268C293.718 158.194 293.769 158.105 293.801 158.009C294.049 157.538 293.93 157.015 294.118 156.701Z" fill="#E0E0E0"/>
<path d="M260.956 180.027L269.675 178.427L290.378 177.642L299.753 178.134C299.753 178.134 281.728 191.313 260.956 180.027Z" fill="#9AD0EC"/>
<path d="M318.015 143.166C318.015 143.166 318.015 142.936 317.956 142.497C317.896 142.057 317.896 141.377 317.837 140.53C317.837 140.101 317.837 139.62 317.757 139.087C317.678 138.553 317.599 137.978 317.509 137.361C317.42 136.744 317.311 136.064 317.202 135.342C317.073 134.583 316.904 133.832 316.696 133.093C315.78 129.226 314.316 125.526 312.351 122.121C309.787 117.59 306.419 113.623 302.431 110.437L300.745 109.108C300.149 108.7 299.525 108.324 298.909 107.916C298.294 107.508 297.679 107.079 297.005 106.755L294.971 105.709L293.979 105.186L292.888 104.778L290.656 103.962C289.912 103.7 289.128 103.533 288.355 103.313C287.58 103.071 286.791 102.882 285.994 102.749C284.356 102.425 282.698 102.226 281.034 102.152C280.19 102.152 279.347 102.027 278.494 102.048L275.905 102.184C275.478 102.184 275.042 102.184 274.605 102.278L273.306 102.487C272.433 102.634 271.55 102.749 270.677 102.937C267.102 103.791 263.645 105.124 260.39 106.901C259.567 107.372 258.783 107.947 257.97 108.428C257.573 108.7 257.146 108.93 256.759 109.234L255.619 110.144C254.058 111.355 252.579 112.679 251.194 114.108C249.822 115.603 248.546 117.193 247.375 118.867L246.472 120.133L245.689 121.482L244.905 122.842C244.635 123.292 244.393 123.76 244.181 124.244C243.744 125.206 243.298 126.179 242.861 127.152C242.425 128.125 242.157 129.171 241.8 130.196C239.115 138.607 239.115 147.714 241.8 156.126C242.147 157.172 242.504 158.218 242.852 159.17C243.199 160.122 243.734 161.115 244.181 162.078L244.508 162.789L244.905 163.479L245.689 164.839L246.472 166.189L247.365 167.454C248.536 169.135 249.816 170.729 251.194 172.224C252.583 173.644 254.058 174.968 255.609 176.188L256.759 177.098C257.149 177.385 257.553 177.651 257.97 177.893C258.783 178.406 259.567 178.939 260.39 179.431C262.037 180.329 263.737 181.116 265.479 181.784C267.177 182.439 268.913 182.977 270.677 183.395C271.55 183.583 272.433 183.688 273.306 183.845L274.605 184.054C275.042 184.117 275.478 184.054 275.905 184.138L278.494 184.284C279.347 184.284 280.19 184.211 281.034 184.18C282.698 184.101 284.355 183.902 285.994 183.583C286.79 183.44 287.578 183.251 288.355 183.019C289.128 182.799 289.912 182.632 290.656 182.37L292.858 181.523L293.94 181.104L294.932 180.592L296.916 179.546C297.59 179.222 298.185 178.761 298.82 178.385C299.455 178.008 300.06 177.611 300.655 177.203L302.342 175.874C306.33 172.689 309.698 168.721 312.262 164.191C314.223 160.783 315.688 157.084 316.607 153.218C316.815 152.475 316.983 151.721 317.113 150.959C317.222 150.247 317.331 149.578 317.42 148.95C317.51 148.323 317.619 147.748 317.668 147.225C317.718 146.702 317.728 146.179 317.748 145.781C317.807 144.923 317.847 144.275 317.867 143.815C317.886 143.354 317.926 143.145 317.926 143.145C317.926 143.145 317.926 143.375 317.926 143.815C317.926 144.254 317.926 144.934 317.857 145.781C317.857 146.22 317.857 146.702 317.797 147.235C317.738 147.768 317.658 148.344 317.569 148.971C317.48 149.599 317.39 150.279 317.291 151.001C317.169 151.767 317.004 152.525 316.795 153.27C315.919 157.174 314.473 160.911 312.51 164.348C309.954 168.926 306.586 172.943 302.59 176.178L300.884 177.527C300.288 177.946 299.663 178.322 299.038 178.73C298.413 179.138 297.798 179.577 297.114 179.912L295.07 180.958L294.078 181.481L292.977 181.899L290.765 182.757C290.011 183.029 289.228 183.196 288.444 183.427C287.658 183.666 286.86 183.858 286.053 184.002C284.415 184.328 282.758 184.538 281.093 184.629C280.24 184.629 279.377 184.745 278.514 184.734L275.905 184.598C275.469 184.598 275.022 184.598 274.586 184.514L273.266 184.305C272.393 184.148 271.501 184.044 270.618 183.855C266.994 183.015 263.487 181.689 260.182 179.912C259.349 179.431 258.555 178.866 257.722 178.364C257.315 178.092 256.888 177.862 256.501 177.548L255.341 176.638C253.763 175.407 252.265 174.065 250.857 172.621C249.462 171.108 248.166 169.497 246.978 167.799L246.076 166.523L245.272 165.153L244.478 163.772L244.082 163.082L243.744 162.35L242.405 159.421C242.048 158.375 241.691 157.329 241.324 156.335C238.606 147.808 238.606 138.577 241.324 130.049L242.395 126.911L243.734 123.982C243.945 123.487 244.194 123.012 244.478 122.56L245.272 121.179L246.066 119.809L246.978 118.533C249.28 115.123 252.102 112.139 255.331 109.705L256.492 108.784C256.878 108.481 257.315 108.251 257.712 107.979C258.545 107.456 259.339 106.933 260.172 106.431C261.835 105.51 263.559 104.716 265.33 104.056C267.055 103.416 268.818 102.899 270.608 102.508C271.491 102.32 272.383 102.205 273.256 102.058L274.576 101.849C275.012 101.786 275.459 101.786 275.895 101.755L278.504 101.629C279.367 101.629 280.23 101.703 281.073 101.734C282.738 101.825 284.395 102.035 286.033 102.362C286.842 102.495 287.641 102.687 288.424 102.937C289.198 103.157 289.991 103.334 290.745 103.596L292.957 104.454L294.049 104.882L295.09 105.405L297.134 106.451C297.818 106.776 298.423 107.246 299.058 107.623C299.693 108 300.308 108.418 300.903 108.836L302.6 110.175C306.618 113.405 310.004 117.426 312.569 122.016C314.528 125.455 315.974 129.191 316.855 133.093C317.065 133.838 317.231 134.596 317.351 135.363C317.45 136.085 317.549 136.754 317.629 137.392C317.708 138.03 317.817 138.595 317.857 139.128C317.896 139.662 317.857 140.174 317.916 140.572C317.916 141.43 317.966 142.078 317.986 142.549C318.005 143.02 318.015 143.166 318.015 143.166Z" fill="#263238"/>
<path d="M441.212 406.643C438.684 404.076 435.583 402.221 432.197 401.25C428.81 400.278 425.245 400.222 421.833 401.086C418.42 401.95 415.268 403.707 412.668 406.193C410.069 408.68 408.105 411.817 406.958 415.314L409.438 425.429C410.38 421.988 412.414 418.651 415.519 417.239C418.624 415.827 422.522 416.601 425.846 417.877C429.169 419.153 432.433 420.848 435.954 421.078C439.476 421.308 443.474 419.54 444.525 415.984C445.517 412.647 443.602 409.08 441.212 406.643Z" fill="#9AD0EC"/>
<g opacity="0.3">
<path opacity="0.3" d="M441.212 406.643C438.684 404.076 435.583 402.221 432.197 401.25C428.81 400.278 425.245 400.222 421.833 401.086C418.42 401.95 415.268 403.707 412.668 406.193C410.069 408.68 408.105 411.817 406.958 415.314L409.438 425.429C410.38 421.988 412.414 418.651 415.519 417.239C418.624 415.827 422.522 416.601 425.846 417.877C429.169 419.153 432.433 420.848 435.954 421.078C439.476 421.308 443.474 419.54 444.525 415.984C445.517 412.647 443.602 409.08 441.212 406.643Z" fill="black"/>
</g>
<path d="M381.484 440.366C376.305 435.136 376.524 426.151 379.142 419.132C381.761 412.114 387.366 406.716 393.655 403.17C399.8 399.766 406.597 397.875 413.535 397.637C420.472 397.4 427.371 398.823 433.712 401.8C430.608 401.941 427.585 402.883 424.906 404.543C422.227 406.202 419.975 408.529 418.346 411.319C415.509 416.287 414.874 422.312 412.533 427.563C409.889 433.476 405.198 438.097 399.424 440.478C393.65 442.859 387.23 442.819 381.484 440.366" fill="#9AD0EC"/>
<path d="M378.994 409.216C373.26 402.082 372.496 390.629 373.339 381.33C374.182 372.031 376.226 362.648 374.837 353.422C374.014 347.952 372 342.722 371.325 337.23C370.651 331.739 371.603 325.526 375.641 321.98C380.283 317.911 387.545 318.842 392.405 322.701C397.266 326.561 400.034 332.534 402.077 338.527C406.561 351.686 408.208 366.278 404.528 379.719C400.847 393.16 392.187 405.158 379.49 409.216" fill="#9AD0EC"/>
<path d="M376.236 467.75C376.221 467.475 376.221 467.199 376.236 466.924C376.236 466.391 376.236 465.596 376.285 464.57C376.355 462.478 376.543 459.56 376.98 455.931C377.486 451.671 378.221 447.445 379.182 443.274C380.366 438.152 382.208 433.225 384.658 428.63C387.1 424.033 390.102 419.792 393.586 416.015C396.422 412.928 399.565 410.171 402.96 407.794C404.389 406.748 405.778 405.953 406.928 405.22C408.079 404.488 409.22 403.986 410.093 403.547L412.156 402.626C412.392 402.509 412.638 402.415 412.89 402.344C412.666 402.484 412.434 402.609 412.196 402.721L410.212 403.714C409.359 404.185 408.307 404.76 407.097 405.461C405.887 406.162 404.557 407.03 403.129 408.086C395.672 413.46 389.485 420.567 385.045 428.86C379.777 438.577 378.339 448.797 377.287 455.962C376.811 459.581 376.573 462.531 376.444 464.57C376.394 465.554 376.345 466.338 376.315 466.914C376.317 467.195 376.29 467.475 376.236 467.75V467.75Z" fill="#263238"/>
<path d="M326.804 381.079C316.2 387.825 316.23 393.965 318.005 399.76C319.781 405.555 326.289 409.582 331.675 407.407C334.731 406.183 336.943 403.39 338.827 400.576C340.712 397.762 342.488 394.76 345.127 392.742C347.765 390.723 351.614 389.959 354.263 391.957" fill="#9AD0EC"/>
<path d="M357.626 393.85L347.468 389.823L351.515 390.325C352.608 390.444 353.654 390.858 354.551 391.528L357.626 393.85Z" fill="black"/>
<g opacity="0.3">
<path opacity="0.3" d="M326.804 381.079C316.2 387.825 316.23 393.965 318.005 399.76C319.781 405.555 326.289 409.582 331.675 407.407C334.731 406.183 336.943 403.39 338.827 400.576C340.712 397.762 342.488 394.76 345.127 392.742C346.949 391.322 349.198 390.649 351.456 390.848L326.804 381.079Z" fill="black"/>
</g>
<path d="M318.868 388.474C321.636 384.436 328.491 383.244 332.816 385.284C337.141 387.323 340.306 391.288 343.143 395.283C345.98 399.279 348.738 403.484 352.666 406.266C356.594 409.049 362.08 410.032 366.048 407.25C367.295 406.267 368.339 405.026 369.117 403.604C369.895 402.181 370.39 400.607 370.571 398.976C370.917 395.714 370.709 392.412 369.956 389.227C369.014 384.541 367.486 379.646 363.935 376.675C359.967 373.359 354.461 373.192 349.402 373.37C343.589 373.569 337.697 374.029 332.241 376.152C326.785 378.275 321.229 382.857 318.918 388.484" fill="#9AD0EC"/>
<path d="M367.427 458.797C367.414 458.713 367.414 458.629 367.427 458.546C367.427 458.357 367.427 458.117 367.427 457.824C367.427 457.154 367.377 456.223 367.338 455.052C367.278 452.604 367.179 449.121 367.06 444.843C366.941 440.565 366.762 435.429 366.475 429.718C366.187 424.007 365.77 417.783 364.947 411.266C364.606 408.083 364.019 404.935 363.191 401.852C362.349 399.024 361.263 396.282 359.947 393.662C358.765 391.282 357.394 389.011 355.85 386.874C354.486 385.011 352.987 383.262 351.366 381.644C349 379.344 346.326 377.423 343.43 375.943C342.915 375.692 342.438 375.451 342.052 375.273L341.06 374.855L340.425 374.583C340.35 374.557 340.279 374.518 340.216 374.468C340.294 374.482 340.37 374.503 340.444 374.531L341.089 374.75L342.151 375.137C342.567 375.294 343.024 375.524 343.549 375.765C346.5 377.192 349.226 379.086 351.634 381.382C353.286 382.994 354.812 384.743 356.197 386.612C357.774 388.754 359.171 391.036 360.374 393.432C361.717 396.075 362.823 398.845 363.677 401.706C364.514 404.787 365.111 407.936 365.463 411.12C366.286 417.657 366.673 423.912 366.951 429.613C367.228 435.314 367.348 440.439 367.437 444.749C367.526 449.058 367.556 452.552 367.566 454.968V457.74C367.566 458.033 367.566 458.274 367.566 458.462C367.537 458.58 367.49 458.693 367.427 458.797V458.797Z" fill="#263238"/>
<path d="M371.246 463.849C370.742 462.283 370.354 460.677 370.085 459.048C369.347 454.594 369.183 450.054 369.599 445.554C370.245 438.892 371.599 432.327 373.637 425.984C375.809 418.787 378.765 411.099 381.295 402.825C382.537 398.81 383.551 394.719 384.33 390.576C385.052 386.711 385.572 382.807 385.888 378.882C386.374 372.232 386.486 365.557 386.225 358.893C386.047 353.203 385.759 348.6 385.58 345.41L385.372 341.749C385.372 341.352 385.372 341.038 385.372 340.797C385.359 340.69 385.359 340.581 385.372 340.473C385.397 340.576 385.414 340.681 385.422 340.787C385.422 341.027 385.471 341.341 385.511 341.739C385.58 342.607 385.68 343.831 385.799 345.4C386.037 348.538 386.374 353.182 386.602 358.883C386.911 365.562 386.831 372.255 386.364 378.924C386.076 382.866 385.579 386.787 384.876 390.671C384.099 394.836 383.082 398.947 381.831 402.982C379.301 411.277 376.335 418.954 374.143 426.12C372.065 432.429 370.651 438.961 369.927 445.596C369.49 450.066 369.604 454.577 370.264 459.016C370.522 460.585 370.76 461.799 370.968 462.604C371.058 462.991 371.127 463.305 371.186 463.535L371.246 463.849Z" fill="#263238"/>
<path d="M397.534 468.901H347.746L346.605 458.797H397.534V468.901Z" fill="#455A64"/>
<path d="M353.083 467.75L359.312 498.063H386.364L392.187 467.75H353.083Z" fill="#455A64"/>
<path d="M397.534 468.901C397.534 469.037 386.622 469.121 373.081 469.079C359.54 469.037 348.638 468.89 348.638 468.755C348.638 468.619 359.55 468.535 373.081 468.577C386.612 468.619 397.534 468.765 397.534 468.901Z" fill="#455A64"/>
<path d="M388.983 483.859C387.63 482.791 386.157 481.902 384.598 481.212C382.899 480.509 381.096 480.127 379.271 480.083C377.032 480.089 374.811 480.517 372.714 481.348C370.443 482.164 368.32 483.106 366.256 483.618C364.424 484.036 362.534 484.097 360.681 483.796C359.434 483.606 358.225 483.203 357.1 482.604C356.8 482.429 356.512 482.234 356.237 482.018C356.049 481.871 355.959 481.788 355.969 481.777C355.979 481.767 356.386 482.039 357.179 482.426C358.308 482.955 359.505 483.308 360.731 483.472C362.545 483.712 364.384 483.617 366.167 483.189C368.151 482.666 370.274 481.714 372.565 480.899C374.711 480.045 376.988 479.62 379.281 479.643C381.156 479.703 383.003 480.132 384.727 480.909C385.889 481.414 386.98 482.082 387.971 482.896C388.243 483.116 388.501 483.354 388.745 483.608C388.914 483.754 388.993 483.848 388.983 483.859Z" fill="#263238"/>
<path d="M388.606 485.888C387.302 484.851 385.891 483.974 384.4 483.273C382.764 482.568 381.018 482.188 379.251 482.154C377.088 482.16 374.942 482.567 372.913 483.357C370.72 484.131 368.657 485.03 366.693 485.585C364.954 486.113 363.143 486.329 361.336 486.223C360.114 486.145 358.919 485.807 357.824 485.229C357.53 485.063 357.249 484.874 356.981 484.664C356.802 484.528 356.713 484.444 356.723 484.434C356.733 484.424 357.14 484.685 357.904 485.051C358.996 485.548 360.167 485.825 361.356 485.867C363.121 485.925 364.883 485.681 366.574 485.145C368.498 484.57 370.542 483.66 372.764 482.886C374.844 482.08 377.045 481.676 379.261 481.694C382.31 481.79 385.247 482.923 387.634 484.926C387.894 485.141 388.142 485.371 388.378 485.616C388.537 485.783 388.616 485.877 388.606 485.888Z" fill="white"/>
<path d="M389.479 481.85C388.083 480.743 386.572 479.806 384.975 479.058C383.243 478.266 381.394 477.796 379.509 477.666C377.198 477.617 374.9 478.043 372.744 478.922C370.564 479.829 368.335 480.597 366.068 481.223C364.161 481.574 362.211 481.574 360.304 481.223C359.019 481.011 357.771 480.594 356.604 479.989C356.291 479.821 355.992 479.625 355.711 479.403C355.513 479.246 355.414 479.162 355.424 479.152C355.434 479.141 355.87 479.424 356.683 479.811C357.857 480.332 359.091 480.684 360.354 480.857C362.222 481.144 364.122 481.106 365.979 480.742C368.22 480.088 370.429 479.313 372.595 478.42C374.807 477.518 377.169 477.095 379.539 477.175C382.785 477.45 385.886 478.711 388.467 480.804C388.746 481.031 389.011 481.276 389.261 481.537C389.4 481.746 389.489 481.84 389.479 481.85Z" fill="white"/>
<path d="M397.971 468.943C397.971 469.079 386.771 469.194 372.962 469.194C359.154 469.194 347.944 469.079 347.944 468.943C347.944 468.807 359.144 468.692 372.962 468.692C386.781 468.692 397.971 468.807 397.971 468.943Z" fill="#263238"/>
<path d="M464.772 498.063C464.772 498.21 370.373 498.335 253.962 498.335C137.551 498.335 43.1322 498.21 43.1322 498.063C43.1322 497.917 137.511 497.791 253.962 497.791C370.413 497.791 464.772 497.896 464.772 498.063Z" fill="#263238"/>
<path d="M150.843 485.218L147.858 438.86L171.646 441.213L169.662 486.16L157.966 486.85L150.843 485.218Z" fill="#B78876"/>
<path d="M150.159 482.917V484.298C150.159 484.298 128.494 493.712 128.335 498.095L171.537 497.404L170.703 482.206C164.325 485.47 157.609 485.93 150.159 482.917Z" fill="#9AD0EC"/>
<g opacity="0.6">
<path opacity="0.6" d="M166.398 487.143C166.813 487.27 167.169 487.553 167.4 487.939C167.63 488.324 167.718 488.786 167.648 489.235C167.544 489.684 167.279 490.073 166.909 490.32C166.54 490.568 166.093 490.655 165.664 490.564C165.221 490.427 164.842 490.123 164.599 489.71C164.356 489.297 164.265 488.804 164.345 488.325C164.5 487.874 164.815 487.503 165.223 487.29C165.632 487.078 166.103 487.04 166.537 487.185" fill="white"/>
</g>
<g opacity="0.6">
<path opacity="0.6" d="M171.507 497.373L171.308 493.733L129.952 495.72C129.952 495.72 128.037 496.641 128.276 498.063L171.507 497.373Z" fill="white"/>
</g>
<path d="M150.02 484.392C150.02 484.622 151.082 484.706 152.133 485.438C153.185 486.17 153.75 487.059 153.938 486.965C154.127 486.871 153.8 485.595 152.52 484.769C151.24 483.942 149.97 484.193 150.02 484.392Z" fill="#263238"/>
<path d="M145.516 486.442C145.467 486.662 146.389 487.028 147.123 487.959C147.858 488.89 148.066 489.873 148.284 489.863C148.502 489.852 148.611 488.587 147.679 487.446C146.747 486.306 145.516 486.233 145.516 486.442Z" fill="#263238"/>
<path d="M143.027 492.206C143.215 492.206 143.493 491.16 142.937 489.926C142.382 488.691 141.38 488.241 141.301 488.43C141.221 488.618 141.826 489.256 142.293 490.26C142.759 491.264 142.848 492.185 143.027 492.206Z" fill="#263238"/>
<path d="M199.65 454.163L172.945 417.197L194.035 405.346L215.859 444.017L206.455 451.38L199.65 454.163Z" fill="#B78876"/>
<path d="M197.884 452.636L198.598 453.755C198.598 453.755 185.444 474.225 187.557 478.022L223.269 452.364L214.689 440.188C212.897 443.411 210.469 446.19 207.57 448.338C204.67 450.486 201.367 451.951 197.884 452.636Z" fill="#9AD0EC"/>
<g opacity="0.6">
<path opacity="0.6" d="M213.647 446.736C214.064 446.603 214.512 446.636 214.907 446.829C215.302 447.022 215.616 447.361 215.79 447.782C215.93 448.22 215.905 448.697 215.72 449.116C215.535 449.534 215.205 449.862 214.798 450.031C214.359 450.176 213.884 450.144 213.466 449.942C213.048 449.739 212.717 449.379 212.536 448.933C212.426 448.466 212.493 447.972 212.723 447.556C212.952 447.14 213.327 446.835 213.766 446.705" fill="white"/>
</g>
<g opacity="0.6">
<path opacity="0.6" d="M223.25 452.311L221.186 449.383L187.736 475.041C187.736 475.041 186.615 476.913 187.557 477.97L223.25 452.311Z" fill="white"/>
</g>
<path d="M198.539 453.964C198.668 454.142 199.59 453.598 200.83 453.577C202.07 453.556 203.023 453.995 203.142 453.807C203.261 453.619 202.308 452.761 200.801 452.761C199.293 452.761 198.4 453.807 198.539 453.964Z" fill="#263238"/>
<path d="M195.851 458.273C195.93 458.483 196.843 458.274 197.973 458.608C199.104 458.943 199.779 459.654 199.957 459.529C200.136 459.403 199.571 458.274 198.202 457.866C196.833 457.458 195.741 458.148 195.851 458.273Z" fill="#263238"/>
<path d="M196.783 464.529C196.962 464.455 196.614 463.367 195.513 462.677C194.412 461.987 193.341 462.175 193.361 462.384C193.38 462.593 194.244 462.771 195.136 463.347C196.029 463.922 196.595 464.633 196.783 464.529Z" fill="#263238"/>
<path d="M158.383 295.077C158.383 295.077 137.749 372.648 139.138 378.223C140.527 383.798 177.181 441.067 178.223 441.422C179.264 441.778 208.241 423.557 208.241 423.557L178.223 371.382C178.223 371.382 194.938 333.653 199.809 316.99C204.679 300.327 205.622 299.47 202.596 284.292C200.761 275.088 192.577 262.766 192.577 262.766L191.258 258.508H157.44L158.383 295.077Z" fill="#263238"/>
<path d="M136.112 258.498L133.662 268.822C129.486 271.96 123.226 286.761 122.879 292.681C122.532 298.602 121.183 322.932 121.143 339.751C121.084 359.249 141.638 475.041 141.638 475.041H178.56L165.575 291.248L162.321 258.498H136.112Z" fill="#263238"/>
<path d="M157.202 281.761C157.195 281.909 157.176 282.056 157.143 282.2C157.083 282.514 157.014 282.943 156.915 283.487C156.696 284.637 156.379 286.29 155.982 288.403C155.119 292.671 153.829 298.863 152.133 306.405C150.437 313.946 148.373 323.005 146.34 333.078C145.348 338.109 144.356 343.412 143.523 348.946C142.616 354.639 142.089 360.392 141.945 366.163C141.856 372.073 142.292 377.92 144.247 383.129C146.091 388.15 148.239 393.041 150.675 397.773C155.278 406.842 159.93 414.729 164.007 421.214C168.084 427.699 171.616 432.772 174.146 436.182C175.435 437.887 176.427 439.205 177.122 440.052L177.925 441.046C178.023 441.154 178.109 441.274 178.183 441.402C176.689 439.785 175.275 438.088 173.947 436.318C171.358 432.918 167.777 427.856 163.66 421.381C159.543 414.906 154.861 407.04 150.219 397.961C147.753 393.235 145.586 388.343 143.731 383.317C141.747 378.087 141.291 372.094 141.39 366.163C141.533 360.367 142.067 354.589 142.987 348.872C143.79 343.329 144.812 338.025 145.834 332.984C147.897 322.911 150.01 313.905 151.736 306.332C153.462 298.758 154.821 292.618 155.704 288.372C156.151 286.28 156.488 284.617 156.696 283.466L156.984 282.2C157.041 282.046 157.114 281.898 157.202 281.761Z" fill="#455A64"/>
<path d="M200.82 286.071C200.42 286.28 199.997 286.438 199.561 286.541C198.391 286.884 197.197 287.122 195.989 287.253C191.976 287.696 187.923 287.043 184.218 285.356C180.514 283.669 177.284 281.004 174.84 277.619C174.09 276.609 173.426 275.531 172.856 274.397C172.626 273.994 172.446 273.562 172.32 273.111C172.41 273.048 173.193 274.889 175.098 277.378C177.569 280.636 180.761 283.204 184.393 284.858C188.025 286.512 191.986 287.201 195.93 286.866C198.985 286.604 200.791 285.955 200.82 286.071Z" fill="#455A64"/>
<path d="M138.086 269.962C138.086 269.962 138.086 270.276 137.918 270.82C137.719 271.582 137.474 272.33 137.184 273.058C135.264 277.932 132.097 282.148 128.037 285.234C127.428 285.699 126.792 286.125 126.133 286.51C125.903 286.677 125.648 286.801 125.379 286.876C125.379 286.803 126.371 286.154 127.819 284.93C131.687 281.729 134.78 277.606 136.846 272.901C137.64 271.102 138.007 269.931 138.086 269.962Z" fill="#455A64"/>
<path d="M197.964 121.796C198.747 120.832 199.259 119.657 199.443 118.403C199.627 117.148 199.476 115.865 199.006 114.696C198.536 113.528 197.766 112.521 196.782 111.788C195.799 111.056 194.642 110.628 193.44 110.552C193.812 109.371 193.892 108.109 193.673 106.887C193.454 105.664 192.944 104.52 192.189 103.563C191.435 102.606 190.461 101.868 189.361 101.418C188.261 100.968 187.07 100.821 185.901 100.991C185.823 99.7436 185.463 98.5337 184.851 97.4629C184.238 96.3922 183.391 95.4918 182.381 94.8372C181.371 94.1826 180.226 93.7929 179.044 93.7007C177.861 93.6085 176.675 93.8166 175.584 94.3074C174.882 93.4129 173.994 92.7014 172.988 92.2283C171.983 91.7552 170.887 91.5333 169.787 91.5799C168.687 91.6264 167.611 91.9402 166.645 92.4968C165.679 93.0533 164.847 93.8376 164.216 94.7885C162.985 94.9995 161.814 95.4922 160.783 96.232C159.648 96.023 158.479 96.2064 157.45 96.755C156.185 97.4906 155.029 98.4174 154.018 99.506C152.302 101.201 150.496 103.01 149.891 105.405C149.207 108.073 150.109 111.127 148.83 113.543C148.207 114.409 147.656 115.329 147.183 116.294C146.538 118.24 147.788 120.332 147.639 122.392C147.491 124.453 145.774 126.461 145.983 128.668C146.129 129.445 146.426 130.181 146.854 130.83C147.283 131.48 147.834 132.03 148.473 132.445C149.752 133.269 150.945 134.233 152.034 135.321C152.828 136.273 153.333 137.413 154.117 138.407C155.266 139.734 156.85 140.551 158.549 140.69C160.248 140.83 161.933 140.283 163.263 139.16C164.173 139.888 165.235 140.376 166.36 140.584C167.485 140.791 168.641 140.712 169.731 140.352C171.907 139.62 173.954 138.517 175.792 137.089C176.203 137.675 176.747 138.143 177.374 138.451C178 138.759 178.69 138.897 179.38 138.853C180.07 138.808 180.739 138.582 181.325 138.195C181.911 137.809 182.396 137.274 182.736 136.639C183.05 137.405 183.596 138.04 184.29 138.443C184.983 138.847 185.783 138.996 186.565 138.867C188.127 138.579 189.605 137.921 190.891 136.942C193.41 135.3 196.237 133.145 196.297 130.018C196.297 128.104 195.305 126.127 195.989 124.359C196.515 123.4 197.181 122.535 197.964 121.796V121.796Z" fill="#263238"/>
<path d="M141.727 109.328C143.244 107.096 145.186 105.223 147.429 103.827C149.672 102.431 152.166 101.544 154.752 101.221C161.944 99.9349 169.94 101.221 175.782 105.824C181.139 110.008 184.115 117.006 184.948 124.014C185.236 126.482 184.532 128.857 183.877 131.242C182.865 134.01 180.99 136.334 178.56 137.831C176.467 138.993 175.584 138.25 173.828 136.608C172.821 135.511 172.037 134.208 171.527 132.779C168.987 126.932 166.081 121.137 161.805 116.545C157.53 111.953 151.687 108.669 145.586 108.868" fill="#9AD0EC"/>
<path d="M173.451 120.897C172.717 118.805 173.034 116.472 172.767 114.244C172.162 109.359 168.551 105.228 164.186 103.428C159.73 101.787 154.874 101.817 150.437 103.512C147.082 104.571 144.069 106.583 141.727 109.328C140.248 111.212 139.218 113.441 138.723 115.831C138.228 118.22 138.281 120.699 138.88 123.062L162.609 119.746C164.704 121.837 167.11 123.55 169.731 124.819C170.501 125.2 171.354 125.355 172.201 125.269C172.622 125.222 173.021 125.049 173.35 124.768C173.679 124.488 173.925 124.113 174.056 123.689C174.121 122.716 173.91 121.744 173.451 120.897V120.897Z" fill="#263238"/>
<path d="M149.851 110.395L170.465 115.301C171.429 115.379 172.33 115.837 172.99 116.582C173.65 117.328 174.019 118.308 174.027 119.328L173.203 166.513C173.161 169.731 172.115 172.844 170.227 175.372L168.243 178.029C167.195 179.435 165.831 180.543 164.275 181.254C162.719 181.965 161.019 182.255 159.329 182.1C157.64 181.944 156.014 181.347 154.598 180.362C153.182 179.378 152.021 178.037 151.22 176.46C151.021 176.066 150.868 175.648 150.764 175.215C150.681 174.872 150.621 174.522 150.586 174.169C150.257 171.805 150.164 169.41 150.308 167.025C150.159 162.841 150.119 161.094 150.119 161.136C150.119 161.178 141.667 159.892 139.634 148.365C138.642 142.633 138.642 133.187 138.939 125.457C139.118 118.48 143.265 109.83 149.851 110.395Z" fill="#B78876"/>
<path d="M143.156 132.622C143.161 133.009 143.309 133.378 143.568 133.652C143.827 133.925 144.178 134.081 144.544 134.087C144.724 134.098 144.905 134.071 145.074 134.007C145.244 133.943 145.4 133.844 145.532 133.715C145.665 133.586 145.771 133.43 145.845 133.257C145.919 133.083 145.959 132.896 145.963 132.706C145.958 132.32 145.809 131.952 145.55 131.68C145.29 131.409 144.94 131.255 144.574 131.252C144.395 131.241 144.215 131.268 144.046 131.331C143.877 131.394 143.722 131.493 143.59 131.62C143.457 131.748 143.351 131.903 143.276 132.075C143.202 132.247 143.161 132.433 143.156 132.622Z" fill="#263238"/>
<path d="M140.933 130.3C141.112 130.489 142.164 129.62 143.671 129.589C145.179 129.558 146.32 130.321 146.479 130.112C146.637 129.903 146.37 129.683 145.874 129.327C145.21 128.865 144.427 128.631 143.632 128.658C142.841 128.674 142.077 128.957 141.449 129.463C140.993 129.861 140.864 130.217 140.933 130.3Z" fill="#263238"/>
<path d="M157.51 132.622C157.517 133.01 157.668 133.379 157.929 133.653C158.189 133.926 158.541 134.081 158.908 134.087C159.088 134.097 159.268 134.068 159.437 134.004C159.606 133.94 159.761 133.84 159.894 133.711C160.026 133.583 160.132 133.428 160.207 133.255C160.281 133.082 160.322 132.896 160.327 132.706C160.322 132.319 160.172 131.949 159.91 131.677C159.649 131.405 159.296 131.252 158.928 131.252C158.749 131.241 158.57 131.268 158.401 131.331C158.231 131.394 158.076 131.493 157.944 131.62C157.812 131.748 157.705 131.903 157.63 132.075C157.556 132.247 157.515 132.433 157.51 132.622Z" fill="#263238"/>
<path d="M155.833 130.185C156.012 130.373 157.053 129.516 158.571 129.474C160.089 129.432 161.22 130.206 161.379 130.007C161.537 129.809 161.269 129.578 160.773 129.212C160.105 128.753 159.319 128.523 158.522 128.553C157.735 128.572 156.974 128.854 156.349 129.359C155.893 129.704 155.744 130.101 155.833 130.185Z" fill="#263238"/>
<path d="M150.625 142.183C149.822 141.937 148.992 141.803 148.155 141.785C147.768 141.785 147.401 141.681 147.322 141.398C147.287 140.979 147.366 140.558 147.55 140.185C147.897 139.139 148.245 138.093 148.621 137.047C150.1 132.581 151.161 128.92 150.992 128.857C150.824 128.794 149.485 132.361 148.016 136.827C147.659 137.926 147.312 138.982 147.024 139.965C146.789 140.461 146.732 141.03 146.866 141.566C146.925 141.708 147.014 141.834 147.125 141.935C147.237 142.036 147.368 142.11 147.51 142.151C147.728 142.204 147.952 142.229 148.175 142.225C148.99 142.318 149.813 142.303 150.625 142.183Z" fill="#263238"/>
<path d="M150.05 161.084C155.226 161.036 160.287 159.475 164.672 156.576C164.672 156.576 161.18 164.682 150.159 163.898L150.05 161.084Z" fill="#AA6550"/>
<path d="M151.359 146.011C151.638 145.621 152.007 145.312 152.43 145.115C152.854 144.917 153.319 144.837 153.78 144.881C154.115 144.901 154.443 144.992 154.743 145.15C155.044 145.309 155.31 145.531 155.526 145.802C155.735 146.063 155.863 146.386 155.893 146.726C155.923 147.066 155.854 147.408 155.694 147.706C155.456 148 155.141 148.213 154.787 148.318C154.434 148.422 154.059 148.413 153.71 148.291C152.981 148.045 152.306 147.647 151.726 147.12C151.552 146.997 151.4 146.841 151.28 146.66C151.224 146.572 151.194 146.468 151.194 146.362C151.194 146.255 151.224 146.152 151.28 146.063" fill="#AA6550"/>
<path d="M155.109 143.166C154.861 143.166 154.901 144.892 153.532 146.158C152.163 147.423 150.397 147.287 150.387 147.528C150.377 147.768 150.784 147.852 151.528 147.852C152.491 147.845 153.421 147.474 154.147 146.806C154.85 146.173 155.291 145.277 155.377 144.306C155.417 143.574 155.228 143.156 155.109 143.166Z" fill="#263238"/>
<path d="M155.456 125.363C155.615 125.792 157.123 125.551 158.908 125.719C160.694 125.886 162.142 126.367 162.371 125.98C162.47 125.792 162.212 125.384 161.617 124.934C160.831 124.442 159.949 124.146 159.038 124.066C158.127 123.986 157.211 124.126 156.359 124.474C155.744 124.809 155.387 125.164 155.456 125.363Z" fill="#263238"/>
<path d="M141.201 123.302C141.479 123.658 142.511 123.302 143.771 123.198C145.03 123.093 146.092 123.376 146.32 122.989C146.429 122.8 146.251 122.445 145.774 122.11C145.146 121.708 144.414 121.522 143.681 121.577C142.943 121.613 142.233 121.886 141.648 122.361C141.211 122.748 141.082 123.125 141.201 123.302Z" fill="#263238"/>
<path d="M177.28 117.581C175.217 110.918 165.962 101.744 159.335 102.278L148.8 109.066C149.155 110.962 149.987 112.723 151.209 114.164C152.43 115.605 153.997 116.673 155.744 117.257C157.619 117.853 159.881 117.999 161.002 119.683C162.123 121.367 161.508 123.941 162.579 125.729C164.067 128.198 168.075 128.051 169.196 130.719C169.682 131.89 169.444 133.292 169.949 134.453C170.624 135.99 174.364 137.936 175.901 137.403C177.439 136.869 177.429 134.118 177.885 132.664C178.511 131.027 178.578 129.212 178.074 127.528C177.429 124.265 178.262 120.771 177.28 117.581Z" fill="#263238"/>
<path d="M181.397 112.602L180.584 116.284C180.62 113.657 179.989 111.068 178.758 108.784C176.11 104.6 170.287 101.724 165.694 100.332C161.101 98.9412 155.456 99.7884 151.012 101.661C147.013 103.25 143.574 106.099 141.162 109.82C137.789 114.631 137.005 121.88 139.088 123.167C140.735 118.177 143.344 112.455 147.481 109.464C149.53 107.928 151.874 106.884 154.347 106.405C156.82 105.926 159.362 106.024 161.795 106.692C167.152 108.355 171.229 113.135 173.6 118.46C174.756 121.188 175.656 124.029 176.288 126.943C177.059 130.364 177.035 133.931 176.219 137.34L173.54 147.225L173.481 150.436C179.998 147.894 184.026 140.729 185.107 133.491C186.188 126.252 185.415 119.244 181.397 112.602Z" fill="#9AD0EC"/>
<path d="M175.911 134.578C175.862 134.578 176.09 133.982 176.258 132.894C176.475 131.356 176.359 129.787 175.921 128.302C175.298 126.099 173.96 124.196 172.142 122.926C171.025 122.236 169.865 121.628 168.67 121.106C167.338 120.531 166.135 119.669 165.138 118.575C164.288 117.367 163.598 116.044 163.085 114.642C162.355 112.991 161.206 111.587 159.765 110.584C158.323 109.581 156.646 109.02 154.921 108.962C153.448 108.928 151.987 109.243 150.645 109.882C149.653 110.343 149.227 110.719 149.207 110.677C149.299 110.564 149.405 110.465 149.524 110.384C149.852 110.123 150.2 109.892 150.566 109.694C152.251 108.77 154.162 108.406 156.048 108.649C157.933 108.891 159.705 109.73 161.13 111.054C162.146 111.985 162.966 113.129 163.541 114.411C164.044 115.766 164.711 117.045 165.525 118.219C166.479 119.254 167.623 120.072 168.888 120.625C170.099 121.164 171.273 121.793 172.4 122.508C173.972 123.642 175.194 125.237 175.915 127.096C176.636 128.955 176.825 130.997 176.457 132.968C176.371 133.392 176.252 133.809 176.1 134.212C176.053 134.343 175.989 134.466 175.911 134.578Z" fill="#455A64"/>
<path d="M174.909 122.183C174.909 122.183 174.671 121.765 174.106 121.137C173.246 120.34 172.263 119.703 171.199 119.254C170.545 118.93 169.801 118.585 169.047 118.114C168.211 117.636 167.486 116.968 166.924 116.158C165.743 114.422 165.366 112.079 163.799 110.468C162.322 108.946 160.412 107.976 158.363 107.707C156.699 107.505 155.013 107.651 153.403 108.135C151.906 108.638 150.441 109.242 149.018 109.945C149.345 109.655 149.705 109.409 150.09 109.213C151.109 108.61 152.187 108.123 153.304 107.759C154.972 107.201 156.732 107.016 158.472 107.215C160.639 107.464 162.663 108.478 164.216 110.092C165.912 111.859 166.279 114.276 167.36 115.865C168.442 117.455 170.138 118.198 171.408 118.909C172.492 119.397 173.474 120.108 174.294 121.001C174.512 121.249 174.695 121.527 174.84 121.828C174.88 122.058 174.929 122.173 174.909 122.183Z" fill="#455A64"/>
<path d="M171.398 138.804C171.398 137.946 172.271 135.886 173.074 135.729C175.217 135.321 179.106 135.394 179.284 141.168C179.532 149.055 171.973 147.685 171.953 147.444C171.933 147.204 171.457 141.785 171.398 138.804Z" fill="#B78876"/>
<path d="M174.146 144.348C174.146 144.348 174.275 144.442 174.503 144.547C174.821 144.684 175.177 144.684 175.495 144.547C175.975 144.206 176.359 143.734 176.605 143.181C176.851 142.629 176.951 142.016 176.893 141.409C176.893 140.731 176.747 140.062 176.467 139.453C176.394 139.207 176.266 138.983 176.093 138.801C175.921 138.618 175.708 138.483 175.475 138.407C175.324 138.369 175.165 138.39 175.027 138.465C174.889 138.539 174.78 138.663 174.721 138.815C174.622 139.034 174.671 139.191 174.632 139.202C174.592 139.212 174.473 139.076 174.523 138.752C174.561 138.557 174.658 138.381 174.8 138.25C175.001 138.078 175.257 137.995 175.515 138.02C175.824 138.073 176.116 138.21 176.361 138.417C176.606 138.624 176.796 138.894 176.913 139.202C177.253 139.871 177.434 140.618 177.439 141.377C177.439 142.978 176.715 144.515 175.644 144.85C175.445 144.92 175.233 144.942 175.025 144.913C174.817 144.884 174.618 144.805 174.443 144.683C174.165 144.589 174.116 144.411 174.146 144.348Z" fill="#AA6550"/>
<path d="M180.435 145.007C180.522 144.726 180.639 144.456 180.782 144.202C181.02 143.668 181.367 142.894 181.724 141.858C182.725 138.921 183.215 135.817 183.173 132.696C183.132 130.543 182.92 128.398 182.538 126.284C182.153 123.853 181.555 121.464 180.752 119.15C179.851 116.599 178.586 114.208 177.002 112.058C175.289 109.766 173.223 107.794 170.892 106.221C166.349 103.163 160.927 101.9 155.585 102.654C153.271 102.972 151.021 103.678 148.919 104.746C147.091 105.686 145.4 106.898 143.899 108.345C141.719 110.451 139.961 112.998 138.731 115.834C138.315 116.88 138.037 117.654 137.868 118.208C137.793 118.493 137.7 118.773 137.59 119.045C137.623 118.75 137.683 118.46 137.769 118.177C137.981 117.352 138.243 116.541 138.553 115.75C140.55 110.791 144.159 106.745 148.73 104.338C150.868 103.225 153.163 102.487 155.526 102.152C160.981 101.343 166.53 102.62 171.17 105.751C175.802 108.866 179.325 113.511 181.189 118.962C181.996 121.31 182.591 123.733 182.964 126.2C183.329 128.341 183.522 130.51 183.54 132.685C183.558 135.845 183.006 138.979 181.913 141.921C181.622 142.71 181.291 143.482 180.921 144.233C180.778 144.504 180.616 144.763 180.435 145.007V145.007Z" fill="#263238"/>
<path d="M177.26 146.44C177.36 146.294 177.598 146.231 177.935 146.44C178.16 146.574 178.356 146.756 178.512 146.973C178.667 147.191 178.778 147.44 178.838 147.706C178.941 148.094 178.958 148.502 178.887 148.898C178.799 149.393 178.583 149.853 178.262 150.227C177.908 150.638 177.459 150.947 176.958 151.123C176.458 151.299 175.923 151.337 175.405 151.231C174.886 151.126 174.403 150.883 174 150.523C173.597 150.164 173.288 149.702 173.104 149.181C172.952 148.786 172.881 148.363 172.895 147.937C172.908 147.512 173.007 147.095 173.183 146.712C173.3 146.449 173.472 146.217 173.687 146.036C173.902 145.854 174.154 145.728 174.423 145.666C174.83 145.603 175.028 145.802 175.048 145.98C175.043 146.183 175.006 146.385 174.939 146.576C174.903 146.819 174.903 147.066 174.939 147.308C174.997 147.595 175.112 147.866 175.276 148.103C175.426 148.319 175.644 148.471 175.892 148.532C176.138 148.576 176.392 148.536 176.616 148.417C176.719 148.363 176.81 148.286 176.884 148.193C176.957 148.099 177.011 147.99 177.042 147.873C177.231 147.298 177.062 146.743 177.26 146.44Z" fill="#455A64"/>
<path d="M118.554 195.853C118.554 195.853 119.794 185.393 124.605 180.09C129.416 174.787 150.189 168.04 150.189 168.04C150.189 168.04 150.328 175.759 155.149 177.569C160.248 179.483 165.208 178.469 168.947 173.898C171.179 171.036 172.666 167.612 173.263 163.961C173.263 163.961 198.42 166.419 202.328 173.375C206.237 180.33 211.296 207.171 211.296 207.171L188.857 212.192L191.912 258.498H132.293L133.464 215.047L117.225 217.484L118.554 195.853Z" fill="#455A64"/>
<path d="M184.403 213.719C184.336 213.375 184.31 213.024 184.324 212.673C184.324 211.993 184.324 211.02 184.324 209.828C184.324 207.422 184.324 204.106 184.433 200.414C184.542 196.721 184.591 193.437 184.691 191C184.74 189.797 184.78 188.824 184.829 188.155C184.821 187.802 184.861 187.449 184.949 187.109C185.02 187.452 185.047 187.804 185.028 188.155C185.028 188.824 185.028 189.797 185.028 191C185.028 193.395 185.028 196.711 184.919 200.414C184.81 204.116 184.75 207.39 184.651 209.828C184.651 211.031 184.562 212.003 184.522 212.673C184.531 213.026 184.491 213.378 184.403 213.719V213.719Z" fill="#263238"/>
<path d="M127.968 194.661C128.107 194.661 129.506 199.315 131.103 205.121C132.7 210.926 133.87 215.727 133.731 215.758C132.524 212.329 131.481 208.838 130.607 205.298C128.96 199.462 127.799 194.702 127.968 194.661Z" fill="#263238"/>
<path d="M199.819 171.69C199.819 171.785 198.747 171.994 197.11 172.653C192.813 174.38 189.238 177.661 187.022 181.91C186.179 183.531 185.831 184.629 185.742 184.598C185.759 184.322 185.816 184.05 185.911 183.793C186.114 183.073 186.376 182.373 186.694 181.701C187.74 179.495 189.188 177.528 190.954 175.913C192.721 174.298 194.773 173.066 196.991 172.287C197.662 172.053 198.348 171.875 199.045 171.753C199.541 171.68 199.809 171.649 199.819 171.69Z" fill="#263238"/>
<path d="M124.238 182.213C124.745 183.238 125.1 184.338 125.29 185.477C125.643 186.572 125.831 187.719 125.845 188.876C124.981 186.758 124.439 184.509 124.238 182.213V182.213Z" fill="#263238"/>
<path d="M207.328 208.07C207.328 208.07 200.602 244.053 199.838 247.128C199.075 250.203 197.854 258.498 189.69 260.213C178.699 262.525 135.557 260.914 135.557 260.914L143.691 250.046L181.447 238.885L186.605 212.735L207.328 208.07Z" fill="#B78876"/>
<path d="M106.838 201.386C106.838 201.386 112.919 222.965 115.439 232.296C118.127 242.201 123.98 264.722 136.479 260.715C145.983 257.672 143.185 244.68 143.185 244.68L133.464 215.047L125.895 216.376L118.554 196.386L106.838 201.386Z" fill="#B78876"/>
<path d="M139.872 245.611C140.211 244.006 140.211 242.342 139.872 240.737C139.485 239.009 138.813 237.366 137.888 235.883C136.69 234.078 135.363 232.372 133.92 230.779C132.472 229.165 131.145 227.433 129.952 225.601C129.001 224.085 128.168 222.49 127.462 220.832C126.993 219.715 126.589 218.569 126.252 217.401C126.103 216.979 126.003 216.54 125.954 216.093C126.149 216.49 126.311 216.902 126.44 217.327C126.738 218.133 127.164 219.283 127.799 220.664C128.537 222.281 129.389 223.837 130.349 225.319C131.555 227.117 132.881 228.823 134.317 230.423C135.777 232.045 137.105 233.795 138.285 235.653C139.238 237.189 139.911 238.899 140.269 240.695C140.508 241.908 140.525 243.158 140.318 244.377C140.254 244.705 140.164 245.027 140.051 245.339C139.922 245.517 139.872 245.622 139.872 245.611Z" fill="#AA6550"/>
<path d="M96.7002 160.843C96.7002 160.843 97.6921 159.379 100.142 161.638C102.593 163.898 112.503 181.648 113.276 183.28C114.05 184.912 118.554 196.387 118.554 196.387L108.515 203.886L106.838 201.386C106.838 201.386 98.4163 193.51 96.7002 191.334C95.1929 189.514 93.8168 187.577 92.5833 185.54C92.4941 185.09 91.8989 182.799 93.5753 182.13C93.5753 182.13 91.9385 179.389 93.3968 178.029C94.855 176.669 97.5235 177.935 97.5235 177.935L88.5955 165.801C88.5955 165.801 87.8217 162.182 90.4009 163.542C92.9801 164.902 99.7555 175.31 100.956 175.582C102.156 175.854 102.156 174.536 102.156 174.536C102.156 174.536 95.1626 163.312 96.7002 160.843Z" fill="#B78876"/>
<path d="M105.886 192.694C105.886 192.694 105.787 192.527 105.678 192.192C105.51 191.702 105.397 191.193 105.341 190.675C105.201 189.73 105.247 188.765 105.478 187.84C105.708 186.915 106.117 186.05 106.68 185.299V185.592C105.777 184.441 104.795 183.165 103.704 181.816L103.773 181.878C103.069 181.45 102.345 180.979 101.621 180.477L100.519 179.682C100.131 179.405 99.7693 179.09 99.4381 178.74C99.1198 178.401 98.9294 177.951 98.9024 177.475C98.9 177.234 98.9466 176.996 99.039 176.776C99.1314 176.555 99.2675 176.359 99.4381 176.199L99.5274 176.094H99.6663L105.846 177.946L110.707 181.763C111.342 182.223 111.939 182.737 112.493 183.301C111.822 182.909 111.176 182.473 110.558 181.994L105.598 178.322H105.668L99.4778 176.544H99.706C99.5964 176.655 99.5092 176.788 99.4495 176.935C99.3899 177.083 99.359 177.241 99.3588 177.402C99.389 177.746 99.5329 178.068 99.7655 178.312C100.07 178.632 100.402 178.923 100.757 179.18L101.829 179.964C102.543 180.466 103.257 180.937 103.952 181.355C104.944 182.736 105.936 184.023 106.838 185.184L106.948 185.33L106.829 185.477C106.207 186.255 105.775 187.181 105.569 188.175C105.403 188.943 105.352 189.734 105.42 190.518C105.698 191.962 105.946 192.673 105.886 192.694Z" fill="#AA6550"/>
<path d="M97.6723 178.531C97.9901 178.845 98.273 179.196 98.5155 179.577C99.2271 180.597 99.867 181.67 100.43 182.788C100.83 183.565 101.187 184.365 101.501 185.184C101.695 185.677 101.744 186.22 101.64 186.742C101.563 187.036 101.408 187.3 101.194 187.503C100.98 187.707 100.715 187.842 100.43 187.893C99.87 188.006 99.29 187.906 98.7933 187.611C98.2998 187.34 97.8399 187.006 97.4243 186.617C96.5854 185.814 95.8485 184.9 95.232 183.897C94.865 183.343 94.5376 182.778 94.24 182.245L94.6467 181.931C95.9374 183.507 97.037 185.246 97.9203 187.108C98.1405 187.553 98.2497 188.05 98.2378 188.552C98.2253 188.802 98.1589 189.046 98.0438 189.266C97.9286 189.485 97.7677 189.674 97.5731 189.818C97.3777 189.928 97.1608 189.991 96.939 190C96.7173 190.009 96.4965 189.964 96.2934 189.87C95.9556 189.711 95.6441 189.495 95.3709 189.232C94.5796 188.487 93.8617 187.66 93.2282 186.763C92.9804 186.447 92.7766 186.094 92.623 185.717C93.5481 186.858 94.5421 187.934 95.599 188.939C96.0752 189.347 96.7994 189.807 97.3648 189.431C97.5002 189.32 97.6105 189.179 97.6877 189.018C97.7649 188.857 97.8071 188.68 97.8112 188.5C97.809 188.08 97.7103 187.667 97.5235 187.297C96.6129 185.497 95.5113 183.813 94.24 182.276L94.6566 181.962C94.9642 182.485 95.3014 183.008 95.6486 183.594C96.2524 184.566 96.9688 185.455 97.7814 186.24C98.575 186.941 99.4976 187.631 100.361 187.433C100.562 187.399 100.751 187.307 100.905 187.167C101.059 187.026 101.173 186.843 101.234 186.638C101.316 186.207 101.278 185.76 101.124 185.351C100.827 184.504 100.46 183.698 100.132 182.987C99.6062 181.865 99.02 180.776 98.3766 179.724C98.1049 179.352 97.869 178.952 97.6723 178.531Z" fill="#AA6550"/>
<path d="M142.957 243.969C143.111 244.226 143.222 244.509 143.285 244.806C143.508 245.586 143.654 246.389 143.721 247.201C143.946 249.916 143.408 252.641 142.173 255.036C141.515 256.355 140.683 257.57 139.703 258.644C138.891 259.527 137.911 260.219 136.827 260.674C136.099 260.969 135.333 261.149 134.555 261.207C134.273 261.267 133.983 261.267 133.702 261.207C134.716 261.016 135.712 260.729 136.678 260.349C137.685 259.863 138.594 259.178 139.356 258.331C140.279 257.263 141.072 256.079 141.717 254.806C142.897 252.49 143.459 249.88 143.344 247.253C143.265 245.203 142.848 244 142.957 243.969Z" fill="#AA6550"/>
</svg>
