<svg width="512" height="512" viewBox="0 0 512 512" fill="none" xmlns="http://www.w3.org/2000/svg">
<g filter="url(#filter0_d_252_755)">
<path d="M285.123 473.149C267.469 464.794 260.434 444.928 257.946 426.424C257.526 423.352 256.645 420.157 257.649 417.208C258.652 414.259 261.745 411.853 264.714 412.682C267.182 413.368 268.626 415.846 270.275 417.802C272.467 420.441 275.365 422.401 278.63 423.455C280.76 424.141 283.29 424.356 285.041 422.963C287.437 421.048 287.089 417.341 286.597 414.29C285.594 408.631 284.611 402.971 283.648 397.312C282.954 394.292 282.75 391.181 283.044 388.096C283.494 385.024 285.143 381.952 287.908 380.682C290.673 379.412 294.554 380.447 295.67 383.334C295.999 384.576 296.245 385.839 296.407 387.113C296.704 388.372 297.533 389.673 298.793 389.827C300.052 389.98 301.148 388.905 301.916 387.85C304.538 384.236 306.012 379.904 307.343 375.613C308.675 371.323 309.924 366.95 312.218 363.1C314.511 359.25 318.013 355.932 322.345 354.908C326.676 353.884 331.796 355.83 333.609 359.936C335.421 364.042 333.67 368.845 331.561 372.797C328.357 378.65 324.326 384.01 319.59 388.71C318.646 389.463 317.965 390.495 317.645 391.66C317.327 393.81 319.601 395.51 321.741 395.837C324.137 396.206 326.574 395.551 329.001 395.428C331.428 395.305 334.182 395.919 335.473 398.019C337.244 400.927 335.186 404.644 332.984 407.235C328.562 412.396 323.287 416.76 317.389 420.137C315.279 421.335 313.037 422.461 311.491 424.346C309.944 426.23 309.32 429.158 310.774 431.124C312.228 433.091 315.167 433.306 317.44 432.466C319.713 431.626 321.608 429.998 323.707 428.78C327.639 426.486 333.107 425.851 336.415 429.025C337.446 430.135 338.206 431.47 338.634 432.923C339.063 434.377 339.148 435.91 338.883 437.402C338.338 440.374 337.199 443.205 335.534 445.727C330.231 454.843 322.606 462.39 313.436 467.599C304.271 472.617 295.404 475.064 285.133 473.16" fill="#F5F5F5"/>
<path d="M287.918 460.8C289.276 450.261 291.238 439.81 293.796 429.496L295.762 421.376C296.407 418.703 297.052 416.061 297.81 413.522C299.341 408.648 301.139 403.862 303.196 399.186C305.131 394.701 307.128 390.502 309.023 386.601C310.917 382.7 312.77 379.095 314.593 375.89C317.438 370.806 320.685 365.958 324.301 361.39C325.581 359.772 326.615 358.554 327.321 357.734C327.659 357.345 327.936 357.038 328.13 356.803C328.325 356.567 328.417 356.495 328.427 356.506C328.353 356.624 328.271 356.737 328.182 356.844L327.403 357.806C326.728 358.646 325.724 359.854 324.475 361.523C320.938 366.136 317.751 371.006 314.941 376.095C313.149 379.31 311.327 382.915 309.442 386.816C307.558 390.717 305.592 394.916 303.677 399.401C301.638 404.077 299.86 408.863 298.353 413.737C297.564 416.266 296.929 418.857 296.305 421.56L294.338 429.691C291.787 439.983 289.814 450.41 288.43 460.923" fill="#E0E0E0"/>
<path d="M297.984 413.481C297.762 413.083 297.587 412.66 297.462 412.221C297.155 411.412 296.755 410.173 296.284 408.73C295.342 405.76 294.175 401.613 292.905 397.046C291.635 392.479 290.417 388.352 289.423 385.413C288.932 383.939 288.522 382.741 288.236 381.932C288.063 381.511 287.93 381.076 287.836 380.631C288.083 381.013 288.286 381.422 288.44 381.85C288.799 382.638 289.26 383.816 289.802 385.27C290.898 388.198 292.178 392.305 293.458 396.892C294.738 401.48 295.813 405.494 296.673 408.607C297.073 410.02 297.4 411.208 297.697 412.16C297.831 412.591 297.927 413.033 297.984 413.481V413.481Z" fill="#E0E0E0"/>
<path d="M336.025 399.493C335.531 399.7 335.016 399.854 334.489 399.954C333.465 400.21 332.063 400.579 330.301 401.091C326.768 402.115 321.945 403.63 316.692 405.576C311.439 407.521 306.76 409.498 303.38 411.013C301.701 411.761 300.36 412.406 299.428 412.846C298.96 413.101 298.469 413.314 297.963 413.481C298.387 413.155 298.843 412.873 299.325 412.641C300.226 412.14 301.547 411.443 303.206 410.593C306.514 408.975 311.183 406.938 316.447 404.982C320.939 403.301 325.515 401.855 330.158 400.65C331.94 400.179 333.394 399.872 334.408 399.677C334.94 399.566 335.482 399.504 336.025 399.493V399.493Z" fill="#E0E0E0"/>
<path d="M288.276 460.012C288.145 459.877 288.028 459.73 287.928 459.571L287.017 458.271C286.228 457.124 285.133 455.455 283.812 453.366C281.149 449.188 277.668 443.3 273.91 436.746C270.151 430.193 266.742 424.284 264.151 420.065L261.079 415.058L260.26 413.696C260.151 413.545 260.065 413.38 260.004 413.204C260.004 413.204 260.137 413.338 260.352 413.635C260.567 413.932 260.905 414.413 261.263 414.945C262.052 416.082 263.147 417.751 264.479 419.85C267.131 424.028 270.623 429.906 274.381 436.46C278.139 443.013 281.549 448.922 284.129 453.151L287.201 458.148C287.529 458.691 287.805 459.172 288.02 459.51C288.13 459.663 288.216 459.832 288.276 460.012V460.012Z" fill="#E0E0E0"/>
<path d="M337.613 434.36C337.469 434.486 337.306 434.59 337.131 434.668L335.708 435.425L330.424 438.18C325.959 440.515 319.836 443.802 313.078 447.396C306.319 450.99 300.165 454.277 295.67 456.509C293.417 457.626 291.574 458.557 290.304 459.1L288.768 459.776C288.599 459.865 288.42 459.934 288.235 459.981C288.382 459.858 288.544 459.755 288.717 459.674L290.15 458.916L295.434 456.151C299.888 453.827 306.012 450.54 312.77 446.935C319.529 443.331 325.693 440.064 330.178 437.832C332.431 436.716 334.274 435.784 335.544 435.241L337.019 434.565C337.205 434.467 337.405 434.398 337.613 434.36V434.36Z" fill="#E0E0E0"/>
<path d="M157.081 253.348C157.081 253.348 144.916 255.037 151.746 281.682C158.576 308.326 164.372 322.068 164.372 322.068C164.372 322.068 165.284 328.1 160.42 327.916C155.556 327.731 145.633 323.82 142.264 329.032C138.783 334.479 141.834 341.033 149.432 347.904C157.03 354.775 173.23 370.432 174.684 371.855C176.138 373.279 177.203 376.207 173.865 376.607C170.527 377.006 146.852 374.231 146.217 385.546C145.582 396.861 169.984 412.508 172.616 414.269C175.247 416.031 175.688 417.403 175.073 418.939C174.459 420.475 166.615 418.785 159.846 418.263C153.078 417.741 145.131 418.345 145.305 424.899C145.48 431.452 158.3 448.041 195.676 460.37L213.381 464.947L226.457 452.065C252.774 422.789 255.652 402.033 252.549 396.257C249.446 390.482 242.309 393.912 236.636 397.722C230.963 401.531 225.024 406.938 223.754 405.914C222.484 404.89 222.157 403.476 223.57 400.64C224.983 397.804 238.387 372.101 232.202 362.598C226.017 353.096 206.848 367.247 203.776 368.548C200.704 369.848 200.151 366.756 200.704 364.831C201.257 362.906 207.503 341.279 210.719 331.5C213.934 321.72 213.32 314.532 207.585 311.542C202.056 308.664 195.41 317.02 191.273 319.601C187.136 322.181 184.944 316.529 184.944 316.529C184.944 316.529 183.142 301.732 175.831 275.21C168.52 248.689 156.856 253.44 156.856 253.44" fill="#EBEBEB"/>
<path d="M213.371 469.35C208.077 449.894 199.24 415.078 191.508 385.188C183.777 355.297 176.753 328.346 171.551 308.828C168.95 299.08 166.84 291.195 165.407 285.716C164.69 283.003 164.127 280.883 163.738 279.429L163.307 277.791C163.215 277.422 163.185 277.228 163.185 277.228C163.185 277.228 163.256 277.402 163.369 277.77C163.482 278.139 163.635 278.702 163.84 279.398C164.26 280.852 164.864 282.952 165.622 285.655C167.158 291.092 169.329 298.967 171.97 308.716C177.265 328.172 184.361 355.215 192.092 385.044C199.823 414.874 208.589 449.72 213.791 469.238" fill="#E0E0E0"/>
<path d="M155.924 335.114C156.333 335.283 156.724 335.492 157.092 335.739C157.819 336.169 158.863 336.824 160.164 337.644C162.713 339.292 166.185 341.658 169.963 344.33L179.609 351.212L182.548 353.26C182.919 353.49 183.262 353.761 183.572 354.068C183.159 353.902 182.765 353.692 182.395 353.444C181.668 353.014 180.623 352.358 179.323 351.529C176.793 349.86 173.353 347.433 169.574 344.771L159.877 337.961L156.928 335.913C156.566 335.683 156.229 335.416 155.924 335.114V335.114Z" fill="#E0E0E0"/>
<path d="M185.057 353.219C184.924 353.137 189.481 345.774 195.226 336.773C200.97 327.772 205.752 320.543 205.885 320.625C206.019 320.707 201.462 328.079 195.707 337.08C189.952 346.081 185.19 353.28 185.057 353.219Z" fill="#E0E0E0"/>
<path d="M194.867 399.585C195.151 399.232 195.477 398.915 195.84 398.643L198.595 396.227C200.919 394.179 204.124 391.352 207.544 388.096C210.964 384.84 213.975 381.798 216.125 379.576C217.149 378.552 217.989 377.641 218.675 376.945C218.985 376.601 219.328 376.289 219.699 376.013C219.472 376.404 219.197 376.765 218.88 377.088C218.327 377.754 217.498 378.696 216.453 379.843C214.405 382.147 211.415 385.249 207.974 388.506C204.534 391.762 201.298 394.568 198.902 396.534C197.693 397.558 196.71 398.295 196.014 398.817C195.661 399.115 195.277 399.372 194.867 399.585V399.585Z" fill="#E0E0E0"/>
<path d="M164.915 389.007C165.328 389.057 165.734 389.157 166.123 389.304L169.369 390.328C172.093 391.199 175.851 392.438 179.988 393.83C184.125 395.223 187.863 396.534 190.556 397.507L193.741 398.674C194.137 398.798 194.518 398.966 194.877 399.176C194.464 399.134 194.057 399.037 193.669 398.889L190.423 397.865C187.699 396.995 183.941 395.756 179.804 394.353C175.667 392.95 171.929 391.649 169.236 390.687L166.052 389.509C165.652 389.394 165.27 389.225 164.915 389.007V389.007Z" fill="#E0E0E0"/>
<path d="M168.376 431.043C168.903 431.121 169.421 431.252 169.922 431.432L174.08 432.701C177.582 433.797 182.405 435.343 187.73 437.094C193.055 438.845 197.857 440.443 201.329 441.641L205.425 443.075C205.934 443.238 206.431 443.44 206.909 443.679C206.379 443.601 205.858 443.471 205.353 443.29L201.195 442.02C197.693 440.924 192.87 439.378 187.546 437.627C182.221 435.876 177.418 434.268 173.957 433.08L169.861 431.636C169.349 431.484 168.852 431.285 168.376 431.043Z" fill="#E0E0E0"/>
<path d="M206.07 443.116C206.43 442.673 206.831 442.265 207.268 441.897L210.657 438.712C213.514 436.019 217.446 432.282 221.675 428.032C225.904 423.782 229.642 419.84 232.325 416.973L235.499 413.573C235.873 413.139 236.281 412.735 236.718 412.365C236.42 412.846 236.077 413.299 235.694 413.716C234.998 414.566 233.953 415.764 232.622 417.239C230.011 420.188 226.324 424.182 222.075 428.431C217.825 432.681 213.883 436.388 210.934 439.009C209.459 440.31 208.261 441.365 207.411 442.081C206.993 442.463 206.545 442.809 206.07 443.116V443.116Z" fill="#E0E0E0"/>
<path d="M104.243 94.4537L94.2489 91.3817C94.2489 91.3817 91.6275 99.7785 82.862 97.2083C81.1651 96.741 79.6553 95.7578 78.5417 94.3947C77.4281 93.0316 76.7658 91.3561 76.6463 89.6C76.5151 88.1191 76.7394 86.6283 77.3004 85.2515C77.8614 83.8748 78.7431 82.6518 79.8719 81.6845C82.4422 79.4112 86.9478 78.0288 93.3068 81.3158L100.342 58.7878L90.4601 55.7158L86.3641 68.9152C86.3641 68.9152 71.3728 68.1677 66.6112 83.4355C62.0544 98.048 74.0966 105.533 79.7081 107.284C83.9679 108.616 98.9286 112.138 104.243 94.4537Z" fill="#F5F5F5"/>
<path d="M91.7986 51.027L101.828 54.1565L104.75 44.7919L94.7207 41.6624L91.7986 51.027Z" fill="#F5F5F5"/>
<path d="M131.819 69.0176L135.823 67.9936C135.701 67.5389 135.671 67.0642 135.736 66.5979C135.801 66.1315 135.959 65.683 136.201 65.2789C136.443 64.8748 136.763 64.5235 137.143 64.2457C137.523 63.9679 137.956 63.7695 138.414 63.6621C139.081 63.4607 139.794 63.4718 140.455 63.6938C141.115 63.9158 141.69 64.3377 142.1 64.9011C142.448 65.3689 142.681 65.9125 142.779 66.4873C142.877 67.0621 142.837 67.652 142.664 68.2086C142.285 69.5091 141.066 70.9222 138.24 71.1577L140.626 80.1792L144.578 79.1552L143.186 73.8713C144.685 72.9673 145.845 71.5953 146.487 69.9668C147.129 68.3384 147.218 66.5439 146.739 64.8601C145.203 59.0029 139.571 59.0336 137.349 59.6173C135.629 60.0166 129.884 61.9725 131.819 69.0176Z" fill="#EBEBEB"/>
<path d="M145.973 80.4708L141.94 81.5518L142.949 85.3163L146.982 84.2354L145.973 80.4708Z" fill="#EBEBEB"/>
<path d="M462.377 172.657L466.268 174.06C466.431 173.619 466.681 173.215 467.003 172.873C467.324 172.53 467.711 172.255 468.141 172.065C468.57 171.874 469.033 171.771 469.503 171.762C469.973 171.752 470.44 171.837 470.876 172.012C471.532 172.222 472.106 172.631 472.52 173.181C472.934 173.731 473.169 174.395 473.19 175.084C473.215 175.671 473.099 176.256 472.853 176.79C472.608 177.324 472.239 177.792 471.777 178.156C470.753 179.005 468.92 179.466 466.463 178.053L463.278 186.829L467.128 188.221L468.992 183.101C470.74 183.21 472.475 182.741 473.93 181.768C475.386 180.795 476.482 179.371 477.051 177.715C479.099 172.022 474.481 168.858 472.3 168.069C470.63 167.414 464.794 165.765 462.377 172.657Z" fill="#EBEBEB"/>
<path d="M466.552 190L462.643 188.585L461.322 192.234L465.231 193.649L466.552 190Z" fill="#EBEBEB"/>
<path d="M49.4182 217.221L57.6101 214.047C57.6101 214.047 54.9478 207.135 62.085 204.237C63.451 203.659 64.9627 203.519 66.4115 203.836C67.8604 204.153 69.1752 204.912 70.1746 206.008C71.0249 206.92 71.648 208.019 71.9932 209.216C72.3384 210.414 72.396 211.676 72.1612 212.9C71.6492 215.747 69.3964 219.044 63.4674 220.181L70.6354 238.746L78.8274 235.612L74.629 224.737C74.629 224.737 84.869 217.385 80.0665 204.79C75.4073 192.748 63.4879 194.12 58.9106 195.891C55.3778 197.253 43.6633 202.752 49.4182 217.221Z" fill="#F5F5F5"/>
<path d="M80.3794 239.391L72.114 242.575L75.0886 250.296L83.354 247.112L80.3794 239.391Z" fill="#F5F5F5"/>
<path d="M465.582 248.463L459.745 250.706C459.745 250.706 461.629 255.611 456.571 257.659C455.602 258.064 454.533 258.161 453.507 257.937C452.481 257.714 451.549 257.181 450.836 256.41C450.234 255.764 449.793 254.985 449.549 254.136C449.305 253.287 449.266 252.392 449.434 251.525C449.802 249.477 451.4 247.183 455.578 246.405L450.56 233.206L444.785 235.428L447.754 243.139C445.652 244.747 444.137 247 443.441 249.554C442.746 252.107 442.908 254.818 443.904 257.27C447.191 265.8 455.608 264.837 458.885 263.578C461.363 262.605 469.658 258.714 465.582 248.463Z" fill="#F5F5F5"/>
<path d="M443.642 232.753L449.499 230.496L447.394 225.031L441.536 227.287L443.642 232.753Z" fill="#F5F5F5"/>
<path d="M482.069 474.9C482.069 475.054 380.846 475.167 256.01 475.167C131.175 475.167 29.9316 475.054 29.9316 474.9C29.9316 474.747 131.134 474.634 256.01 474.634C380.887 474.634 482.069 474.757 482.069 474.9Z" fill="#263238"/>
<path d="M94.8635 448.307C95.8875 444.539 93.3582 440.76 90.5934 438.067C87.8286 435.374 84.5211 432.896 83.0772 429.281C80.7425 423.424 83.8759 415.846 79.9028 410.962C77.5579 408.095 73.3595 407.132 71.2808 404.06C70.3196 402.367 69.684 400.509 69.4068 398.582C67.1973 388.853 62.4119 379.898 55.5521 372.654C55.0897 381.32 56.9678 389.95 60.9896 397.64C62.5972 400.712 64.5838 403.702 65.0856 407.132C65.956 412.692 62.843 418.396 64.2151 423.885C65.7819 430.131 72.7963 434.319 73.124 440.75C73.4107 446.188 68.6696 450.99 69.028 456.397C69.3151 458.712 70.1545 460.925 71.4753 462.848C75.6737 469.842 81.8587 474.655 91.218 474.501L102.687 474.9L94.8635 448.307Z" fill="#9AD0EC"/>
<g opacity="0.3">
<path opacity="0.3" d="M94.8635 448.307C95.8875 444.539 93.3582 440.76 90.5934 438.067C87.8286 435.374 84.5211 432.896 83.0772 429.281C80.7425 423.424 83.8759 415.846 79.9028 410.962C77.5579 408.095 73.3595 407.132 71.2808 404.06C70.3196 402.367 69.684 400.509 69.4068 398.582C67.1973 388.853 62.4119 379.898 55.5521 372.654C55.0897 381.32 56.9678 389.95 60.9896 397.64C62.5972 400.712 64.5838 403.702 65.0856 407.132C65.956 412.692 62.843 418.396 64.2151 423.885C65.7819 430.131 72.7963 434.319 73.124 440.75C73.4107 446.188 68.6696 450.99 69.028 456.397C69.3151 458.712 70.1545 460.925 71.4753 462.848C75.6737 469.842 81.8587 474.655 91.218 474.501L102.687 474.9L94.8635 448.307Z" fill="black"/>
</g>
<path d="M105.001 475.136C106.051 475.298 107.122 475.277 108.165 475.075C109.432 474.882 110.677 474.566 111.882 474.132C113.547 473.554 115.104 472.702 116.49 471.613C117.324 470.943 117.976 470.073 118.385 469.084C118.727 467.976 118.907 466.824 118.917 465.664C118.94 464.424 119.033 463.187 119.194 461.957C119.409 460.648 119.883 459.395 120.586 458.271C121.938 455.895 124.191 453.642 124.908 450.417C125.624 447.191 125.133 443.812 124.6 440.371C124.068 436.931 123.576 433.203 124.867 429.599C126.157 425.994 128.615 422.769 129.874 418.734C131.134 414.7 130.54 410.255 130.806 405.924C130.884 403.724 131.392 401.56 132.301 399.555C133.223 397.507 134.513 395.612 135.516 393.482C137.564 389.161 137.912 384.266 138.465 379.464C138.742 377.047 139.008 374.6 139.285 372.142C139.459 369.657 139.888 367.197 140.565 364.8C141.342 362.384 142.258 360.014 143.309 357.704C143.85 356.509 144.295 355.273 144.64 354.007C144.833 352.697 144.956 351.378 145.009 350.054C145.131 347.405 145.028 344.75 144.702 342.118C144.394 339.476 143.913 336.855 143.626 334.203C143.626 334.039 143.626 333.885 143.626 333.742L143.565 333.22L143.104 333.445C140.683 334.688 138.581 336.471 136.96 338.657C135.371 340.798 134.092 343.153 133.161 345.651C131.246 350.577 130.56 355.738 129.598 360.663C128.635 365.588 127.406 370.432 124.887 374.528C123.628 376.576 122.102 378.44 120.791 380.426C119.368 382.365 118.395 384.597 117.944 386.959C117.258 391.813 119.931 396.073 119.378 400.374C119.129 402.481 118.43 404.509 117.33 406.323C116.306 408.156 115.067 409.856 113.9 411.556C112.716 413.223 111.688 414.995 110.828 416.85C110.018 418.665 109.539 420.611 109.415 422.595C109.138 426.465 109.681 430.131 109.415 433.592C109.095 436.891 108.131 440.095 106.578 443.023C105.196 445.839 103.649 448.389 102.359 450.867C101.714 452.096 101.11 453.304 100.618 454.523C100.153 455.693 99.8101 456.908 99.5944 458.148C99.2516 460.314 99.224 462.518 99.5124 464.691C99.8133 467.722 100.947 470.611 102.789 473.037C103.071 473.403 103.383 473.746 103.721 474.061C103.947 474.298 104.198 474.511 104.469 474.696C104.899 475.013 105.124 475.156 105.124 475.156C104.305 474.509 103.56 473.775 102.902 472.965C101.144 470.531 100.082 467.663 99.8299 464.671C99.5691 462.525 99.6174 460.352 99.9732 458.22C100.189 457.009 100.532 455.825 100.997 454.687C101.516 453.455 102.101 452.252 102.748 451.082C104.049 448.625 105.605 446.085 107.018 443.249C108.618 440.275 109.613 437.014 109.947 433.654C110.254 430.121 109.722 426.435 110.008 422.666C110.14 420.746 110.608 418.864 111.391 417.106C112.257 415.29 113.285 413.556 114.463 411.924C115.63 410.225 116.869 408.525 117.934 406.651C119.103 404.768 119.851 402.655 120.126 400.456C120.679 395.878 118.026 391.598 118.712 387.082C119.161 384.823 120.102 382.691 121.467 380.836C122.767 378.88 124.303 377.016 125.563 374.917C128.174 370.708 129.434 365.773 130.386 360.827C131.338 355.881 132.045 350.761 133.929 345.928C134.835 343.499 136.08 341.21 137.626 339.128C139.185 337.03 141.207 335.32 143.534 334.131L143.012 333.834C143.012 333.988 143.012 334.141 143.063 334.305C143.35 336.988 143.831 339.61 144.087 342.231C144.411 344.822 144.51 347.436 144.384 350.044C144.332 351.326 144.216 352.604 144.036 353.874C143.705 355.099 143.273 356.294 142.746 357.448C141.689 359.783 140.766 362.176 139.981 364.616C139.298 367.05 138.866 369.548 138.691 372.07C138.424 374.538 138.148 376.986 137.882 379.402C137.329 384.225 136.97 389.038 135.015 393.206C133.991 395.254 132.762 397.21 131.809 399.299C130.872 401.379 130.35 403.623 130.273 405.903C130.017 410.327 130.591 414.659 129.393 418.57C128.195 422.482 125.706 425.738 124.447 429.435C123.187 433.132 123.648 437.043 124.201 440.474C124.754 443.904 125.307 447.283 124.57 450.324C123.832 453.366 121.723 455.639 120.351 458.076C119.627 459.25 119.144 460.555 118.927 461.916C118.773 463.16 118.691 464.411 118.682 465.664C118.683 466.795 118.518 467.92 118.19 469.002C117.811 469.94 117.202 470.768 116.419 471.409C115.07 472.496 113.551 473.354 111.923 473.948C110.734 474.407 109.503 474.75 108.247 474.972C107.48 475.111 106.702 475.187 105.923 475.197C105.278 475.136 105.001 475.136 105.001 475.136Z" fill="#263238"/>
<path d="M141.23 340.07C141.175 340.18 141.137 340.298 141.117 340.419L140.872 341.443C140.646 342.354 140.37 343.716 139.94 345.416C139.51 347.116 138.455 349.041 137.564 351.406C136.521 354.069 135.612 356.783 134.84 359.537C133.96 362.609 133.192 365.988 132.373 369.633C131.676 373.516 130.443 377.283 128.707 380.826C127.765 382.689 126.659 384.573 125.87 386.642C125.043 388.754 124.489 390.963 124.221 393.216C123.639 397.881 122.812 402.513 121.743 407.091C119.45 416.481 117.258 425.431 115.261 433.582C113.265 441.733 111.381 449.024 109.824 455.189C108.268 461.353 107.09 466.268 106.23 469.781C105.83 471.46 105.513 472.781 105.288 473.754C105.196 474.173 105.114 474.511 105.052 474.778C105.041 474.897 105.041 475.017 105.052 475.136C105.112 475.03 105.156 474.916 105.185 474.798C105.257 474.522 105.359 474.194 105.482 473.774C105.738 472.822 106.097 471.501 106.557 469.832C107.479 466.35 108.78 461.404 110.387 455.311C111.995 449.219 113.869 441.846 115.968 433.746C118.067 425.646 120.197 416.635 122.511 407.235C123.573 402.644 124.38 397.998 124.928 393.318C125.19 391.12 125.726 388.963 126.525 386.898C127.334 384.85 128.369 383.017 129.311 381.133C131.359 377.395 132.168 373.381 132.977 369.766C133.786 366.152 134.502 362.732 135.342 359.68C136.182 356.629 137.062 353.905 137.943 351.549C138.824 349.194 139.797 347.249 140.216 345.487C140.636 343.726 140.831 342.415 141.015 341.473C141.083 341.05 141.145 340.709 141.199 340.449C141.23 340.193 141.251 340.07 141.23 340.07Z" fill="#263238"/>
<path d="M107.029 475.187C114.514 470.733 116.664 457.216 113.541 449.085C110.418 440.955 104.95 433.521 104.11 424.847C103.455 418.181 105.646 411.341 104.11 404.828C102.011 396.032 93.4298 389.222 93.5322 380.18C93.5834 375.112 96.4711 370.34 96.2356 365.271C95.9591 359.066 91.1872 354.13 88.2381 348.662C83.712 340.275 83.4151 330.373 81.8688 321.014C80.3226 311.654 76.7488 301.558 68.4135 296.94C67.1847 304.916 65.0855 310.385 65.7408 321.188C65.9866 325.069 70.4922 332.452 71.1066 341.002C71.4752 346.122 71.721 351.181 72.0384 356.26C72.3559 361.339 72.6631 366.254 74.4346 370.883C75.7965 374.436 77.9776 377.661 78.9914 381.327C80.8858 388.219 78.3872 395.663 79.9232 402.668C81.2237 408.586 85.3197 413.675 86.1594 419.676C87.3268 428.104 81.8791 436.869 84.6644 444.908C86.057 448.901 89.3338 452.075 90.2656 456.223C90.9927 459.418 90.2042 462.807 90.8596 466.012C91.8836 471.194 101.775 475.228 107.049 474.89" fill="#9AD0EC"/>
<path d="M70.4617 304.814C70.4477 304.964 70.4477 305.115 70.4617 305.265C70.4617 305.603 70.5641 306.033 70.6255 306.575C70.7996 307.732 70.9941 309.422 71.3833 311.613C71.7724 313.805 72.9397 316.283 73.8409 319.273C74.742 322.263 75.7455 325.683 76.5852 329.513C77.4249 333.343 78.1621 337.613 78.9097 342.19C79.6572 346.767 80.4764 351.754 82.7497 356.526C83.7737 358.912 84.982 361.308 85.8217 363.868C86.682 366.489 87.2118 369.206 87.3986 371.958C87.8173 377.796 88.5522 383.607 89.6002 389.366C91.894 401.183 94.0751 412.436 96.0617 422.687C98.0482 432.937 100.045 442.081 101.642 449.823C103.24 457.564 104.551 463.749 105.462 468.111L106.486 473.078C106.609 473.61 106.701 474.03 106.783 474.358C106.811 474.508 106.852 474.655 106.906 474.798C106.924 474.648 106.924 474.497 106.906 474.348C106.844 474.01 106.773 473.59 106.681 473.047C106.455 471.859 106.138 470.18 105.738 468.05C104.878 463.677 103.69 457.431 102.144 449.72C100.598 442.01 98.765 432.763 96.7273 422.554C94.6895 412.344 92.6313 401.05 90.3273 389.243C89.2786 383.484 88.5402 377.673 88.1154 371.835C87.9205 369.026 87.3735 366.254 86.4873 363.581C85.5759 360.98 84.3778 358.574 83.3231 356.198C81.0703 351.498 80.2511 346.593 79.4729 342.036C78.6946 337.48 77.9471 333.199 77.0562 329.349C76.1653 325.499 75.1925 322.058 74.189 319.109C73.1855 316.16 72.0693 313.661 71.6188 311.521C71.1682 309.381 70.9532 307.661 70.7381 306.524C70.6357 305.992 70.5538 305.562 70.4924 305.224C70.4902 305.087 70.48 304.95 70.4617 304.814V304.814Z" fill="#263238"/>
<path d="M431.585 90.9005H427.489C427.492 91.365 427.402 91.8255 427.223 92.2544C427.045 92.6834 426.782 93.0722 426.451 93.3979C426.12 93.7235 425.726 93.9793 425.294 94.1501C424.862 94.3209 424.4 94.4033 423.936 94.3923C423.25 94.4169 422.574 94.2269 422.001 93.8488C421.428 93.4706 420.988 92.9233 420.741 92.2829C420.525 91.7496 420.439 91.1729 420.489 90.5998C420.538 90.0268 420.723 89.4736 421.028 88.9856C421.724 87.8387 423.24 86.8045 425.984 87.2858V78.0698H421.96V83.456C420.308 83.9422 418.862 84.9567 417.843 86.3441C416.823 87.7314 416.288 89.4148 416.317 91.136C416.317 97.0957 421.663 98.4781 423.956 98.4781C425.707 98.519 431.667 98.0992 431.585 90.9005Z" fill="#9AD0EC"/>
<path d="M421.929 76.2061H426.015V72.3865H421.929V76.2061Z" fill="#9AD0EC"/>
<path d="M453.919 85.4528C453.932 85.279 453.932 85.1044 453.919 84.9305C453.919 84.5619 453.919 84.0601 453.919 83.415C453.919 83.0873 453.919 82.7085 453.867 82.2989C453.816 81.8893 453.755 81.4387 453.683 80.9677C453.611 80.4966 453.54 79.9437 453.458 79.4009L453.028 77.6601C452.267 74.6622 451.022 71.8087 449.341 69.2121C446.901 65.3668 443.612 62.1322 439.726 59.757C435.84 57.3818 431.461 55.9293 426.926 55.511C425.564 55.3907 424.196 55.3634 422.83 55.4291C422.144 55.4291 421.437 55.4291 420.782 55.5622L418.673 55.8797C415.778 56.4176 412.977 57.3731 410.358 58.7161C407.623 60.1633 405.109 61.9944 402.893 64.1536C400.624 66.4533 398.727 69.0928 397.271 71.9769C395.704 74.9503 394.678 78.1782 394.24 81.5104C394.112 82.3546 394.04 83.2064 394.025 84.0601C393.957 84.9151 393.939 85.7734 393.974 86.6304C394.196 92.1236 395.914 97.4519 398.94 102.042V101.724C397.517 105.277 396.114 108.769 394.742 112.169L394.496 112.794L395.141 112.609L406.303 109.537L406.036 109.476C409.795 112.322 414.175 114.238 418.816 115.067C420.969 115.468 423.163 115.602 425.349 115.466C426.403 115.451 427.454 115.351 428.493 115.169L430.018 114.934C430.52 114.842 431.042 114.688 431.493 114.575C438.371 112.832 444.404 108.698 448.512 102.912C450.044 100.781 451.274 98.4477 452.168 95.9795C452.362 95.4368 452.546 94.9555 452.721 94.423C452.895 93.8905 452.987 93.399 453.099 92.9382C453.212 92.4774 453.335 92.0064 453.437 91.5763C453.54 91.1462 453.57 90.7264 453.632 90.327C453.724 89.5385 453.867 88.8422 453.898 88.279C453.929 87.7158 453.898 87.1731 453.898 86.743C453.898 86.3129 453.898 86.0467 453.898 85.8112C453.898 85.5757 453.898 85.4937 453.898 85.4937C453.882 85.599 453.882 85.706 453.898 85.8112C453.898 86.0467 453.898 86.3539 453.826 86.743C453.755 87.1321 453.765 87.6749 453.724 88.2688C453.683 88.8627 453.529 89.559 453.407 90.3168C452.43 95.9842 449.829 101.246 445.918 105.463C442.008 109.681 436.958 112.672 431.38 114.074C430.899 114.186 430.418 114.33 429.926 114.422L428.421 114.647C427.405 114.817 426.379 114.909 425.349 114.924C423.203 115.037 421.052 114.896 418.939 114.504C414.406 113.67 410.131 111.786 406.456 109.005L406.333 108.902H406.18L395.008 111.974L395.397 112.415L399.606 101.98L399.667 101.816L399.575 101.663C397.558 98.612 396.128 95.2123 395.356 91.6377C395.002 89.9793 394.79 88.2939 394.721 86.5997C394.687 85.7631 394.704 84.9253 394.772 84.0909C394.779 83.2575 394.847 82.4257 394.977 81.6025C395.37 78.3485 396.338 75.19 397.834 72.2739C399.257 69.4553 401.105 66.872 403.313 64.6144C405.481 62.4946 407.944 60.6979 410.624 59.2793C413.185 57.9472 415.928 56.9984 418.765 56.4633L420.813 56.1459C421.499 56.0435 422.185 56.0537 422.861 56.0025C424.195 55.939 425.533 55.963 426.865 56.0742C431.325 56.4647 435.638 57.8665 439.476 60.1731C443.314 62.4797 446.576 65.6305 449.014 69.3862C450.703 71.9375 451.969 74.7454 452.761 77.7011L453.222 79.4214C453.314 79.9641 453.396 80.4454 453.478 80.9574C453.56 81.4694 453.622 81.879 453.693 82.2886C453.765 82.6982 453.745 83.0669 453.775 83.3945C453.775 84.0294 453.857 84.5312 453.888 84.8998C453.868 85.0846 453.879 85.2713 453.919 85.4528V85.4528Z" fill="#263238"/>
<path d="M148.552 206.213H207.688C207.688 206.213 207.688 156.559 259.287 155.679C286.085 155.208 299.981 172.769 305.633 186.214C312.187 201.83 310.2 219.628 301.414 234.117C291.389 250.655 269.783 267.274 229.929 260.25L229.55 392.008H288.031V313.897C288.031 313.897 370.043 292.7 370.043 202.281C370.043 115.804 300.114 97.1264 262.523 95.9181C241.613 95.2525 234.035 94.3514 208.169 98.0275C175.206 102.738 147.855 141.015 148.552 206.213Z" fill="#9AD0EC"/>
<path d="M288.737 419.471H229.386V474.9H288.737V419.471Z" fill="#9AD0EC"/>
<path opacity="0.1" d="M288.737 419.471H229.386V474.9H288.737V419.471Z" fill="black"/>
<path opacity="0.1" d="M148.552 206.213H207.688C207.688 206.213 207.688 156.559 259.287 155.679C286.085 155.208 299.981 172.769 305.633 186.214C312.187 201.83 310.2 219.628 301.414 234.117C291.389 250.655 269.783 267.274 229.929 260.25L229.55 392.008H288.031V313.897C288.031 313.897 370.043 292.7 370.043 202.281C370.043 115.804 300.114 97.1264 262.523 95.9181C241.613 95.2525 234.035 94.3514 208.169 98.0275C175.206 102.738 147.855 141.015 148.552 206.213Z" fill="black"/>
<path d="M124.047 206.213H183.194C183.194 206.213 183.194 156.559 234.793 155.679C261.591 155.208 275.487 172.769 281.129 186.214C287.693 201.83 285.706 219.627 276.92 234.117C266.895 250.655 244.91 265.687 205.056 258.693V392.008H263.537V313.897C263.537 313.897 345.549 292.7 345.549 202.281C345.549 115.804 267.991 95.7235 234.803 95.7235C209.418 95.7542 122.931 101.888 124.047 206.213Z" fill="#9AD0EC"/>
<path opacity="0.3" d="M124.047 206.213H183.194C183.194 206.213 183.194 156.559 234.793 155.679C261.591 155.208 275.487 172.769 281.129 186.214C287.693 201.83 285.706 219.627 276.92 234.117C266.895 250.655 244.91 265.687 205.056 258.693V392.008H263.537V313.897C263.537 313.897 345.549 292.7 345.549 202.281C345.549 115.804 267.991 95.7235 234.803 95.7235C209.418 95.7542 122.931 101.888 124.047 206.213Z" fill="black"/>
<path d="M264.243 419.471H204.892V474.9H264.243V419.471Z" fill="#9AD0EC"/>
<path opacity="0.3" d="M264.243 419.471H204.892V474.9H264.243V419.471Z" fill="black"/>
<path d="M241.469 155.945C241.176 155.97 240.882 155.97 240.589 155.945C240.005 155.945 239.165 155.75 238.07 155.74C234.972 155.588 231.866 155.718 228.792 156.129C224.233 156.706 219.748 157.76 215.409 159.273C212.851 160.167 210.359 161.241 207.954 162.488C205.353 163.788 202.905 165.371 200.653 167.209C198.416 169.064 196.412 171.181 194.683 173.517C193.044 175.676 191.549 177.94 190.208 180.296C187.968 184.307 186.192 188.56 184.914 192.973C184.047 195.951 183.451 199.001 183.132 202.086C183.009 203.172 182.978 204.032 182.948 204.605C182.948 204.901 182.921 205.196 182.866 205.486C182.839 205.193 182.839 204.898 182.866 204.605C182.866 204.022 182.866 203.162 182.958 202.066C183.193 198.947 183.739 195.86 184.586 192.85C185.818 188.386 187.571 184.083 189.809 180.029C191.153 177.648 192.654 175.36 194.304 173.179C196.047 170.805 198.076 168.656 200.345 166.779C202.625 164.916 205.105 163.312 207.739 161.997C210.159 160.727 212.668 159.632 215.245 158.72C219.623 157.213 224.152 156.183 228.751 155.648C231.846 155.268 234.971 155.196 238.08 155.433C238.925 155.487 239.766 155.59 240.599 155.74C240.893 155.788 241.184 155.856 241.469 155.945Z" fill="#263238"/>
<path d="M330.578 145.408C330.578 145.408 330.506 145.336 330.383 145.183C330.261 145.029 330.076 144.763 329.871 144.466L327.916 141.701C327.496 141.107 327.045 140.421 326.513 139.715L324.669 137.472L322.56 134.881C321.792 133.98 320.891 133.11 319.99 132.157C319.089 131.205 318.167 130.191 317.123 129.219C316.078 128.246 314.962 127.252 313.815 126.228C313.242 125.716 312.678 125.204 312.064 124.662L310.159 123.156C308.859 122.132 307.569 121.108 306.166 120.084C300.051 115.71 293.565 111.879 286.781 108.636L281.385 106.199L276.029 104.151C274.278 103.424 272.497 102.912 270.776 102.339C269.056 101.765 267.377 101.181 265.656 100.782L260.762 99.5021C259.174 99.0822 257.597 98.8262 256.092 98.4781C254.587 98.1299 253.133 97.8227 251.709 97.6486L247.613 97.0547C245.023 96.6144 242.647 96.5222 240.579 96.3174C239.555 96.2355 238.531 96.1229 237.681 96.0819L235.244 96.0205L231.864 95.9078H230.984H230.687C230.785 95.8925 230.885 95.8925 230.984 95.9078H231.864H235.244H237.691C238.582 95.9078 239.555 96.0307 240.599 96.1024C242.647 96.2765 245.064 96.3481 247.654 96.768L251.75 97.3209C253.174 97.4848 254.628 97.8534 256.143 98.1299C257.659 98.4064 259.215 98.6931 260.844 99.1539L265.759 100.424C267.459 100.813 269.138 101.448 270.879 101.97C272.62 102.492 274.391 102.994 276.142 103.772L281.528 105.82L286.956 108.268C293.775 111.518 300.286 115.377 306.412 119.798C307.825 120.822 309.115 121.917 310.415 122.931L312.32 124.314C312.934 124.826 313.498 125.338 314.071 125.891L317.368 128.963C318.392 129.987 319.314 131.011 320.225 131.942C321.137 132.874 322.007 133.786 322.775 134.697L324.823 137.308L326.646 139.581C327.168 140.298 327.608 140.995 328.018 141.629C328.817 142.827 329.441 143.77 329.882 144.445L330.363 145.193C330.444 145.255 330.516 145.327 330.578 145.408V145.408Z" fill="#263238"/>
<path d="M324.413 272.384C324.292 272.606 324.144 272.812 323.973 272.998L322.56 274.668C321.976 275.415 321.239 276.306 320.328 277.299C319.416 278.293 318.444 279.46 317.256 280.668C316.068 281.877 314.798 283.228 313.354 284.59C311.91 285.952 310.344 287.386 308.675 288.881C301.354 295.271 293.328 300.805 284.754 305.377C282.767 306.401 280.893 307.425 279.081 308.214C277.269 309.002 275.579 309.811 274.022 310.467C272.466 311.122 271.032 311.665 269.783 312.146C268.534 312.627 267.438 313.016 266.537 313.303L264.489 313.969C264.251 314.063 264.004 314.132 263.752 314.173C263.972 314.047 264.206 313.944 264.448 313.866L266.496 313.108C267.387 312.791 268.462 312.381 269.701 311.869C270.94 311.357 272.374 310.845 273.91 310.118C275.446 309.391 277.146 308.705 278.917 307.814C280.689 306.924 282.583 305.981 284.559 304.947C288.461 302.797 292.669 300.278 296.919 297.37C301.169 294.461 304.988 291.4 308.388 288.512C310.057 287.037 311.654 285.655 313.078 284.262C314.501 282.87 315.832 281.61 317.01 280.402C318.188 279.194 319.222 278.077 320.143 277.094C321.065 276.111 321.823 275.251 322.437 274.534L323.871 272.906C324.037 272.718 324.219 272.543 324.413 272.384V272.384Z" fill="#263238"/>
<path d="M262.502 387.359C262.349 387.359 262.226 370.913 262.226 350.628C262.226 330.342 262.349 313.887 262.502 313.887C262.656 313.887 262.769 330.332 262.769 350.628C262.769 370.924 262.646 387.359 262.502 387.359Z" fill="#263238"/>
<path d="M264.755 471.142C264.602 471.142 264.489 459.602 264.489 445.368C264.489 431.135 264.602 419.584 264.755 419.584C264.909 419.584 265.021 431.124 265.021 445.368C265.021 459.612 264.899 471.142 264.755 471.142Z" fill="#263238"/>
<path d="M322.97 198.359C321.946 200.407 325.765 202.086 327.967 202.752C330.213 203.303 332.537 203.463 334.838 203.223C337.91 203.059 341.053 202.772 343.706 201.257C346.028 199.818 347.885 197.738 349.051 195.267C350.201 192.803 351.109 190.235 351.764 187.597C351.764 187.597 327.567 189.174 322.97 198.359Z" fill="#9AD0EC"/>
<g opacity="0.4">
<path opacity="0.4" d="M322.97 198.359C321.946 200.407 325.765 202.086 327.967 202.752C330.213 203.303 332.537 203.463 334.838 203.223C337.91 203.059 341.053 202.772 343.706 201.257C346.028 199.818 347.885 197.738 349.051 195.267C350.201 192.803 351.109 190.235 351.764 187.597C351.764 187.597 327.567 189.174 322.97 198.359Z" fill="black"/>
</g>
<path d="M391.311 191.805C395.3 194.635 400.081 196.133 404.972 196.086C407.316 196.216 409.627 195.488 411.474 194.038C412.262 193.311 412.856 192.389 413.665 191.693C414.218 191.222 414.863 190.863 415.386 190.362C415.661 190.124 415.874 189.822 416.004 189.483C416.135 189.143 416.179 188.777 416.133 188.416C415.931 187.527 415.433 186.732 414.72 186.163C411.945 184.586 408.627 184.648 405.432 184.719C402.235 184.858 399.076 185.476 396.063 186.552C393.585 187.392 390.994 188.6 389.734 190.853" fill="#9AD0EC"/>
<g opacity="0.4">
<path opacity="0.4" d="M416.133 188.416C415.771 187.552 415.134 186.832 414.321 186.368C411.546 184.791 408.627 184.648 405.432 184.719C402.235 184.858 399.076 185.476 396.063 186.552C393.585 187.392 390.994 188.6 389.734 190.853L391.311 191.805C395.3 194.635 400.081 196.133 404.972 196.086C407.316 196.216 409.627 195.488 411.474 194.038C412.262 193.311 412.856 192.389 413.665 191.693C414.218 191.222 414.863 190.863 415.386 190.362C415.661 190.124 415.874 189.822 416.004 189.483C416.135 189.143 416.179 188.777 416.133 188.416V188.416Z" fill="black"/>
</g>
<path d="M344.064 228.557L395.11 229.233C395.214 229.232 395.317 229.208 395.409 229.161C395.502 229.114 395.582 229.046 395.644 228.962C395.706 228.879 395.747 228.782 395.765 228.679C395.782 228.577 395.776 228.472 395.745 228.372L389.755 209.695C389.755 209.695 390.635 200.356 391.854 189.133C393.707 172.083 396.175 150.651 396.206 150.712C392.714 140.923 372.111 139.264 372.111 139.264L348.631 140.657L347.812 139.274L341.053 142.418C339.579 143.104 338.162 143.905 336.814 144.814C332.349 147.794 321.597 154.644 319.631 162.273C315.095 179.937 322.775 199.649 322.775 199.649L327.711 195.789C328.954 194.831 330.261 193.958 331.622 193.178L341.514 219.689C340.925 220.06 340.427 220.558 340.055 221.146C339.683 221.734 339.447 222.398 339.364 223.089C339.282 225.239 340.388 227.819 344.064 228.557" fill="#9AD0EC"/>
<g opacity="0.3">
<path opacity="0.3" d="M365.967 197.304C367.585 188.6 366.735 179.651 365.865 170.844C363.039 178.012 363.141 186.204 360.141 193.311C359.773 194.061 359.504 194.856 359.342 195.676C359.264 196.088 359.284 196.512 359.402 196.914C359.519 197.317 359.73 197.685 360.018 197.99C360.837 198.738 362.066 198.328 363.151 198.205C364.123 198.02 365.069 197.717 365.967 197.304" fill="black"/>
</g>
<g opacity="0.4">
<path opacity="0.4" d="M347.136 217.457C351.232 218.88 355.594 216.228 359.926 215.757C362.793 215.45 365.66 216.105 368.507 216.566C374.263 217.497 380.119 217.642 385.915 216.996C386.804 216.947 387.674 216.721 388.475 216.33C388.888 216.048 389.227 215.669 389.461 215.227C389.694 214.784 389.816 214.291 389.816 213.791C380.17 212.767 370.534 212.214 360.888 211.22C358.487 210.811 356.028 210.891 353.659 211.456C350.751 212.357 348.539 214.641 346.491 216.904" fill="black"/>
</g>
<path d="M414.658 185.057C410.491 175.667 395.796 149.699 395.796 149.699L384.42 163.963L387.072 191.969C387.072 191.969 393.083 185.262 409.887 185.129C411.108 185.178 412.303 185.499 413.383 186.07C414.464 186.64 415.404 187.445 416.133 188.426L414.658 185.057Z" fill="#9AD0EC"/>
<path d="M346.347 180.091C345.536 178.1 344.892 176.045 344.422 173.947C343.786 171.903 343.32 169.811 343.03 167.69C343.829 169.684 344.47 171.739 344.944 173.834C345.581 175.878 346.05 177.971 346.347 180.091V180.091Z" fill="#263238"/>
<path d="M383.56 162.068C383.93 162.33 384.273 162.629 384.584 162.959C385.488 163.833 386.336 164.763 387.123 165.745C389.771 168.981 391.632 172.788 392.561 176.865C393.043 179.119 393.15 181.437 392.878 183.726C392.622 185.825 392.223 187.668 391.956 189.225C391.69 190.781 391.526 192.051 391.444 192.932C391.442 193.389 391.394 193.846 391.301 194.294C391.229 193.837 391.208 193.373 391.24 192.911C391.285 191.656 391.401 190.405 391.588 189.164C391.803 187.597 392.161 185.733 392.397 183.675C392.634 181.438 392.513 179.177 392.038 176.978C391.121 172.977 389.343 169.224 386.826 165.98C384.952 163.461 383.478 162.15 383.56 162.068Z" fill="#263238"/>
<path d="M373.135 226.304C372.78 226.463 372.404 226.573 372.019 226.632C371.582 226.747 371.137 226.833 370.688 226.888C370.166 226.959 369.572 227.072 368.906 227.103C367.346 227.246 365.776 227.246 364.216 227.103C362.307 226.907 360.422 226.529 358.584 225.976C356.756 225.389 354.987 224.631 353.3 223.713C351.933 222.95 350.634 222.07 349.419 221.082C348.887 220.672 348.457 220.242 348.068 219.884C347.732 219.581 347.414 219.26 347.115 218.921C346.831 218.657 346.586 218.354 346.388 218.02C346.46 217.948 347.556 219.177 349.655 220.785C350.881 221.718 352.179 222.553 353.536 223.283C355.204 224.159 356.944 224.889 358.738 225.464C360.544 226.008 362.394 226.392 364.267 226.611C365.798 226.776 367.338 226.824 368.875 226.755C371.507 226.611 373.115 226.222 373.135 226.304Z" fill="#263238"/>
<path d="M388.895 220.488C389.136 220.951 389.272 221.461 389.294 221.983C389.457 223.231 389.363 224.5 389.018 225.71C388.666 226.948 387.953 228.054 386.97 228.884C386.222 229.509 385.649 229.704 385.618 229.652C385.587 229.601 386.068 229.263 386.714 228.628C387.542 227.765 388.143 226.709 388.465 225.556C389.284 222.853 388.7 220.498 388.895 220.488Z" fill="#263238"/>
<path d="M386.119 224.092C386.342 225.145 386.253 226.24 385.864 227.244C385.475 228.248 384.802 229.116 383.928 229.745C383.815 229.632 384.768 228.618 385.362 227.052C385.956 225.485 385.966 224.102 386.119 224.092Z" fill="#263238"/>
<path d="M376.986 190.403C376.443 191.32 375.834 192.196 375.163 193.024C374.633 193.949 374.034 194.832 373.371 195.666C373.568 194.585 374.032 193.571 374.723 192.717C375.268 191.766 376.047 190.969 376.986 190.403V190.403Z" fill="#263238"/>
<path d="M341.944 165.601C341.164 165.143 340.409 164.644 339.681 164.106C336.039 161.714 331.906 160.17 327.588 159.59C326.684 159.525 325.784 159.405 324.895 159.232C325.802 159.107 326.722 159.107 327.629 159.232C332.065 159.611 336.314 161.193 339.917 163.809C340.672 164.31 341.355 164.913 341.944 165.601Z" fill="#263238"/>
<path d="M395.796 149.361C393.964 150.836 392.252 152.456 390.676 154.204C389.226 156.07 387.928 158.049 386.795 160.123C386.917 159.425 387.156 158.754 387.502 158.136C388.243 156.601 389.172 155.163 390.267 153.856C391.365 152.551 392.624 151.392 394.015 150.405C394.544 149.957 395.147 149.604 395.796 149.361Z" fill="#263238"/>
<path d="M374.722 140.923C374.816 141.071 374.891 141.229 374.948 141.394C375.147 141.858 375.308 142.337 375.429 142.827C375.861 144.652 375.861 146.553 375.429 148.378C374.792 151.102 373.333 153.564 371.251 155.433C368.623 157.659 365.274 158.853 361.83 158.792C358.383 158.804 355.025 157.701 352.256 155.648C350.049 153.963 348.259 151.795 347.023 149.309C346.19 147.645 345.604 145.869 345.282 144.036C345.188 143.542 345.127 143.043 345.098 142.541C345.069 142.364 345.069 142.185 345.098 142.008C345.098 142.008 345.211 142.725 345.497 143.995C345.896 145.776 346.526 147.497 347.371 149.115C348.62 151.525 350.395 153.625 352.563 155.259C355.231 157.235 358.459 158.311 361.779 158.331C365.098 158.392 368.329 157.258 370.882 155.136C372.894 153.336 374.321 150.975 374.978 148.357C375.434 146.59 375.497 144.744 375.163 142.95C374.968 141.599 374.661 140.943 374.722 140.923Z" fill="#263238"/>
<g opacity="0.3">
<path opacity="0.3" d="M378.307 192.215C378.307 191.703 378.225 191.099 377.774 190.843C377.631 190.771 377.473 190.733 377.313 190.733C377.153 190.733 376.995 190.771 376.852 190.843C376.566 190.998 376.312 191.206 376.105 191.457C374.901 192.71 373.97 194.199 373.371 195.83L378.388 195.389C378.358 194.355 378.337 193.27 378.307 192.215Z" fill="black"/>
</g>
<g opacity="0.3">
<path opacity="0.3" d="M394.967 181.658C394.463 178.786 393.205 176.101 391.322 173.875C393.492 180.961 392.765 184.965 391.547 189.819L391.813 189.143C393.216 186.307 395.346 184.525 394.967 181.658Z" fill="black"/>
</g>
<path d="M384.942 419.697L381.88 465.623L361.912 465.388L358.769 417.638L384.942 419.697Z" fill="#FFBE9D"/>
<path d="M382.444 459.581V460.913C382.444 460.913 404.972 469.965 405.187 474.225L360.448 473.979L361.144 459.1C367.811 462.223 374.784 462.612 382.444 459.581Z" fill="#9AD0EC"/>
<path d="M365.68 463.872C365.256 464 364.893 464.279 364.659 464.656C364.425 465.033 364.337 465.483 364.411 465.92C364.52 466.357 364.795 466.734 365.177 466.973C365.558 467.212 366.018 467.293 366.459 467.2C366.914 467.064 367.303 466.763 367.549 466.356C367.795 465.949 367.881 465.465 367.79 464.998C367.628 464.556 367.3 464.194 366.875 463.99C366.451 463.785 365.964 463.754 365.517 463.903" fill="white"/>
<path d="M360.448 473.979L360.612 470.405L403.456 471.962C403.456 471.962 405.443 472.842 405.207 474.235L360.448 473.979Z" fill="#263238"/>
<path d="M382.607 461.036C382.607 461.251 381.501 461.343 380.426 462.06C379.351 462.776 378.767 463.667 378.573 463.585C378.378 463.503 378.706 462.234 380.027 461.414C381.348 460.595 382.658 460.8 382.607 461.036Z" fill="#263238"/>
<path d="M387.287 463.002C387.338 463.217 386.386 463.575 385.638 464.497C384.891 465.418 384.676 466.391 384.45 466.381C384.225 466.371 384.102 465.132 385.055 464.015C386.007 462.899 387.277 462.848 387.287 463.002Z" fill="#263238"/>
<path d="M389.919 468.634C389.714 468.634 389.417 467.61 389.99 466.391C390.564 465.172 391.577 464.732 391.67 464.906C391.762 465.08 391.127 465.725 390.646 466.719C390.164 467.712 390.144 468.613 389.919 468.634Z" fill="#263238"/>
<path d="M381.297 83.8144C382.454 80.9472 381.051 77.4758 378.562 75.6224C375.94 73.8961 372.742 73.2742 369.664 73.8918C366.627 74.5286 363.687 75.5614 360.919 76.9638C359.632 75.6658 358.009 74.751 356.232 74.3217C354.456 73.8924 352.594 73.9654 350.857 74.5326C349.119 75.0998 347.573 76.1389 346.392 77.5338C345.21 78.9287 344.44 80.6246 344.166 82.432C343.059 82.1533 341.897 82.1814 340.805 82.5131C339.712 82.8449 338.731 83.4678 337.965 84.3151C337.2 85.1625 336.68 86.2021 336.461 87.3226C336.242 88.4431 336.332 89.6021 336.722 90.6752L350.566 95.5392L365.681 122.163C367.914 124.069 370.765 125.097 373.701 125.055C376.637 125.014 379.457 123.905 381.636 121.937C383.815 119.969 385.203 117.275 385.542 114.359C385.881 111.442 385.147 108.502 383.478 106.086C384.325 105.333 385.044 104.448 385.608 103.465C386.815 102.751 387.869 101.804 388.708 100.678C389.546 99.5534 390.153 98.2729 390.492 96.9114C391.834 90.9824 387.246 84.5107 381.297 83.8144Z" fill="#263238"/>
<path d="M372.132 139.264C371.272 134.932 370.678 131.963 370.688 131.994C370.698 132.024 378.88 128.819 378.286 117.422C377.999 111.749 375.839 102.81 373.832 95.5597C372.029 89.0265 365.937 81.8278 359.496 83.9065L339.968 93.4297C338.012 94.0646 337.674 95.9078 338.135 97.9046V98.9286L345.723 130.324L348.928 144.353C349.611 147.234 351.348 149.754 353.797 151.418C356.245 153.082 359.228 153.769 362.158 153.344C363.758 153.119 365.295 152.569 366.675 151.729C368.055 150.888 369.249 149.774 370.183 148.456C371.117 147.137 371.771 145.642 372.107 144.061C372.442 142.481 372.45 140.848 372.132 139.264V139.264Z" fill="#FFBE9D"/>
<path d="M373.76 103.137C373.842 103.501 373.782 103.882 373.591 104.202C373.401 104.522 373.094 104.757 372.736 104.858C372.555 104.908 372.366 104.922 372.179 104.897C371.993 104.872 371.814 104.81 371.652 104.715C371.49 104.619 371.35 104.492 371.239 104.34C371.127 104.189 371.048 104.017 371.005 103.834C370.923 103.472 370.984 103.092 371.175 102.774C371.366 102.455 371.671 102.222 372.029 102.124C372.21 102.071 372.398 102.056 372.585 102.08C372.771 102.103 372.95 102.164 373.112 102.259C373.274 102.353 373.415 102.48 373.526 102.631C373.638 102.782 373.717 102.955 373.76 103.137V103.137Z" fill="#263238"/>
<path d="M372.869 100.956C372.726 101.181 371.487 100.618 369.971 100.956C368.456 101.294 367.493 102.277 367.288 102.124C367.083 101.97 367.288 101.683 367.708 101.233C368.271 100.637 369.004 100.23 369.807 100.065C370.599 99.8945 371.425 99.9843 372.162 100.321C372.736 100.557 372.93 100.864 372.869 100.956Z" fill="#263238"/>
<path d="M358.891 106.496C358.973 106.858 358.913 107.238 358.722 107.556C358.531 107.875 358.225 108.107 357.867 108.206C357.691 108.258 357.505 108.273 357.322 108.253C357.139 108.232 356.962 108.176 356.801 108.086C356.64 107.996 356.499 107.876 356.385 107.731C356.271 107.587 356.186 107.421 356.137 107.244C356.055 106.88 356.115 106.499 356.306 106.179C356.496 105.859 356.802 105.624 357.161 105.523C357.338 105.472 357.524 105.456 357.708 105.478C357.891 105.499 358.069 105.557 358.23 105.647C358.391 105.738 358.532 105.859 358.646 106.005C358.76 106.151 358.843 106.318 358.891 106.496Z" fill="#263238"/>
<path d="M358.144 104.571C358.011 104.796 356.761 104.223 355.246 104.571C353.73 104.919 352.768 105.882 352.563 105.738C352.358 105.595 352.563 105.298 352.983 104.837C353.549 104.247 354.281 103.844 355.082 103.68C355.873 103.512 356.698 103.598 357.437 103.926C357.98 104.172 358.216 104.448 358.144 104.571Z" fill="#263238"/>
<path d="M365.855 114.196C366.605 113.782 367.403 113.459 368.23 113.234C368.609 113.111 368.967 112.957 368.978 112.681C368.924 112.274 368.749 111.892 368.476 111.585L366.704 108.861C364.226 104.98 362.342 101.765 362.496 101.693C362.649 101.622 364.79 104.663 367.268 108.544L368.998 111.288C369.338 111.708 369.523 112.233 369.52 112.773C369.49 112.92 369.427 113.059 369.337 113.18C369.247 113.3 369.131 113.399 368.998 113.469C368.798 113.575 368.584 113.655 368.363 113.705C367.553 113.982 366.709 114.148 365.855 114.196Z" fill="#263238"/>
<path d="M370.688 131.994C365.508 133.164 360.106 132.873 355.082 131.154C355.082 131.154 360.448 138.158 371.271 134.81L370.688 131.994Z" fill="#EB996E"/>
<path d="M358.4 102.4C358.297 102.84 356.731 102.83 354.949 103.27C353.167 103.711 351.754 104.376 351.467 104.028C351.344 103.864 351.549 103.434 352.092 103.004C352.813 102.397 353.67 101.972 354.591 101.765C355.503 101.549 356.453 101.549 357.366 101.765C358.093 101.898 358.472 102.195 358.4 102.4Z" fill="#263238"/>
<path d="M372.285 96.1229C372.04 96.5325 370.729 96.43 369.213 96.727C367.698 97.024 366.5 97.536 366.141 97.239C365.978 97.0854 366.141 96.6963 366.582 96.215C367.258 95.6464 368.075 95.2713 368.947 95.1296C369.805 94.9568 370.693 95.0205 371.517 95.3139C372.142 95.6006 372.388 95.9181 372.285 96.1229Z" fill="#263238"/>
<path d="M344.791 86.0979C345.018 87.2072 345.486 88.2529 346.162 89.1609C346.838 90.0689 347.706 90.8168 348.704 91.3515C349.702 91.8861 350.806 92.1945 351.936 92.2546C353.067 92.3146 354.197 92.125 355.246 91.6992C356.864 91.0438 358.543 89.815 360.182 90.4089C361.82 91.0028 362.496 93.3376 364.063 94.208C366.367 95.4982 369.183 93.2659 371.753 93.4912C373.801 93.6653 375.347 95.232 376.934 96.5632C378.522 97.8944 380.713 98.8979 382.505 97.9353C382.095 96.2253 381.486 94.5689 380.692 92.9996C379.892 91.4199 378.567 90.1674 376.945 89.4566C376.043 89.0982 375.071 88.9753 374.21 88.535C372.357 87.5929 371.528 85.463 370.186 83.8553C369.305 82.8422 368.195 82.0537 366.949 81.555C365.702 81.0564 364.355 80.8621 363.018 80.9881C360.806 81.2134 358.707 82.3296 356.475 82.2374C354.826 82.1657 353.249 81.4285 351.601 81.4592C348.395 81.4592 345.989 84.3264 344.207 86.999" fill="#263238"/>
<path d="M355.584 88.4429C354.109 88.3302 351.099 88.023 350.105 86.9786C349.096 85.8499 347.809 85.0061 346.371 84.5317C344.933 84.0573 343.396 83.9688 341.913 84.2752C340.442 84.7138 339.151 85.6132 338.229 86.8409C337.307 88.0686 336.804 89.5599 336.793 91.095C335.002 91.5323 333.361 92.4453 332.046 93.7376C330.73 95.0299 329.788 96.6536 329.318 98.4371C328.842 100.304 328.826 102.259 329.271 104.134C329.717 106.009 330.612 107.747 331.878 109.199C332.493 109.969 333.055 110.779 333.558 111.626C332.863 112.488 332.253 113.413 331.735 114.391C329.39 119.572 335.749 121.559 335.749 121.559C335.749 125.041 338.975 125.02 341.033 125.01C343.091 125 344.228 130.499 345.835 130.284L344.207 113.316C344.446 113.409 344.699 113.457 344.955 113.459C348.836 113.531 347.822 106.179 346.573 104.243C347.729 102.804 348.705 101.229 349.481 99.5533C350.184 96.9918 350.233 94.2949 349.624 91.7094C350.925 91.5456 356.219 88.4838 355.584 88.4429Z" fill="#263238"/>
<path d="M344.719 114.217C344.587 113.678 344.321 113.181 343.944 112.773C343.568 112.364 343.095 112.058 342.568 111.882C342.042 111.706 341.479 111.667 340.933 111.767C340.387 111.867 339.875 112.104 339.446 112.456C338.422 113.336 337.879 114.811 338.493 117.279C340.152 123.873 346.429 120.852 346.388 120.668C346.348 120.484 345.436 116.941 344.719 114.217Z" fill="#FFBE9D"/>
<path d="M343.746 118.671C343.746 118.671 343.654 118.784 343.48 118.917C343.238 119.103 342.933 119.187 342.63 119.153C341.872 119.071 341.002 118.129 340.674 116.931C340.518 116.371 340.487 115.783 340.582 115.21C340.593 114.988 340.657 114.771 340.769 114.578C340.881 114.386 341.039 114.223 341.227 114.104C341.352 114.037 341.496 114.016 341.634 114.044C341.772 114.072 341.897 114.148 341.985 114.258C342.118 114.411 342.108 114.555 342.149 114.565C342.19 114.575 342.262 114.412 342.149 114.156C342.07 114.004 341.945 113.881 341.79 113.807C341.574 113.72 341.331 113.72 341.115 113.807C340.857 113.929 340.635 114.115 340.469 114.346C340.302 114.576 340.197 114.846 340.162 115.128C340.03 115.773 340.054 116.441 340.234 117.074C340.348 117.669 340.636 118.216 341.06 118.648C341.485 119.08 342.027 119.376 342.62 119.501C342.813 119.509 343.005 119.473 343.182 119.397C343.359 119.321 343.517 119.206 343.644 119.06C343.777 118.835 343.777 118.682 343.746 118.671Z" fill="#EB996E"/>
<path d="M380.078 105.011C380.078 105.011 380.682 104.55 381.522 103.526C382.68 102.051 383.391 100.274 383.57 98.4064C383.705 97.1315 383.58 95.8424 383.201 94.6176C382.764 93.2126 381.953 91.9527 380.856 90.9721C379.589 89.8659 378.056 89.11 376.407 88.7795C374.758 88.449 373.051 88.5553 371.456 89.088C371.149 89.1904 370.862 89.344 370.575 89.4669C370.288 89.5897 370.032 89.7741 369.766 89.9277L369.357 90.1529V89.7024C369.348 88.9091 369.053 88.1457 368.527 87.552C367.988 86.9758 367.327 86.5279 366.592 86.2413C365.201 85.6617 363.66 85.5468 362.199 85.9136C359.373 86.5587 356.976 87.8489 354.713 88.1152C352.939 88.4236 351.113 88.0584 349.593 87.0912C349.192 86.8153 348.845 86.4682 348.569 86.0672C348.406 85.7907 348.324 85.6371 348.344 85.6269C348.715 86.1325 349.169 86.5721 349.686 86.9273C351.181 87.7903 352.937 88.0848 354.632 87.7568C355.811 87.5349 356.964 87.1918 358.072 86.7328C359.374 86.2125 360.708 85.7781 362.066 85.4323C362.823 85.2491 363.601 85.1699 364.38 85.1968C365.202 85.2402 366.009 85.4273 366.766 85.7497C367.549 86.0843 368.248 86.5878 368.814 87.2243C369.419 87.9175 369.76 88.8025 369.776 89.7229L369.367 89.4976L370.217 89.006C370.534 88.8832 370.831 88.7193 371.159 88.6067C372.84 88.0309 374.644 87.9105 376.387 88.2576C378.129 88.6047 379.749 89.407 381.081 90.583C382.233 91.6256 383.076 92.9646 383.519 94.4537C383.978 96.032 384.04 97.6995 383.699 99.3075C383.357 100.916 382.624 102.414 381.563 103.67C381.225 104.055 380.844 104.398 380.426 104.694C380.323 104.813 380.206 104.92 380.078 105.011Z" fill="#455A64"/>
<path d="M378.747 81.8586C378.074 81.5173 377.357 81.2725 376.617 81.1315C375.77 81.0158 374.908 81.0964 374.098 81.367C373.048 81.6882 372.136 82.3515 371.507 83.2512L371.251 83.6096L371.097 83.2C370.563 81.9412 369.702 80.8478 368.604 80.0324C367.506 79.217 366.211 78.7092 364.851 78.5613C362.716 78.481 360.611 79.0915 358.85 80.3021C357.35 81.28 355.755 82.1034 354.089 82.7597C352.94 83.1942 351.703 83.3418 350.484 83.1898C350.159 83.1298 349.841 83.0407 349.532 82.9235C349.327 82.8314 349.215 82.7802 349.225 82.7597C349.235 82.7392 349.686 82.8928 350.515 82.9747C351.693 83.0483 352.872 82.8558 353.966 82.4115C355.585 81.7055 357.137 80.8556 358.605 79.872C359.511 79.3093 360.471 78.8393 361.472 78.4691C362.572 78.0681 363.747 77.9177 364.912 78.0288C366.365 78.1874 367.747 78.7368 368.912 79.6185C370.077 80.5003 370.981 81.6814 371.527 83.0362H371.128C371.832 82.0739 372.838 81.3746 373.985 81.0496C374.857 80.7969 375.775 80.7513 376.668 80.9165C377.233 81.0238 377.774 81.2319 378.265 81.5309C378.441 81.6166 378.603 81.727 378.747 81.8586V81.8586Z" fill="#455A64"/>
<path d="M365.261 117.227C365.021 117.028 364.743 116.88 364.443 116.796C364.143 116.711 363.828 116.691 363.52 116.736C363.159 116.813 362.819 116.965 362.521 117.182C362.223 117.399 361.973 117.676 361.789 117.995C361.789 117.995 361.738 118.047 361.728 118.077C361.587 118.311 361.522 118.583 361.543 118.856C361.588 119.152 361.705 119.433 361.883 119.674C362.062 119.915 362.297 120.109 362.567 120.238C363 120.457 363.49 120.538 363.971 120.468C364.451 120.399 364.898 120.182 365.25 119.849C365.585 119.495 365.772 119.027 365.774 118.54C365.776 118.053 365.593 117.584 365.261 117.227V117.227Z" fill="#9AD0EC"/>
<path d="M365.773 120.412C365.691 120.412 365.599 120.105 365.322 119.685C364.989 119.122 364.492 118.675 363.896 118.404C363.301 118.133 362.637 118.051 361.994 118.17C361.492 118.241 361.185 118.385 361.155 118.313C361.124 118.241 361.359 117.995 361.912 117.801C362.636 117.568 363.42 117.612 364.114 117.924C364.814 118.235 365.367 118.803 365.66 119.511C365.875 120.043 365.844 120.402 365.773 120.412Z" fill="#263238"/>
<path d="M344.873 121.682C344.873 121.682 345.17 122.194 344.781 122.972C344.561 123.438 344.173 123.803 343.695 123.996C343.397 124.103 343.078 124.139 342.764 124.102C342.449 124.064 342.148 123.955 341.883 123.781C341.613 123.617 341.385 123.393 341.217 123.127C341.048 122.861 340.943 122.559 340.91 122.245C340.879 121.739 341.028 121.239 341.33 120.832C341.862 120.156 342.456 120.136 342.456 120.197C342.456 120.259 342.006 120.433 341.647 121.047C341.44 121.391 341.353 121.795 341.402 122.194C341.44 122.428 341.528 122.65 341.661 122.846C341.793 123.043 341.967 123.208 342.17 123.331C342.369 123.458 342.594 123.543 342.829 123.578C343.063 123.613 343.303 123.599 343.531 123.535C343.91 123.4 344.236 123.149 344.463 122.819C344.863 122.184 344.791 121.682 344.873 121.682Z" fill="#9AD0EC"/>
<path d="M341.422 121.283C341.473 121.283 341.422 121.631 340.941 121.856C340.704 121.954 340.445 121.983 340.192 121.938C339.94 121.894 339.706 121.778 339.518 121.604C339.329 121.431 339.194 121.207 339.129 120.96C339.064 120.712 339.07 120.451 339.149 120.207C339.249 119.93 339.44 119.696 339.691 119.542C340.111 119.286 340.429 119.388 340.418 119.45C340.408 119.511 340.173 119.583 339.917 119.839C339.791 119.996 339.714 120.187 339.696 120.388C339.678 120.589 339.72 120.79 339.816 120.967C339.912 121.145 340.059 121.289 340.237 121.384C340.415 121.478 340.617 121.518 340.818 121.498C341.166 121.426 341.35 121.242 341.422 121.283Z" fill="#9AD0EC"/>
<path d="M352.676 212.224C352.676 212.224 378.03 213.699 393.021 213.832C404.623 213.944 409.805 210.862 412.119 203.397C414.064 197.14 409.887 185.129 409.887 185.129C402.032 185.129 397.189 186.255 392.141 188.621L393.482 194.109L352.604 197.632L352.676 212.224Z" fill="#FFBE9D"/>
<path d="M402.002 199.967C400.902 198.537 399.618 197.26 398.182 196.168C396.642 195.225 394.982 194.495 393.247 193.997C393.793 193.918 394.35 193.967 394.875 194.14C396.163 194.445 397.385 194.982 398.479 195.727C399.576 196.474 400.524 197.419 401.275 198.513C401.848 199.352 402.063 199.936 402.002 199.967Z" fill="#EB996E"/>
<path d="M343.398 188.58C343.398 188.58 335.554 190.464 329.789 194.314L335.933 210.964C337.981 216.433 344.238 219.156 349.245 216.289C356.956 211.876 359.68 199.014 359.68 199.014L368.148 162.273L354.109 153.477L343.449 188.58" fill="#FFBE9D"/>
<path d="M354.058 153.477L354.631 141.394L351.488 129.106C351.314 128.43 351.232 127.58 351.785 127.171C352.059 126.96 352.398 126.852 352.743 126.863C353.088 126.874 353.419 127.004 353.679 127.232C354.529 128.113 358.625 138.854 358.625 138.854C358.625 138.854 364.841 135.127 365.947 134.943C367.053 134.758 368.435 138.107 368.527 138.363C368.568 139.113 368.568 139.865 368.527 140.616C368.527 140.616 372.367 140.728 372.715 141.251C372.994 142.317 373.142 143.414 373.156 144.517C373.156 144.517 374.784 145.039 375.04 146.268C375.296 147.497 375.828 149.524 375.04 149.975C374.251 150.426 372.654 151.306 372.654 151.306C372.654 151.306 372.009 157.573 371.835 158.147C371.661 158.72 368.066 162.243 368.066 162.243L354.058 153.477Z" fill="#FFBE9D"/>
<path d="M340.992 216.535C340.992 216.535 341.371 216.76 342.17 217.016C343.337 217.383 344.573 217.481 345.784 217.303C347.73 217.026 349.552 216.186 351.027 214.886C352.976 213.118 354.623 211.043 355.901 208.742C356.654 207.39 357.288 205.975 357.796 204.513C358.328 202.905 358.769 201.267 359.117 199.608C359.915 196.157 360.786 192.44 361.707 188.488C363.551 180.593 365.619 171.766 367.851 162.253V162.181H367.903C368.609 161.485 369.316 160.778 370.022 160.041C370.371 159.672 370.719 159.304 371.046 158.925C371.21 158.73 371.384 158.536 371.517 158.341C371.621 158.148 371.681 157.935 371.691 157.716C371.968 155.668 372.183 153.549 372.408 151.409V151.275L372.531 151.214L374.487 150.118C374.63 150.026 374.856 149.924 374.948 149.842C375.046 149.753 375.111 149.634 375.132 149.504C375.18 149.164 375.18 148.82 375.132 148.48C375.033 147.729 374.879 146.986 374.671 146.258C374.323 145.621 373.738 145.146 373.043 144.937L372.869 144.875V144.701C372.869 144.107 372.808 143.493 372.736 142.889C372.708 142.586 372.664 142.286 372.603 141.988C372.579 141.857 372.538 141.729 372.48 141.609C372.48 141.537 372.48 141.609 372.419 141.547C372.363 141.518 372.305 141.494 372.244 141.476C371.013 141.207 369.757 141.067 368.497 141.056H368.23V140.79C368.23 140.155 368.23 139.448 368.23 138.742C368.188 138.501 368.105 138.269 367.985 138.056C367.882 137.81 367.759 137.574 367.636 137.329C367.397 136.854 367.116 136.402 366.797 135.977C366.652 135.779 366.475 135.606 366.275 135.465C366.2 135.402 366.109 135.363 366.012 135.352C365.916 135.341 365.818 135.359 365.732 135.403C365.236 135.593 364.754 135.816 364.288 136.069C362.383 137.093 360.52 138.117 358.697 139.223L358.431 139.387L358.318 139.1C357.355 136.673 356.393 134.277 355.451 131.932C354.98 130.755 354.519 129.577 354.048 128.42C353.975 128.161 353.831 127.927 353.632 127.746C353.433 127.565 353.186 127.444 352.922 127.396C352.677 127.315 352.412 127.319 352.17 127.408C351.928 127.498 351.724 127.667 351.59 127.887C351.463 128.107 351.409 128.362 351.437 128.614C351.437 128.84 351.58 129.188 351.642 129.464C351.805 130.058 351.959 130.642 352.113 131.226C352.42 132.403 352.717 133.56 353.024 134.707C353.625 137.015 354.215 139.267 354.795 141.466V141.537C354.591 145.742 354.396 149.77 354.212 153.62V153.6L344.883 183.951L342.251 192.399C341.944 193.352 341.709 194.099 341.545 194.621C341.381 195.144 341.279 195.369 341.279 195.369C341.279 195.369 341.33 195.103 341.473 194.601L342.118 192.358C342.712 190.382 343.562 187.525 344.637 183.88C346.849 176.548 349.993 166.083 353.792 153.467V153.518C353.969 149.681 354.15 145.654 354.335 141.435V141.507C353.751 139.305 353.147 137.052 352.543 134.758L351.621 131.277C351.467 130.693 351.314 130.099 351.15 129.516C351.062 129.209 350.99 128.898 350.935 128.584C350.897 128.228 350.972 127.87 351.15 127.56C351.34 127.24 351.632 126.995 351.979 126.863C352.323 126.763 352.687 126.751 353.036 126.83C353.386 126.909 353.709 127.075 353.976 127.314C354.233 127.555 354.424 127.858 354.529 128.195L355.932 131.707C356.884 134.062 357.837 136.458 358.81 138.875L358.431 138.742C360.264 137.656 362.107 136.571 364.052 135.557C364.544 135.3 365.05 135.071 365.568 134.871C365.73 134.804 365.906 134.779 366.08 134.799C366.255 134.825 366.423 134.888 366.571 134.984C366.818 135.161 367.036 135.375 367.217 135.619C367.559 136.067 367.857 136.547 368.107 137.052C368.241 137.308 368.363 137.554 368.476 137.81C368.622 138.081 368.719 138.376 368.763 138.68C368.763 139.407 368.763 140.083 368.763 140.728L368.507 140.452C369.823 140.461 371.135 140.612 372.419 140.902C372.507 140.933 372.592 140.971 372.675 141.015C372.787 141.076 372.879 141.169 372.941 141.281C373.02 141.447 373.079 141.623 373.115 141.803C373.176 142.131 373.217 142.438 373.258 142.756C373.32 143.38 373.361 143.995 373.391 144.609L373.207 144.363C373.626 144.486 374.015 144.693 374.351 144.971C374.688 145.249 374.964 145.593 375.163 145.981C375.387 146.76 375.552 147.554 375.654 148.357C375.725 148.767 375.725 149.186 375.654 149.596C375.61 149.844 375.479 150.069 375.286 150.231C375.118 150.343 374.943 150.446 374.763 150.538L372.818 151.552L372.951 151.357C372.715 153.498 372.5 155.597 372.214 157.675L372.152 158.075C372.129 158.237 372.061 158.389 371.958 158.515C371.807 158.739 371.639 158.952 371.456 159.15C371.108 159.539 370.76 159.918 370.432 160.287C369.725 161.024 369.019 161.731 368.302 162.427L368.374 162.304C366.121 171.807 364.032 180.634 362.158 188.529C361.226 192.471 360.335 196.188 359.516 199.629C359.166 201.3 358.714 202.948 358.164 204.564C357.638 206.04 356.987 207.469 356.219 208.835C354.911 211.164 353.226 213.261 351.232 215.04C349.713 216.348 347.844 217.181 345.856 217.436C344.619 217.602 343.36 217.476 342.18 217.068C341.88 216.957 341.589 216.824 341.309 216.668L340.992 216.535Z" fill="#EB996E"/>
<path d="M368.538 140.646C368.538 140.718 368.189 140.759 367.647 140.779C366.958 140.793 366.271 140.875 365.599 141.025C364.949 141.185 364.351 141.505 363.858 141.957C363.489 142.305 363.325 142.602 363.244 142.571C363.162 142.541 363.244 142.172 363.581 141.701C364.058 141.105 364.722 140.686 365.466 140.513C366.182 140.337 366.927 140.302 367.657 140.411C368.21 140.483 368.538 140.575 368.538 140.646Z" fill="#EB996E"/>
<path d="M365.568 140.759C365.435 140.708 365.424 140.39 365.568 140.052C365.711 139.715 365.916 139.479 366.049 139.53C366.182 139.581 366.203 139.899 366.049 140.237C365.896 140.575 365.67 140.81 365.568 140.759Z" fill="#EB996E"/>
<path d="M373.33 144.476C372.336 144.784 371.298 144.926 370.258 144.896C369.931 144.885 369.605 144.953 369.31 145.094C369.014 145.234 368.756 145.444 368.558 145.705C368.292 146.125 368.384 146.473 368.302 146.493C368.22 146.514 367.974 146.155 368.23 145.541C368.371 145.195 368.628 144.909 368.957 144.732C369.337 144.524 369.755 144.399 370.186 144.363C371.232 144.203 372.298 144.242 373.33 144.476V144.476Z" fill="#EB996E"/>
<path d="M372.654 148.163C372.797 148.163 372.879 148.92 372.838 149.852C372.797 150.784 372.644 151.521 372.5 151.521C372.357 151.521 372.265 150.753 372.306 149.821C372.347 148.89 372.5 148.152 372.654 148.163Z" fill="#EB996E"/>
<path d="M376.904 175.739L377.815 172.605C377.857 172.462 377.935 172.332 378.042 172.228C378.149 172.124 378.282 172.05 378.427 172.013C378.571 171.975 378.723 171.976 378.867 172.016C379.011 172.055 379.143 172.131 379.249 172.237L380.447 173.455L381.184 170.496C381.227 170.325 381.322 170.172 381.456 170.056C381.589 169.941 381.755 169.87 381.93 169.852C382.106 169.834 382.283 169.87 382.437 169.956C382.591 170.042 382.715 170.173 382.792 170.332L384.461 173.834L376.904 175.739Z" fill="white"/>
<path d="M384.481 175.176C383.336 175.729 382.119 176.122 380.866 176.343C379.655 176.739 378.393 176.96 377.119 176.998C379.476 176.051 381.954 175.438 384.481 175.176V175.176Z" fill="white"/>
<path d="M323.584 157.696C323.584 157.696 323.205 158.085 322.673 158.915C321.958 160.096 321.488 161.409 321.29 162.775C320.998 164.81 320.937 166.871 321.106 168.919C321.218 171.244 321.403 173.783 321.69 176.445C322.175 180.992 322.896 185.511 323.85 189.983C324.209 191.703 324.536 193.055 324.762 194.079C324.864 194.509 324.956 194.867 325.028 195.174C325.099 195.482 325.11 195.564 325.11 195.564C325.11 195.564 325.059 195.441 324.987 195.195C324.915 194.949 324.802 194.519 324.69 194.099C324.434 193.147 324.086 191.775 323.666 190.054C322.67 185.584 321.929 181.061 321.444 176.507C321.157 173.844 320.983 171.295 320.881 168.97C320.725 166.92 320.801 164.859 321.106 162.826C321.326 161.442 321.828 160.118 322.58 158.935C322.858 158.479 323.195 158.062 323.584 157.696V157.696Z" fill="white"/>
<path d="M345.139 143.749L344.904 143.872L344.228 144.2C343.644 144.476 342.794 144.886 341.78 145.449C339.138 146.923 336.571 148.529 334.09 150.262C331.162 152.31 328.571 154.173 326.676 155.525L324.434 157.112L323.809 157.532C323.74 157.588 323.664 157.636 323.584 157.676C323.642 157.607 323.712 157.548 323.789 157.501L324.383 157.051L326.584 155.402C328.458 154.02 331.039 152.095 333.967 150.088C336.453 148.348 339.038 146.754 341.709 145.316C342.733 144.773 343.593 144.384 344.197 144.128L344.883 143.841C345.088 143.77 345.088 143.739 345.139 143.749Z" fill="white"/>
<path d="M393.974 150.415C393.909 150.38 393.851 150.335 393.8 150.282L393.339 149.883C392.768 149.401 392.17 148.953 391.547 148.541C389.468 147.216 387.262 146.101 384.963 145.213C382.67 144.305 380.328 143.526 377.948 142.879C377.027 142.623 376.289 142.438 375.767 142.315L375.183 142.162C375.112 142.147 375.043 142.123 374.979 142.09H375.194L375.787 142.203C376.31 142.305 377.057 142.469 377.979 142.705C380.381 143.311 382.741 144.074 385.044 144.988C387.358 145.876 389.566 147.016 391.629 148.388C392.487 148.969 393.274 149.65 393.974 150.415V150.415Z" fill="white"/>
<path d="M345.426 228.577C345.287 228.553 345.152 228.508 345.026 228.444C344.671 228.288 344.328 228.103 344.002 227.891C343.451 227.561 342.97 227.125 342.587 226.608C342.204 226.091 341.926 225.504 341.77 224.881C341.489 223.621 341.629 222.305 342.169 221.133C342.326 220.769 342.525 220.425 342.763 220.109C342.927 219.894 343.04 219.791 343.05 219.802C342.771 220.238 342.521 220.693 342.303 221.163C341.827 222.314 341.716 223.583 341.985 224.799C342.278 225.999 343.009 227.047 344.033 227.738C344.883 228.352 345.446 228.536 345.426 228.577Z" fill="white"/>
<path d="M342.169 217.487C342.387 217.894 342.549 218.328 342.651 218.778C342.811 219.208 342.908 219.66 342.937 220.119C342.705 219.722 342.539 219.29 342.446 218.839C342.278 218.407 342.185 217.95 342.169 217.487Z" fill="white"/>
<path d="M356.014 447.078L387.246 446.925L386.683 338.944L386.386 229.099L344.064 228.557L336.456 242.893C333.343 248.656 331.358 254.961 330.609 261.468C330.097 266.445 333.824 282.624 335.114 286.72L346.757 323.645L356.014 447.078Z" fill="#263238"/>
<path d="M395.551 229.233L429.875 322.796C431.909 328.824 432.584 335.227 431.853 341.547C431.122 347.867 429.002 353.947 425.646 359.352L385.792 437.176L363.387 409.139L396.728 339.507L367.339 291.84L372.285 229.376L386.13 229.151L395.551 229.233Z" fill="#263238"/>
<path d="M383.539 260.577C383.539 260.577 383.539 260.741 383.539 261.059C383.539 261.376 383.59 261.868 383.631 262.472C383.703 263.731 383.795 265.544 383.918 267.889C384.153 272.63 384.481 279.439 384.942 287.846C385.403 296.253 385.792 306.278 386.304 317.44C386.55 323.011 386.816 328.858 387.082 334.92C387.277 337.992 387.195 341.064 387.225 344.136C387.256 347.208 387.225 350.444 387.225 353.659C387.225 379.392 387.307 402.688 387.338 419.574C387.338 427.991 387.338 434.811 387.338 439.552C387.338 441.897 387.338 443.72 387.338 444.989C387.338 445.583 387.338 446.013 387.338 446.403C387.338 446.792 387.338 446.884 387.338 446.884C387.338 446.884 387.338 446.72 387.338 446.403V444.989C387.338 443.72 387.338 441.917 387.277 439.552C387.277 434.811 387.195 428.001 387.133 419.584C387.062 402.698 386.969 379.402 386.867 353.669C386.867 350.454 386.867 347.279 386.867 344.146C386.867 341.012 386.929 337.92 386.734 334.93C386.478 328.878 386.222 323.031 385.986 317.46C385.515 306.319 385.085 296.294 384.737 287.857C384.389 279.419 384.133 272.64 383.938 267.899C383.857 265.564 383.795 263.741 383.754 262.472C383.754 261.868 383.754 261.448 383.754 261.059C383.754 260.669 383.539 260.577 383.539 260.577Z" fill="#455A64"/>
<path d="M382.751 231.076C382.87 231.405 382.943 231.75 382.966 232.1C383.078 232.755 383.201 233.707 383.344 234.895C383.611 237.261 383.897 240.548 384.061 244.183C384.225 247.818 384.235 251.115 384.184 253.501C384.184 254.689 384.112 255.662 384.061 256.328C384.072 256.673 384.03 257.018 383.938 257.352C383.809 256.073 383.765 254.786 383.805 253.501C383.805 251.115 383.693 247.839 383.529 244.203C383.365 240.568 383.14 237.302 382.966 234.987C382.82 233.689 382.748 232.383 382.751 231.076V231.076Z" fill="#455A64"/>
<path d="M375.869 233.185C375.92 233.257 375.337 233.523 375.173 234.353C375.127 234.578 375.14 234.811 375.209 235.029C375.279 235.248 375.404 235.445 375.572 235.602C375.775 235.79 376.027 235.917 376.3 235.966C376.572 236.015 376.853 235.984 377.108 235.878C377.354 235.752 377.559 235.559 377.7 235.322C377.841 235.085 377.913 234.813 377.907 234.537C377.898 234.308 377.83 234.085 377.709 233.889C377.589 233.694 377.421 233.533 377.221 233.421C376.804 233.219 376.34 233.137 375.879 233.185C375.879 233.185 375.982 233.052 376.248 232.97C376.632 232.876 377.037 232.916 377.395 233.083C377.681 233.202 377.928 233.398 378.109 233.649C378.29 233.901 378.397 234.197 378.419 234.506C378.46 234.887 378.38 235.272 378.19 235.605C378.001 235.939 377.712 236.204 377.364 236.365C377.016 236.525 376.626 236.573 376.249 236.5C375.873 236.428 375.529 236.239 375.265 235.96C375.047 235.744 374.893 235.472 374.819 235.174C374.745 234.876 374.754 234.564 374.845 234.271C374.948 233.888 375.179 233.551 375.501 233.318C375.705 233.175 375.859 233.155 375.869 233.185Z" fill="#455A64"/>
<path d="M359.485 231.332C359.636 231.655 359.73 232.001 359.762 232.356C359.927 233.275 359.958 234.213 359.854 235.141C359.707 236.523 359.308 237.866 358.676 239.104C357.914 240.644 356.785 241.973 355.389 242.975C353.992 243.976 352.372 244.62 350.669 244.849C349.306 245.052 347.917 245 346.573 244.695C345.663 244.498 344.787 244.17 343.972 243.722C343.663 243.576 343.38 243.383 343.132 243.149C344.264 243.658 345.444 244.053 346.655 244.326C348.111 244.629 349.614 244.627 351.07 244.319C352.525 244.012 353.901 243.406 355.111 242.54C356.32 241.674 357.337 240.567 358.097 239.288C358.857 238.009 359.344 236.587 359.526 235.11C359.647 233.853 359.633 232.586 359.485 231.332Z" fill="#455A64"/>
<path d="M399.667 240.302C398.999 240.379 398.322 240.298 397.691 240.067C396.144 239.579 394.755 238.689 393.666 237.486C392.568 236.289 391.815 234.817 391.485 233.226C391.324 232.577 391.324 231.899 391.485 231.25C391.577 231.25 391.588 231.997 391.895 233.144C392.31 234.626 393.065 235.991 394.099 237.13C395.134 238.27 396.419 239.152 397.855 239.708C398.919 240.128 399.677 240.2 399.667 240.302Z" fill="#455A64"/>
<path d="M411.863 341.166C411.35 341.752 410.736 342.24 410.05 342.61C409.331 343.066 408.548 343.411 407.726 343.634C406.692 343.908 405.601 343.88 404.582 343.552C402.794 342.877 401.261 341.66 400.2 340.07C399.712 339.473 399.309 338.811 399.001 338.104C399.554 338.632 400.055 339.211 400.496 339.835C401.584 341.277 403.052 342.387 404.736 343.04C405.595 343.269 406.493 343.321 407.373 343.193C408.253 343.064 409.098 342.758 409.856 342.292C410.503 341.879 411.173 341.503 411.863 341.166V341.166Z" fill="#455A64"/>
<path d="M404.04 347.136C402.829 345.883 401.749 344.51 400.814 343.04C399.737 341.671 398.798 340.2 398.008 338.647C399.227 339.896 400.311 341.269 401.244 342.743C402.33 344.104 403.267 345.576 404.04 347.136V347.136Z" fill="#455A64"/>
<path d="M351.57 264.192C351.426 264.243 351.068 263.659 350.751 262.871C350.433 262.083 350.3 261.417 350.433 261.356C350.566 261.294 350.935 261.888 351.242 262.676C351.549 263.465 351.703 264.192 351.57 264.192Z" fill="#FAFAFA"/>
<path d="M371.394 267.039C371.241 267.039 371.128 266.537 371.128 265.912C371.128 265.288 371.241 264.776 371.394 264.776C371.548 264.776 371.661 265.288 371.661 265.912C371.661 266.537 371.538 267.039 371.394 267.039Z" fill="#FAFAFA"/>
<path d="M363.243 277.811C363.1 277.811 362.936 277.197 362.885 276.408C362.834 275.62 362.885 274.985 363.049 274.975C363.213 274.964 363.366 275.589 363.417 276.378C363.469 277.166 363.387 277.801 363.243 277.811Z" fill="#FAFAFA"/>
<path d="M348.355 285.696C348.232 285.788 347.812 285.409 347.259 285.02C346.706 284.631 346.235 284.334 346.235 284.191C346.235 284.047 346.911 284.129 347.535 284.58C348.16 285.03 348.477 285.696 348.355 285.696Z" fill="#FAFAFA"/>
<path d="M374.6 295.741C374.477 295.66 374.6 295.219 374.948 294.717C375.296 294.216 375.613 293.929 375.736 294.011C375.859 294.093 375.736 294.543 375.388 295.035C375.04 295.526 374.723 295.823 374.6 295.741Z" fill="#FAFAFA"/>
<path d="M358.4 298.578C358.256 298.578 358.134 297.728 358.134 296.694C358.134 295.66 358.256 294.799 358.4 294.799C358.543 294.799 358.666 295.649 358.666 296.694C358.666 297.738 358.512 298.578 358.4 298.578Z" fill="#FAFAFA"/>
<path d="M353.096 310.067C353.014 310.18 352.481 309.944 351.908 309.524C351.334 309.105 350.884 308.675 351.017 308.552C351.15 308.429 351.642 308.675 352.215 309.094C352.788 309.514 353.188 309.944 353.096 310.067Z" fill="#FAFAFA"/>
<path d="M369.5 314.061C369.561 314.194 369.234 314.47 368.763 314.685C368.292 314.901 367.862 314.952 367.8 314.819C367.739 314.685 368.077 314.409 368.548 314.194C369.019 313.979 369.449 313.928 369.5 314.061Z" fill="#FAFAFA"/>
<path d="M358.4 332.8C358.277 332.861 357.744 332.073 357.222 331.028C356.7 329.984 356.383 329.083 356.516 328.98C356.649 328.878 357.181 329.708 357.693 330.752C358.205 331.796 358.492 332.687 358.4 332.8Z" fill="#FAFAFA"/>
<path d="M376.494 331.059C376.361 330.987 376.596 330.301 377.006 329.513C377.416 328.724 377.876 328.151 378.03 328.223C378.184 328.294 377.928 328.98 377.508 329.769C377.088 330.557 376.617 331.131 376.494 331.059Z" fill="#FAFAFA"/>
<path d="M368.558 346.921C368.404 346.921 368.425 346.092 368.261 345.129C368.097 344.166 367.851 343.398 367.995 343.327C368.138 343.255 368.63 343.982 368.794 345.047C368.957 346.112 368.701 346.952 368.558 346.921Z" fill="#FAFAFA"/>
<path d="M360.059 355.983C359.956 356.086 359.444 355.697 358.922 355.123C358.4 354.55 358.062 354.007 358.175 353.905C358.287 353.802 358.789 354.191 359.311 354.765C359.833 355.338 360.171 355.881 360.059 355.983Z" fill="#FAFAFA"/>
<path d="M380.682 359.424C380.58 359.322 380.959 358.769 381.532 358.185C382.106 357.601 382.638 357.222 382.751 357.325C382.863 357.427 382.474 357.99 381.911 358.564C381.348 359.137 380.795 359.526 380.682 359.424Z" fill="#FAFAFA"/>
<path d="M368.824 372.992C368.681 372.992 368.681 372.183 368.824 371.241C368.967 370.299 369.193 369.562 369.346 369.582C369.5 369.603 369.49 370.381 369.346 371.323C369.203 372.265 368.967 373.012 368.824 372.992Z" fill="#FAFAFA"/>
<path d="M360.847 379.576C360.714 379.648 360.264 379.116 359.823 378.388C359.383 377.661 359.158 377.016 359.281 376.945C359.403 376.873 359.854 377.395 360.305 378.122C360.755 378.849 360.97 379.494 360.847 379.576Z" fill="#FAFAFA"/>
<path d="M380.068 387.881C380.16 388.004 379.638 388.526 378.9 389.048C378.163 389.571 377.518 389.898 377.426 389.775C377.334 389.652 377.866 389.13 378.593 388.608C379.32 388.086 379.986 387.768 380.068 387.881Z" fill="#FAFAFA"/>
<path d="M364.052 398.664C363.909 398.612 364.052 397.793 364.185 396.769C364.319 395.745 364.237 394.906 364.39 394.885C364.544 394.865 364.81 395.725 364.708 396.82C364.605 397.916 364.185 398.725 364.052 398.664Z" fill="#FAFAFA"/>
<path d="M370.452 414.147C370.329 414.239 369.899 413.891 369.479 413.368C369.06 412.846 368.824 412.344 368.937 412.252C369.049 412.16 369.479 412.508 369.899 413.03C370.319 413.553 370.565 414.054 370.452 414.147Z" fill="#FAFAFA"/>
<path d="M363.459 424.53C363.336 424.612 362.772 424.008 362.199 423.168C361.626 422.328 361.267 421.591 361.38 421.509C361.492 421.427 362.066 422.031 362.639 422.871C363.213 423.711 363.581 424.448 363.459 424.53Z" fill="#FAFAFA"/>
<path d="M382.72 411.494C382.587 411.443 382.597 411.064 382.72 410.655C382.843 410.245 383.119 409.938 383.263 409.989C383.406 410.04 383.385 410.419 383.263 410.839C383.14 411.259 382.863 411.556 382.72 411.494Z" fill="#FAFAFA"/>
<path d="M374.221 436.224C374.087 436.152 374.343 435.425 374.548 434.514C374.753 433.603 374.825 432.835 374.978 432.824C375.132 432.814 375.286 433.644 375.071 434.627C374.855 435.61 374.343 436.306 374.221 436.224Z" fill="#FAFAFA"/>
<path d="M379.75 277.975C379.617 278.036 379.29 277.627 379.023 277.053C378.757 276.48 378.644 275.968 378.777 275.907C378.911 275.845 379.238 276.255 379.505 276.828C379.771 277.402 379.904 277.914 379.75 277.975Z" fill="#FAFAFA"/>
<path d="M365.568 246.088C365.65 246.211 364.933 246.784 364.165 247.603C363.397 248.422 362.875 249.18 362.742 249.109C362.608 249.037 362.957 248.084 363.766 247.245C364.574 246.405 365.465 245.955 365.568 246.088Z" fill="#FAFAFA"/>
<path d="M378.194 245.76C378.04 245.76 377.805 245.176 377.446 244.48C377.088 243.784 376.76 243.21 376.873 243.108C376.986 243.005 377.538 243.456 377.897 244.234C378.255 245.012 378.327 245.678 378.194 245.76Z" fill="#FAFAFA"/>
<path d="M338.77 256.113C338.637 256.051 338.77 255.375 339.087 254.597C339.405 253.819 339.753 253.215 339.896 253.276C340.04 253.338 339.896 254.003 339.579 254.792C339.261 255.58 338.944 256.164 338.77 256.113Z" fill="#FAFAFA"/>
<path d="M340.05 271.575C339.947 271.688 339.364 271.36 338.739 270.838C338.114 270.315 337.715 269.814 337.776 269.691C337.838 269.568 338.463 269.906 339.087 270.428C339.712 270.95 340.142 271.462 340.05 271.575Z" fill="#FAFAFA"/>
<path d="M365.916 233.81C365.783 233.81 365.496 233.482 365.292 232.96C365.087 232.438 365.025 231.936 365.158 231.936C365.292 231.936 365.578 232.264 365.783 232.786C365.988 233.308 366.049 233.759 365.916 233.81Z" fill="#FAFAFA"/>
<path d="M390.686 241.367C390.543 241.367 390.553 240.722 390.686 239.995C390.82 239.268 391.086 238.694 391.229 238.725C391.373 238.756 391.362 239.38 391.229 240.108C391.096 240.835 390.83 241.398 390.686 241.367Z" fill="#FAFAFA"/>
<path d="M396.503 253.071C396.37 253.01 396.554 252.252 396.923 251.361C397.291 250.47 397.691 249.805 397.824 249.856C397.957 249.907 397.824 250.675 397.414 251.566C397.005 252.457 396.646 253.123 396.503 253.071Z" fill="#FAFAFA"/>
<path d="M392.356 262.513C392.223 262.574 391.731 261.867 391.26 260.936C390.789 260.004 390.523 259.174 390.656 259.113C390.789 259.051 391.27 259.758 391.741 260.69C392.212 261.622 392.489 262.441 392.356 262.513Z" fill="#FAFAFA"/>
<path d="M401.223 271.954C401.09 271.903 401.223 271.309 401.449 270.633C401.674 269.957 402.032 269.445 402.176 269.496C402.319 269.548 402.176 270.141 401.95 270.817C401.725 271.493 401.408 272.005 401.223 271.954Z" fill="#FAFAFA"/>
<path d="M393.298 281.201C393.175 281.283 392.858 281.006 392.602 280.596C392.346 280.187 392.223 279.777 392.356 279.695C392.489 279.613 392.786 279.89 393.052 280.31C393.318 280.73 393.421 281.129 393.298 281.201Z" fill="#FAFAFA"/>
<path d="M394.988 300.288C394.885 300.38 394.24 299.878 393.564 299.141C392.888 298.404 392.428 297.738 392.54 297.636C392.653 297.533 393.288 298.045 393.964 298.783C394.639 299.52 395.1 300.186 394.988 300.288Z" fill="#FAFAFA"/>
<path d="M405.381 289.321C405.268 289.413 404.705 288.901 404.132 288.164C403.558 287.427 403.19 286.771 403.302 286.679C403.415 286.587 403.978 287.109 404.552 287.836C405.125 288.563 405.504 289.239 405.381 289.321Z" fill="#FAFAFA"/>
<path d="M411.085 304.445C410.951 304.384 411.187 303.616 411.607 302.735C412.027 301.855 412.467 301.179 412.631 301.24C412.795 301.302 412.539 302.08 412.119 302.961C411.699 303.841 411.218 304.517 411.085 304.445Z" fill="#FAFAFA"/>
<path d="M398.96 316.897C398.827 316.969 398.356 316.406 397.701 315.802C397.046 315.197 396.441 314.778 396.503 314.624C396.564 314.47 397.343 314.747 398.059 315.412C398.776 316.078 399.083 316.826 398.96 316.897Z" fill="#FAFAFA"/>
<path d="M399.718 329.728C399.718 329.871 399.206 329.994 398.582 329.994C397.957 329.994 397.455 329.871 397.455 329.728C397.455 329.585 397.957 329.462 398.582 329.462C399.206 329.462 399.718 329.585 399.718 329.728Z" fill="#FAFAFA"/>
<path d="M412.18 326.144C412.047 326.072 412.314 325.427 412.508 324.628C412.703 323.83 412.785 323.133 412.938 323.123C413.092 323.113 413.256 323.861 413.03 324.751C412.805 325.642 412.293 326.226 412.18 326.144Z" fill="#FAFAFA"/>
<path d="M424.56 330.455C424.427 330.506 424.048 329.779 423.721 328.847C423.393 327.916 423.239 327.117 423.373 327.076C423.506 327.035 423.895 327.741 424.222 328.673C424.55 329.605 424.704 330.404 424.56 330.455Z" fill="#FAFAFA"/>
<path d="M422.584 348.068C422.461 347.996 422.779 347.136 423.291 346.143C423.803 345.149 424.315 344.402 424.468 344.474C424.622 344.545 424.284 345.405 423.762 346.389C423.24 347.372 422.717 348.16 422.584 348.068Z" fill="#FAFAFA"/>
<path d="M411.289 358.4C411.156 358.451 410.736 357.745 410.347 356.813C409.958 355.881 409.764 355.082 409.907 355.021C410.05 354.959 410.46 355.676 410.839 356.608C411.218 357.54 411.422 358.4 411.289 358.4Z" fill="#FAFAFA"/>
<path d="M398.776 362.404C398.776 362.547 398.346 362.67 397.824 362.67C397.302 362.67 396.882 362.547 396.882 362.404C396.882 362.26 397.312 362.138 397.824 362.138C398.336 362.138 398.776 362.26 398.776 362.404Z" fill="#FAFAFA"/>
<path d="M405.944 378.88C405.811 378.88 405.524 378.317 405.309 377.539C405.094 376.76 405.053 376.084 405.197 376.054C405.34 376.023 405.617 376.617 405.832 377.395C406.047 378.173 406.088 378.798 405.944 378.88Z" fill="#FAFAFA"/>
<path d="M396.882 373.35C396.759 373.279 396.882 372.797 397.22 372.275C397.558 371.753 397.896 371.395 398.018 371.466C398.141 371.538 398.018 372.029 397.68 372.552C397.343 373.074 397.015 373.432 396.882 373.35Z" fill="#FAFAFA"/>
<path d="M396.697 391.485C396.554 391.485 396.349 390.799 396.247 389.908C396.144 389.018 396.175 388.291 396.319 388.27C396.462 388.25 396.667 388.956 396.769 389.847C396.871 390.738 396.841 391.465 396.697 391.485Z" fill="#FAFAFA"/>
</g>
<defs>
<filter id="filter0_d_252_755" x="-4" y="0" width="520" height="520" filterUnits="userSpaceOnUse" color-interpolation-filters="sRGB">
<feFlood flood-opacity="0" result="BackgroundImageFix"/>
<feColorMatrix in="SourceAlpha" type="matrix" values="0 0 0 0 0 0 0 0 0 0 0 0 0 0 0 0 0 0 127 0" result="hardAlpha"/>
<feOffset dy="4"/>
<feGaussianBlur stdDeviation="2"/>
<feComposite in2="hardAlpha" operator="out"/>
<feColorMatrix type="matrix" values="0 0 0 0 0 0 0 0 0 0 0 0 0 0 0 0 0 0 0.25 0"/>
<feBlend mode="normal" in2="BackgroundImageFix" result="effect1_dropShadow_252_755"/>
<feBlend mode="normal" in="SourceGraphic" in2="effect1_dropShadow_252_755" result="shape"/>
</filter>
</defs>
</svg>
